<mxfile host="app.diagrams.net" modified="2023-10-02T20:19:01.380Z" agent="Mozilla/5.0 (Windows NT 10.0; Win64; x64) AppleWebKit/537.36 (KHTML, like Gecko) Chrome/117.0.0.0 Safari/537.36" etag="we6R0JSf4j87tJn2m72-" version="21.8.1" type="device">
  <diagram name="PÃ¡gina-1" id="Iu0feN6PYh-WwOuFRd_E">
    <mxGraphModel dx="1222" dy="631" grid="1" gridSize="10" guides="1" tooltips="1" connect="1" arrows="1" fold="1" page="1" pageScale="1" pageWidth="827" pageHeight="1169" math="0" shadow="0">
      <root>
        <mxCell id="0" />
        <mxCell id="1" parent="0" />
        <mxCell id="iVhLE1qEGWSj8Camv88m-1" value="" style="shape=image;verticalLabelPosition=bottom;labelBackgroundColor=default;verticalAlign=top;aspect=fixed;imageAspect=0;image=data:image/png,iVBORw0KGgoAAAANSUhEUgAABC4AAAHOCAYAAABXU0iDAAAgAElEQVR4Aey967MVVZYvyvkr+sM9X25ERdyP3eeLEd194lZ9qO7+dAi7uHGjjLDtvoZY7aulC2kUH1AIPihFFEEp1ELLom2xUI4loOJGeSog6EYERNjvB3vz2O+192azx42RmSNz5FwzH+uVK9davx2RO3Nlzpxz5G/+cuYcvxxz5oLrI+NkWwh/QAAIAAEgAASAABAAAkAACAABIAAEgAAQqDMCC0ZGJ8i21NkuFA8EgAAQAAJAAAgAASAABIAAEAACQAAIAAFaMDo6SSOhxRUygA0QAAJAAAgAASAABIAAEAACQAAIAAEgAATqjcCC0bFJMpd6G4XygQAQAAJAAAgAASAABIAAEAACQAAIAAEgwAgsAAxAAAgAASAABIAAEAACQAAIAAEgAASAABDIKwIQLvJaM7ALCAABIAAEgAAQAAJAAAgAASAABIAAEEiOuFiwYAFhAQbgADgADoAD4AA4AA6AA+AAOAAOgAPgADiQBQdMrSYx4oKNwh8QAAJAAAgAASAABIAAEAACQAAIAAEgAARqjYBNg0hUJWwn1dpQ5A8EgAAQAAJAAAgAASAABIAAEAACQAAItB4CNg0CwkXr8QBXDASAABAAAkAACAABIAAEgAAQAAJAIJcIQLjIZbXAKCAABIAAEAACQAAIAAEgAASAABAAAkCAEYBwAR4AASAABIAAEAACQAAIAAEgAASAABAAArlFAMJFbqsGhgEBIAAEgAAQAAJAAAgAASAABIAAEAACEC7AASAABIAAEAACQAAIAAEgAASAABAAAkAgtwhAuMht1cAwIAAEgAAQAAJAAAgAASAABIAAEAACQADCBTgABIAAEAACQAAIAAEgAASAABAAAkAACOQWAQgXua0aGAYEgAAQAAJAAAgAASAABIAAEAACQAAIQLgAB4AAEAACQAAIAAEgAASAABAAAkAACACB3CIA4SK3VQPDgAAQAAJAAAgAASAABIAAEAACQAAIAAEIF+AAEAACQAAIAAEgAASAABAAAkAACAABIJBbBKoiXEzPzBGW5sKgv3+WsACDvHAA7UtztS+oT9QnOAAOgAPgADgADoAD4IBwII1aAuECootVdMqLwwo7IJ4wB6RRwxoPOHAAHAAHwAFwABwAB8ABcKC5OADhAqJE2Q4fBAMIBnniAB5OzfVwQn2iPsEBcAAcAAfAAXAAHAAHhAMQLiBcQLjAkJemGPIjjRrWeMCBA+AAOAAOgAPgADgADoADzcUBCBcQLiBcQLiAcIF2oOx2AJ2C5uoUoD5Rn+AAOAAOgAPgADiQRw5AuIDDUrbDkqdhArAFw1by2MDCJjz4wQFwABwAB8ABcAAcAAfAgco5AOECwgWEC0RcIOIC7UDZ7QAexJU/iIEhMAQHwAFwABwAB8ABcCCeAxAu4LCU7bAgygFRDnniABr7+MYe+AAfcAAcAAfAAXAAHAAHwIFG5QCECwgXEC4QcYGIC7QDZbcDjfrwg93ouIED4AA4AA6AA+AAONA4HIBw0cAOS/eeLlq4tIM2nUxLuCu0aWkHLXxmgLqrcN15etsOW3IQ/fFFr8PHJTtHUwsh7TtdDq//onL7s3vwjNGu5zpo4fJeOjqe9t6LSjdGu57poIVL++iEd092f9xNi5Z20IZjBYgJVWinsuNFVB1jf6l1UPqzrfg+KrVMpAdPwQFwABwAB8CBfHMgU+HixDbuoBcvD+0Za+wO+sk+/7pu237Vfi2Fq7T1Ue/aqyQclN65y6twMU0/nhqiV9Z30e3LA37cvraXPrlQuUPbeqLGKG1fKzh2047zdgzPfdjt87YawkF/MwgXvQP0kNFGLXqki9btuU5XfSd6jHav76BFq/roRC2Ei33dtGhZJ239tgbCheX63DY5EE4a+6E9Q90nB2jD+k66bZl3DyzroLvWD9BFv/7y/VDOFf6aL+sHadCK4YRzP1STR6U/2yBc5Io3Vp7gvkMdgQPgADgADlTGgToIF5300Gt9tOntYNnx7aTd2S/n4XfpMq1b30krP85QDFHCxcJlvfSFxZkZ/7LXeYvqdO4gXKg38hN06M0uH5vb1/XQ+td7af2rPXTfE920/Tu70916YkQEDqcGac26Tlrxvo5y0MJFB939znWFt+Rznd5cLeJGB0G48BpScdQ2DNDRY8O0b08frVzl4vRQTdqUjB0uub41PaE2eNPbl6vo2I/Qvi3ddNeGwapEdqV+yBdGad+mTleMW9ZB92zsda+RbXmiWYSZyh74cVhe/XaAVj7TSVt1BJ/wxRHzumhHp6X8zgG6xxf7qoMzhAsLzuX0h3BO9fqWwBJYggPgADhQdw7UQbjool29NXwoeyJCplEcXpkPPuM64OuOmG9KJ2nfRh6i0eW+zYVw4TvS5z7qcUSLRc/201cXpv39ECZEYEhYW6McRLjooiUcebGqn06a83gc7aNfLu2gJWurN1SjqSIutl0JGufRIVrLjtlzUW+cK2nP6iRc6Our+oO4upFdcc52cGyW2t9xRYs7Xhui7slK6qQ1z7WKBSJceM+uu3ZeD+4LjzcO7su66KGnWOCDcBFwsjV5hOtHvYMD4AA4AA7UkwMLFixw+ipa5Figf9i2+ST9xxfgDhWJEy5mqPvLPlrxhPuGszhEe4La9/T6xxfyW7UtA3R21CWIbSiKI2BI5yvUWTcdBvndSzs+76V7eMiCCAyFSTq7p5fuecSz64lu2npsPOjAiVjy0aA7HMQMqR0apBVLO2hF26Bljgn3mleu6fCjDu5Y30u7z08F+XMHcXKE9m3rdsOf+bq3DdGJjyxzXPQP09b1nW5eBj7TM9V1KCoXF67SxhUdtHBFD33SkeCg9xeofV8frVgd4MTRGTuOTwRih+/EX6NDb3XTLzlUfFkHrXjnGv3YO0qf/D7Yt+StK/SjOPP+edfp5Ic9dLc3XOWXT/fSJ+cMMeV7d0iLk/fSDlr0WDc9++G1IK/+YVrPTu7aAfrq+ACt8d7WL1rVQx+0F+e1cV1QV3e/PEBf+Tgk57N/i8tHPfzKnV9ChIte2uEMB+mkjYd12dN06PedtHBFH+3YYREuLlylHVu6/WE7ix7uohVvDdG5XlVHveO0/50Aq9vX99NXey1zXPSO01c7e+juh71757Fu2tgWRIfkbo4LW1tRGKYNXKdbhmjccdakrQicNN/pOzZOR7cH9+lD715VQ0zmaLpziDascznM7duGI1dphznHhTl3jbQve6677ZDHz3u2XKbugno4To7Q7i1d8W2E7fpM4eLKNdol+SztoDvW99HRwVm/PRrvHqJtG71y+B7Q7aFnq+ak247a256iZ4Jc63uDtM3DyZ/DJ65tu3KZVnIdcZutMTGvjX9ze95mPEc2hq8xqM9R2rfFiwhbzvU1TtOj1x18eB6Shcu7aN3noz42wXmTdOJdjwdLw88p92Geot0XLJLqfSbhuZmYj/A53J44uPt8GXSHgzzaR+0aX28I5G3bB4t47Fxn/3ARVza06WFXJTzbYnkp1xDck/XsNKFs1S7Z7kHs89sMcAVcAQfAAXCguhzISLiYpe497qR0D26/7IRp737b7TAGIdpXaNOqbtq6Zyh0fNFrw45DMfjjMB19zx23f9cbg06aE90FmvY7X+ot6ozZ0ZHfHbTouQG66L+xm6IT2zpp4bJOWruLyx2iHU44cidtkjHofsdwjC7uYkcwHFLr7HOGkJid9+CaFz3TS7sOcWh6Lz3IjsmybtrVLc7ChBuxsbSD7trQR7uPXaZtGzppkTeG2+/Ydw/QQ8s6aNEznGaYjrb10YP8+zkJ2TbLr4woFQsX7QN039IO+uWbVwPxQcSE0Hqa2ne63Fi0toe27x2iD3b20H0eTttFEPAEiF8+1kn3vT5In3zY66ZZ2klLnu2iO1/qpw/29tPKx9wO+pp9U2653nl3ru6iO9f10Y62IdouzspjfXRIHPb2AVrCmC/vomd3DtEnewfoWW8uiSU7R7xr8ASHFZ1056oeenPvEG1/1XN8VqvIBy+vRWt7nfIcW7munh2kdufak/M59/UQffK2y/c7Xx2kT9qGaH87X1MgXOzvGqI1nO/mIeoSTL19PISkSDjoGKb1jM+yTlrxFuc5SK8854ort28Z9gSaaTr0pvt2W+qD8RIxJ5icc4L2b3HvnZXvDDn2vbmBz+uk9Qdd7IvKFxvLWFel4TfbiskJj3udtPWM3I/SVgROkjisdzzRRU771RYIsOu+9CKwhi7TSkdM66SV71527k8ehuLex8V5+fe1177c9kQn3fPKAO07NEAbnLfbHXTPrhGvA5yyjTCvz3QgRq/Qpid4/o4e2nFomI4eGqC1LCTzUAtvCBy30w9uGXDbGDkubd7QdTp6bMARaheu7nXTnB6l8QjRNEq4YI5sOqaGECa1bcdc0Wzl5+oc89qc31577relw7T73W66i+uFr9ETwXV9cru/b1ePm2ZpFz30XIdfx9y+6vZezrtnTRc9+MYA7ZO2mgWejZe9OSJStvup6j3IK/K5mZhPgbpPD9PuN9x7esV7w86z8+zQXOjZKcMdfT7PzJG7j593xffEtFdn3F5u4Gc289YR6TrooT0i9qTkbSIvLeVb67+yZ15V2hjYBacdHAAHwAFwAByoGQeqLFyE3+pwp88ZOjI+TOuWdVB4csvrtJ3H4a+WidVmaVq/7ZnxjvNbICGAEhH8Toa1s252dOR3J23/UXVuvPG7K9omAoDHh2idfgOry/SiK/zr8N9I8aSdhnDgXfPCNQN0UV/X6T66jTu6EiHy4wDdxb+3DKm3t1P0hffG3XVwCvTFax200HgjdnGn6yi612SUL5iVua5YuPAjHYI38NY8PUd7ITv+IiKwY3vYHe6waMtwSIBYuGHIj4Do+qTHHfOuRYMv3PlGfMHEs2PhukE65zvMXlTC0k7aeJQjDaboo82uk/L61yp6ofeKGzWyrJf2O7Z5gsOyHvrIj54QIaGHPnAmG/XyWqFEkf5ZOrndravXv+by0uQzS/bhGVJeL+3vl+sIJul0J+V0f5vCwcl33AiMNZ+oSJb+Mdqxzr12Z84Rrg/mf6g+punkdvdcX7j4pp/uXtpByz4cC4QpOfdlV0gxy7fWv18nKuLDss+/38vks3O+tBV8ff7SSWs/H6Fx/x6VtqJYbLhHh9Kf7HMin25755rTdrj3YgetO6KiqUaHnHZPh9iL82sKF6H7X+zceNltE7w24rY3hmPaCOWI+tfmXafX1rjCazftZqfVw3H8iHsP+UPgCiLguGnkeCAa2NoZ2z5LFJ7XlgbRLVxGcttWhFkUB7z2PITlzBwNtrkCoAwxlPzuei8YGiH1J0I54yPp5Nrlt9/+O3bI5JU9tO/KHE2nbfc9LEK2mvWe5rmZJh91LT7v2HYpj/khE0z7EYXedTm/zXvCq7OlXbT9R8UXyWNZH53g+ynVs23OeyEQx0uz/IC/wmOsgQk4AA6AA+AAOND8HKiycGFOzjlAJ7gz963byQ+cBe04iIPgzhi/7Y0eenB1J93hhUzrTv+0FhGk86o7X7IvMuJCynIrdvDj4MsLRbbJUJJQmV6HzZukM3gjxfkZnXfvmh/8SN4+CZnC6cSGDcdUB7Coo3mFNjlv/zRuwbbbGQ3nW+nNW4mT6ZzrzbNw5/ZrgWNrcUj7D7pCw307JKpBHFjPuV874EYp2IQQiabQZXw3QEvYcTMED9/hFhvaXIdtiTPx5TCtZ3yf9MqSNP2z5A7Z6PImEjVs8tIVpYmpK3eizDT5pBEuZqnfExDcSTrdSTklAiMsHIzS9meZMz30iRaI+mfDkRlR9WHgf+79mHvHq7Nw+VKv5a0r5bNzvrQVanLODRzdxMLhczIModhJEoc10umbGXc/obq0l476Agjf7ynyCrUv9jbi6ucuV+PbCOWImpNzHuDIDbExaDd0mydO/fSVEdq3q8+ZBPkujhjxRBD/uNnOOW2uve2JirgI8vLazZj7hTGX6/fFFb+dF7zcdVRbGnLQi9pW91yp41AZRt1ImhAPOD8Z1vdt8KxLavetzzIT2zTPTcNG9z4prg+r7XI/hIQtL6LQE4HcCAyTx97z6KniT2/rOo+qj7AtaXhplh+u96q0DRGcQt7AGhwAB8ABcAAcyA8HqixcRMxx4XWuHtx5ja5emTQW9w1l98feUBInBPcKne2/RtvNCcFsnTSj8+WSy+zomL/dCpAO1LpDpk2TdPW6FwJululFTKw7MuqOC/bfUBmdxZTChdhQ1BkOjYX38n5qgM4W4TdJ487QF6P8CjtiFQsX8vZdD8dQgoCff5SjLFEJKYSLkCiRUrj48SPXGVzzCQ9rqLJwwc7ekzwh6Tj9aCxd3ey4V1G4kIiJVf30lROlEsx5ERYOUgoXhkDh15OxX/Jes7f4Gn+82CBDRZx7ZNabn6eDXGGguK2w3qOhdqf4HHs7FLzF9+93s31xbArfy9bytcMsX4oI2WQ+ZMTGXtpnaUOujs/S9Lg7lGThE920rW2Yjp4ZpauH3GEagdgQts29Ttu+6IiLIC+20Ts3rm2TN/f+cAzz2tzfUY5yKcKFXy9cD0bdRNWDO3GoF82Xst0387bi6JUf99xMlU+EWGPiMu1FFPIkne0cIeZH+Al3RPhPJ1xE4RXeL3nH8NIiALp42XmAY8AFHAAHwAFwABxoTg5kI1wkTq4mnRfpGPEkaxJloPYZHUmHlDK5nj/khMN1r9CmR/nNopxryZ87pmfcYRvhEGyjoovKHKEda3jMdCfdsbSDgjHBRuc96prPu0ND/HBjr6Pr/3YcFwk/7iC3I+19uYTHmvtzYxh2igMgkSJOPmaa9L99h9UmNqTaF8yVcPvmIWp3HHbL2/YL7uSmPOFlu44EON5Pd/IcGb+/EhoqEhIpDGfasTlCuFj0cjDEpL9/gj56mfnRRW9+wzaN0wfrvd8ypwZfY+81eoUn4PSHfaQRHCLyCmGWJp+UERf9s9S1j7/e0km38/wVatiMiAvyOVR37opOerZNDxWZoA828LV7w02+H3QjVqxDazrIx9+LqPnlqxrXcP2a5VfCqao8gKyOvYS98zAPFiuL24qwo+XdQ0ZeJ95mDDtp62kVOeU5gkE7VJ5wwc4pRz6E2ojCqDdhorQRKuJChqEZbYA42BuOqeEsOk1RWxfYG4gNRjvnnD9KOxyRuUd9LlpwVGK2Jf/pmTRtWzBXwkMsfoeiWlSbFtGeXz3kipQyJNBWn7Z9piggaUJDhgrXaTs/D+RT2WnbfSsWBrZReSXUmS8GqWeB2B4SZgwOB8N2OukOnvzZn2NF6lKepxF1VrhO23j4pwgeqZ5tc94XYzopkpeWe7Iq7YHGEdv+8DFgq9oU8AK8AAfAAXAgVxzIRriYKdCJt93JwWSiyqPHLtP2Ld20lcNr/c5rB614jyfJvExb13XRHSHxIRgzu/AJnlxukHYcGKPpmcDJdyZM8ya3C0+KZ3a85ME05oV4y8SY7oR1Wzf20m75rKulgyljpv3OqkNqo9M5M0vt73ph6ObknMt7aJ+MMy9co63el1b8Cd/Wd9I9a1y8pKM5/m2fI5T4k6EdG6bdu3rpoXdkUlKzfLnG8taVOJn+ub0j3vAE9wsgd6/vofWv99L6l7vpzie6veEX03ToLQ8nc3LO5T30wXnPGbaJFLZ9UcLFsg6679UB+kBNSBkSM4720Z0csm6ZnHPlHpnHIZ3g0HWwl27nqAvJq22IdrzTQ0ve9ObrSBtx8bUr3ix8jCcCHaQ39/B8IXqOCw8bmYtjaQe5Q0bc/UXCwflBWulMelo8Oeedb8kkqmOeiNNBt8tkpq920X2rjTku2A5n6EkH3fmcO+kpT2i6cX0P7fguovyQeOPZnnJfVTrT4qh5Q0WOtg2QDBUJJqgsbitSOX1nvPtzmTdZIU/guaqL7mFHzhdQAyFA7mvTOXav07iXzTbCmwjRbCOK3qCbD9veQWeCX56c1ZlA9BhPGNxHK7d4E/x6jv+iVb20i4/t6qGHVrntUCBceHMPLXUnNN616zJ1c1vnzOHifqXEmWCYv37kDAFJEi7mKLltm6NpbwJHZ3jL8k5asaWPNr3dRxs2dtFdPPGmc60TtG8T4x205zI556JVwRczbPVp22fWjaRZxJPb8gSsakLKQMxI2e5bnivFgkPSc7M4KsTKH55o05vLZNFTfbT7UB/t4ueu3A9a6PIiCvWkpDYxj0V/Z9JTy+Scaw94c0aZvOXJTC3PtukkXkK4yFWnsSptsdk24TfqGBwAB8ABcCAFBzISLtzP1J3Y1eN/dpQ/ZXnX+l76QgSCwSHa4H02dNEj3bTt9HXaZXxKcHpmitrlM3TLOoiHeDgP0cFh2up/hpA/Z2p+hrDYGfEfvt6nSP05NZZ30oMbB6jdm2Xf7Lw651knTTOcDQf8qcRP85n2s7O7zvlEnuso+g7OzCxd/XaA9KdVb1vVTRu+ZPGGxQlb+eWJFpyfLz6kdCwj0/MnMz/soWX8NQNvvPyihzvpvvUDdKhLnNcJN433RRDmxt3r+8KfK7WJFLZ9EcLFkh1Xwp9M/X1xFMiPxwfpWfmEKUd7rO6hV9TnPVMP8eifph8P9oc+7/rLJ7rp2X0yUWk6AYQjQ/SnX3lYhlW44Mk/nYk3g0k6uT6KhAuuy3NJn3ydpf6Oa7T9Ze9rKcs6aMnvh+hcm+VzqN3X6QP1adWFy8P1ai2/TD65HC+fz8754qh5PPSd4G2DdPaKREoUtxXisAb3os3pm6XBY330kHxWeXUv7Tpf3IYV5ZXKgZ2jadXGRbYRcn3aETUfAvzJVvmkMs/t8UQXrfzwmvcp2Ck6u6vHn1/I+STrsT5HCAiEizm6ejq4zttkUmHzM6J7rtO+bSwiJAsX04ltm1fvk2N09N0eetATern+Fj3RSSu2DVO3XGdh3Ekjn7dmTq7g+vW+KMI8KKqDiH1m2++fd8j4ZOoeMwokRbuftt4LkxT73EydT/jTr9vP2zjMOHsRhf4QSN5XfE8wjlfPD4a4dNuaHtqmPyXOdZKGt5wulpf28qvSJghvsEaHGRwAB8ABcAAcyD0HqiZcoBNRoVOVs5slUogo0/GsW342caPRrgH25r4hrUf75w5PUcJAztqQemBSyzJ94ULmFAHeuC/BAXAAHAAHwAFwABzIjAMQLkA2K9nqJjRU20mHcFG96Jlq100J+dXSIW3IvOVTqzKfANoxaztWzbqFcNFc4nw1uYG8wA1wABwAB8ABcKD2HIBwgQ6/tcMP4UKGsWCdBy609sNgjHZv7KZ17w7QPm9umwe9z0U/9LEMFav9w6K168A+xKTVMcH1474DB8ABcAAcAAfAgaw4AOECwgWEixLe/OfBiW9FG7JqEPNZziSdeKeb7vLmz+C5He54poe2+fPb4IGZRb0h4gI8y4JnKAM8AwfAAXAAHAAH7ByAcAHhormFC4gSGCqCe9x6j+OhaH8oAhfgAg6AA+AAOAAOgAPgQP44AOECTo3VqWnFt/q45vwOi8HDI38PD9QJ6gQcAAfAAXAAHAAHwAFwICsOQLiAcAHhAlEZuY/KyKpBRDl4+IID4AA4AA6AA+AAOAAOgAP54wCECwgXEC4gXEC4QDtgbQfw0M7fQxt1gjoBB8ABcAAcAAfAgVbkAIQLOCxWhwXDJvI7bKIV66YVG2dcMzol4AA4AA6AA+AAOAAOgAPggMsBCBcQLiBcIOICERdoB6ztAB6U6CyBA+AAOAAOgAPgADgADuSBAxAu4LBYHZZWfKuPa85vlEkeGkvYgIc2OAAOgAPgADgADoAD4AA4UB8OQLiAcAHhAhEXiLhAO2BtB/Bgrs+DGbgDd3AAHAAHwAFwABwAB8IcgHABh8XqsCD6IL/RB61YN2i4ww038AAe4AA4AA6AA+AAOAAOgAOtxAEIFxAuIFwg4gIRF2gHrO1AKz0Mca3o/IED4AA4AA6AA+AAOJBfDkC4gMNidVha8a0+rjm/USZ4iOT3IYK6Qd2AA+AAOAAONAIHCtM3CAswAAfScyBv9zWECwgXEC4QcYGIC7QD1nYgbw8s2APnCBwAB8ABcEBzAE5oeicUWAGrWnJA35e12oZwAYfF6rAg+iC/0QetWDe1agCRLzrA4AA4AA6AA+BAY3Cglk4X8oZTDw5UnwPVblshXEC4gHCBiAtEXKAdsLYD1X7gIL/GcA5QT6gncAAcyAsH4ExW35kEpsC0HhyoRpsC4QIOi9VhacW3+rjm/EaZVKOxQx7oiIMD4AA4AA6AA/nnQD2cKpQJZx4cyI4D5bbDEC4gXEC4QMQFIi7QDljbgXIfLDgv/44B6gh1BA6AA3njABzH7BxHYA2s88CBUtugqggXPf0jhAUYgAPgADgADoAD4AA4AA6AA+BAKRzo7rtOWIABONC6HOD2Io2IURXhgvAHBIAAEAACQAAIAAEgAASAABBIicD8/Dxltdy8eZOwAANwoHQOZHWPQrhI2XAiGRAAAkAACAABIAAEgAAQAALZIFBNZwjOaOnOKDADZtXkQDXuZwgX2bS9KAUIAAEgAASAABAAAkAACACBBASq4eBU0+FCXnDgwYHqc6Cc+xzCRULjicNAAAgAASAABIAAEAACQAAI1BaBchwZfU5WzuXc3E3CAgxagQNZ3VP6Po7bhnBR2zYYuQMBIAAEgAAQAAJAAAgAASAQg0CcsxJ3rBzHKuxwztHcHBZgAA5UjwOBqFXO/Rl3v5ciXExMThMvk5MztCCm7XEO8Yye+AMCQAAIAAEgAASAABAAAkAACEQhEOeoRB1L6xAFIgUc0+o5psASWJbDAVfQSHvv2u79coQLFi8SVQkIF1HNM/YDASAABIAAEAACQAAIAAEgYHNO4valcXpcsaIcx8o958aNOYpebtCNG1iAQStxIPp+qEzASTdvhm4PShEuxicKTsQFhAs8Z4AAEPoeA10AACAASURBVAACQAAIAAEgAASAABAoGwHtkKTZjhMtShErAlGilZxPXCvEliw54Iod6YWNeBFD2odShAvdMCHiQqOBbSAABIAAEAACQAAIAAEgAAQSERAnJO26EsHCFSkqc9hmZ28QFmAADlR2H7nCUVIkVLyAAeEisXlFAiAABIAAEAACQAAIAAEgAAQqRSCtWCHpokSLuAiLtGJF4IjO0uwsFmAADlTOAVfgShfdEidi2AUMCBeVtsA4HwgAASAABIAAEAACQAAIAIFEBESQSLOOFi3sDk+cs+SKFOU5pjMzs4QFGIAD5d0/rhgSH60RNaTEbAMgXCQ2sUgABIAAEAACQAAIAAEgAASAQCUIpBErOI3prMjvqCiLKMEiSawIO6IzNDODBRiAA+VzIBC34iM3okUMu4ARRF/09I9Q0sIfCOE0+g9zXGg0sA0EgAAQAAJAAAgAASAABIBAJAJphAsRKcy1zaGxCRZxYoUrVCQ7ptPTMxS/TNP0NBZg0AociL8X0okccZEadhHDdr9zm5Dmz/ZlUwgXaZBDGiAABIAAEAACQAAIAAEg0OIIVFO0sM1hESVYRIkVgTDRCs4nrhEiS5YccMUOu6gRJWLYBIziIWHcjiT9QbhIQgjHgQAQAAJAAAgAASAABIAAELAikCRcmBEW/Ns2NMSMsrAJFvFihd2BKxSmKVgKVChgAQbgQDIHgvsmWhyKinKyiRjFAoaOvtDtiLWhISIIF1HIYD8QAAJAAAgAASAABIAAEAACkQhoZ8O2Xb5oEXZ8TMEiKqoiSaCYmipQ9DJFU1NYgEErcSD6fogWNlxBo1jMsEVjhO9jnh/DFChFvLC1H2bDA+HCRAS/gQAQAAJAAAgAASAABIAAEIhFwOZomPvswkU4TFw7MmaUhV2wCEdWuGJF+A16WJxIdkQnJ6cICzBoRQ6kE6oCgaNY0Ajfj66gYUZimAJGOPqCxQuz7ZDfuhGCcKHRwDYQAAJAAAgAASAABIAAEAACiQiIYxG1rqZo4UZYBA6SKVYEQkWxSBF2RidpchILMAAHkjkQCFl2ccMVM8JCRnCPFgsY8eJFVDvC++UPwoUggTUQAAJAAAgAASAABIAAEAACiQjEORl8rBLRojjKInCG7IJFIFYEIkWxYzoxMUnhZYImJrAAA3Ag4ED4HrGLG66gERYzwhFPfJ/qoSThyTy1gBFEXiS1KdwoZSJcFObSfeIksZVEAiAABIAAEAACQKDqCFTzOc2h3vgDAkkIsGOLv8ZFgB2TOEfDFC7MyTijhodo0UJHWWjBwoyusIkVgUBhd0rHxycofhmn8XEswKAZORDP/UDEMO8dV9QIixmmiGFGYWgBQw8fKRYv4toTOVZT4eLI8Cj989HvadHB72jhF+10y8cnsAADcAAcAAfAAXAgRxzg5/OiQ9/RPx35nvi5Xe7fxYtd9Nob79IrW/5IL2/6A619ejMWYBDLgfseeIwW/+o/sDQYBg+veJoee/y3tOapl+j06bNFAoYpWvBvmYCP12lFi8mpAl25NkEDl8eob3CUevpHsAADcKCBOMD3bf/gqHMf8/3MYmQQfREWL0SciFuzcMHH9d8C/cO2bVM7zHSvXuijv2/7hv7606/RQc1RBxXiEcQzcAAcAAfAARsHfvrZSfr7/d/Qpgu95iM98Xfb51/S+g2/p98+vzXWUYWYATFHc4BFi/seeBxLA2Jw7/2P0T33r6BfP/Qbev+DvSHxwhQuwqKFKVy4zosZaTE2PuUIFhOT7OjM0TQWYAAONCwH+D5mEYPv6yjxIk6wkGM1ES74jQ13fv76E4gWts4h9sFpAAfAAXAAHMgrB/ilQymRFz9e7KIXNrwBwQLRFSVzAMJF44s2LGD8+0Orqb3djbwoFi3ioi3sogW/meUoC4gVEGzAgebiwODQGEVFXnDbIQJF1LomwsUdR7+nv0GkBSJNEGkCDoAD4AA40HAc+Nm+U/T/fXk2McpCEvz+zfdo3XOItNCRBNhOF1kC4aLxhQuOmLn3/kdpzVMvOk5HsXARfPr0xo0g2mJ2NggTl9BxmdOCh4fwG1o4rc3ltKI+UZ98X/P9bX5xhNsD3XZkJlzwBF88p0Ve3yTBLrzlBAfAAXAAHAAH4jnw/xz6jqZSTKw9MztLr2zZXvKbdjj26Rz7ZscJwkWzCBePOXNe8KSZ2vmIn5AzHG0hogU7NBxtgeEhcHIhdDQfB/i+5jkvgi+OyJwXYeEiKvqiJhEXmIgzvkOIDjPwAQfAAXAAHMgzB/g5nvYPE3FChChXYIFw0RzCBUddPLziKWfSzbBwoaMtgs8eSrRFeF4L9+sDhULBGQsPp7X5nFbUKeqUOcCT7PJ9LuKFRFzptkO2zciLmggXee6MwTY4C+AAOAAOgAPgQDIH0goX5TqtOA+CB4SL5hEuuC75ayHicPA6PCmnK1zw55ID4cJ92yoOjHzylB0bOLlwcsGB5uSACBd8v8u9z+IFR2jp9kO2tXgB4QLjrzGsBxwAB8ABcAAcKOIAhAsIC7UWlyBcNK9woYeJhD9/ah8iIqIFDzeBcNGcDiuECNSrRFzwfc5RF4F4wcIFR2jFixcQLtBZLeqs4k1k8ptIYASMwAFwoNk5AOECwgWEi+YRFmr92Vkz4qL0aAvXkZmamoJwgc9+IuKmiTnAwiTf565wEQwZkTZDIi30WqIuIFxAuIBwAQ6AA+AAOAAOFHEAwgWECwgXEC7SCh5RwoXtSyIyt4VMyKmjLSBc4K08IjOamwMiXJhRFyJc8FqLFrLN4gWEC3RWizqrzf4WEdeHN+XgADgADiRzAMIFhAsIFxAuyhEukoeJmHNbFIidGBYtJicRcQHHvbkd91avXxYu+D7n+13EC57rQgsXUeIFhIvUwkUPHZ9J1427cqWHbk2db3LnsbIOdoTdM2P0Ym5srDUGyL8yDtUKv0E6d1PdUzcn6e08cvJgDx0u3KSZwgi9eLBWWJSa72l6/OJ1OleYo5l5D8P5mzRWmKS2i5dy0v7AxkzuuwsTNMN1PzVBbefPV1WIVndn7GatnVvk37wCCua4aB5hREdcaAdE5rcwJ+WMiraYnJzEUJEmHibQ6k47rt/9qgjf51q44Kgrbit022Gb7yInwsV5entkLrZj5B+8WaBdJ0vt5Fcj/TB1+EYkb4xdzYt4EWV3gXbl0Un0bbpAO0ZdTsyMD9MSf3816rJaecDGyhwzk5s55KQnWsgdnwvx4uAl2jEW316OjQ3R4/UUWWBjVQWEuPvsxasBFzp6T1e1XOF90hrCQvMKC7WuWwgXrSRcRE3KGcxtwW9hIVwg2gDOfXNzwI24mPSjLmSuCxE5tXghw0RknRPhwnRgErpJdREvxMYo50qOi+1R6arlNKfNx7Qrb/bZruNCkWM2M5E38QI2xjlT6Y6Z3MzLPeNx0hAt5M6pr3hxgXZNBGEqM9OTdLinn9ad7qI3ekbo3LQ6Vrd7pvFspPmbdGWiQB3jBeqYmA2iWIgof22PbjMv0eFpYeY0tZ3QxyrflpyT1rV2bqua/7fXiOgaffN0SrFhXy8VaJo69qVMnzbflOm+uUJEhV7alzJ9VbHKoMx8Cxd76fwUEQ2eoLTDJUpPl0UZ2YgjEnERHiYy57xFZYck+hOoepjIJE1MIOICjntzO+6tXr8sXPB9bkZdiHDB8+JEiRc5Ey6maW/cW8KDV6lPelCZixfiZEU5V3JcDIxKV3lnMp1TKOWYduXNPrFT1sWCgFicHwcCNpbGQalbc21yMy/3zAm6JUK08LlYp2Ejt3ZOkoxYG7vaR//EkUjfDVP7+ATt+o7x/Z5e8d/A36RzndV9A5+m3q02hiKm8mUjzUzQ22YU38lBahegqT44hrE+TY93j1DbeaM+T48Q+7XO3/QIPf7xCbr1/HU63tdVleFCknXSulxneV+nq7oUOg9TdB7f0zAbUC3nvabCxWHqKFTR1qc3E4SLKKf7BA1YiVmg8zujzil1fxaiQhZllHrd5aR/jBb/allRqLc4IuYwkZmZGeIx7cGknO7cFuzITExMYKgIhorgqyJNzAFXuJhwhAuZ64KjLqS94LUWLvSQERYuOPpC/y3QP2zbfFLcX7jDZTortt/iwCQ5LpLOK31ugl4JdYhteVdrn5Sd1sakdNWyKymfRprjIloQEL7VX7yAjaXf31EclXtKajcn90yCaCHWZh95cZ72TnqlT10Phk/1sqdE1NErOF+gNn5LyH+TV+nezNpILj/CxiIbcmLj/DTtNUULsfXkVeqT+UMyx1Hqktenad3gtCtY3Zylw0q8uHfQD7egK0OX6JaTw9ThPc+rMdeSx6LEVbToEB+l4AgXBXZeYiIKHKGhimJALYULzpuvp6wIDVf0iBdx4vEstx7qeV75EReucDFw1HCyjw65fK1plIRR5gNpf0fYnPr8tOXUI12ScBE9TERPygnhApEGrR6N0ArXbxMuuB3gqKxAvLBHXTS2cEFZOjriZCWVmTad7phmsd1Dx28Q0Y28TsqZLAhI77l+4gVsrJ5owZyXe0VqNuneyuI+OUG39LhCgFgVt+7oycgmx5kepHOeI93Xd5pu/X6Q9vZdpb0js46JV0auOr/f/v403drnObTzWU94GmEj26mWvNhIY4Oxc0K8PebVfuY4Cq9O04tX3PoVHl4Z7vFsPk27JmTvHB0/dyIQOLzdYyODgcAlgkwJa8k9aV2u4+sLF0Q0/K3NKXed+eErLAjEiBulDGmooXDB0REsPDhREle+j4kiib5WCBdpne4YEWDnRWLttkjUqLtAEGNz3W1Li3tUulKFi2kv4qJ4mAgiLiBetILz3srXKMKFOVwkLFzYoy5yJlyUMFTE6Ull4+gs6ZqkMXnzliiWKGdsfo7OdV2I7RhX1xGUzq5tnWfhQgsCN2kmHAFk7TPzhJ3ZvkmGjVXham5FAds9w/vU/Zxhm2PHOrCFoyv0pIz6JuGJgW/xojAosb2Kuu5y9zeWjQ5WMY58gHE2z5pwvV8wJq2+SX2DeghIIBLR3AS94VzHaXq8r+APJ2Je8ESt5U5urHkVt12ZcNFL3/CQEZuj78wvcY2+cSIZTOHCG0LiG2afh8IREfw0Xl7mHBdOOX6isC2p57hgezwbxG6boOIIJ6osFmTM8jnAxBs+YxNBZIiNn4uJnYgzRr5hccgb1uJnYsfPrNsDB4/5Z5gbfMxMn/S76hEXngBweLB4bgpnn290eEiJpJc0Uz/spfsecIdxONuOGBI+x5nPwonwGKLDuly/DCWeSCRI0TFVhi9eeMNHitIGooHYu/MHLbQHdqSZa+Oj3W2qhPAmH0uTR5CmWLjgcery9tQ2v0XUMJHxcQwVaWWnFtfe/MIVCxd8n7NIyVFWMlxE2glpN8whIzxEJGfCRbjhTP6VRWdSdQ6TDfJTzMx53neWb+pOBGHCviGlbPC8IVWe3C3cEbc5Q1oQmKP2jguhcOdo87Ooe7EXNibXo2CVsM7tMIwouwNH3OVilrwzbQraIkRcmNiU8jvAMb8RF7rNYeZZRPCLE4FAYUSOLOmYoCu+2E5U7peZotvf8JEk5zTquBtxwYKEcvqVsy8RDGtN4cJzyMW5d/L3BAHtnDtOv47U8B15NTmns0877Z5DL2JA0XFbtMRmCq6Fj9uHfbiCg1HWFRFk7OeYwoXzOyS8ePbq6xRxRO1zyw6u28x3X+e11BOQ2sSLckQLrrdaCReOQz91kXZqQUEPH3GEhECIEMEiHKWhRQW9LQKCsW/nRRpwBA/vuFHGfQ/YIi6MPLw0oQlBvQgSV0xx8xZ7g31uPqHzfCFE7C1e28SL0kULzhfCBRzu5ne4UcfVqeMk4YLnxBHxQs91AeEi5k1b4KiZjku4w2b95QzH8CIcsnzj6b3Nnil4s+PzDPn+Mu1GjczPUZ+/Tx0vuEJLtqHvunPuiRZSJ2qstg3j7CIuYGNwL5TiHMakTRAvsp87IsbWXEVcRMwfgTkuSoxqUzjmdo4L3e5wC1gsXLwxEoSmnesKT9rZeMKFOwllSIhwxAzP0TaEC9PpFmEktD9KcHCc+rADHy53MzlCiYgDUfkogcUmVISFDBYz3AgRLayI3e46hXARZYu537lGLZCY5dvLCttjF2gkjRYvyhUtOK9aCRf3sWggwoXj+JvRCGHBwBECJL3v8IfTmGLIfVFRGP75plBh/maHP6EMLy+zbKu9jlBiXmexWBFESbjHtHhRnmgRJVy4zodMzDkzM0vupJwyMad9mMj4+Dgm52ziiRnh/FfH+W9kHF3hYtyJuNDDRbiNiI+6yHnExczkdVp39ATdcrSL2iaDTlrgyGbx9rMM4YI/oScRF1kKF0UOjHbIEoaKxJ6r86nW9ml64/qcV5WGaJEgXmQ3xwVsrLpoIXUbIV7kS7Rgrpv3fxZtTvQ9Zv1iB74qUqJwcYI0jvn9qkjcUBERxrkJLdAu/2tcjTlUxPnUp+N8B4KC4/hL1ENIuHCdbqsAoNPpbS0yOE69lONFKwSdCrXlpTFFAZ2XbBu2O869eZ4tjZzvrO1iQkiMibomL8LDxyR0jSJAGMKJk4YvV7CQdOnXLFhUIlrUUrgIOfqOQ6+qVm1KxIIjBOiIDEcwCIsKbsREEKXhlGGe40VHqCLUXBvJwgXbITaFBAZDfLHaW6ZwweWwYFG+aBEIFyxSyBtSeWMK4QKOaiM72bC9+vyNFi5mfOEiKuoix0NFjG/Sn7hOvfPzNB9apmiXOEI1Ww9TR6hM04ak31nYGO3o1MzxrBjvANfR4a5ox4MjL+YCjKfHh8ser106FrCxdMxK4CKLF1Nz/j09PXWdXvQdsBLyqZiLcWUFHHDbnnrfzxdo17jCrDBBh7v7aN3pLnqj+zqdKwTH5m/O0LluPSdC3HVW81jj2Th/c46Gx6eoY2yKOsZnaPpm0ObUD0euk9P04vCMf48wB4d5cs7T12lYnkuT1/z5ftYNFmha9s/P0+j1yibnDD9vFSaqDE4jb+FLXe/rLND8lAyV2EzfDM97k3Qepo6pQjB04dtrKh0fk3SGk63T6W0tEPD+eXHWY/KSc/b10tS8skX2qzXbHYnVsDdJp5OPlGvY7eTl2jJlfBrWyVvyiLomFi40JqFrlLK+dzjjixue/U4dOPUZZ5vkUf11JREX/fPz1G9+VcSLUDg8OE+TMmzj6BDNTwbDRkKCgEo/b4oQHA0xqfJ54HEK8nWP6fL52Pz8lPoc6wkK22j+Zoc/XEaQvxsN4du68yJNzgfRFE5Zpr18nSqNf653jbX7/Rjde787VMQuXKT5ooj7GVQe917XiIveAXpoaQctXNpBm05W32GDEwxMwYE5J6KK73M9z8XU1JQTkWWPugi+MJIf4cLoCM3PF6hNz7dw4lqdhIshuhSyLclxKTV9NRyGbjo+bXScpkfpRc+hu7d7KtSZnZ+fo0vd5zyxIP7c2jmu7fTGtRteZ+8Gne38wSpe3HpulEY9/KfHy59krrzrgI3l4WZyeoDOKvHJ7+AzR49006GpOXJEiyMWLnLdz03Q2zUVJ9hem40F2nvQ2M+2HLxS3BZlYqOH68GLtGNU7h3jvpd7xcd7joYvd9OtNcfPqHPYaG3Pyruf2mndgCdIzM3QoXPtdO9AwXeUhy9fDMr6eogueXU/PFx5vfv3augZWMy5UgULSb+vg4WLHnIiLtiR3tdDU/z7m6s0P3wmEET4t0p3ioUCfdxzwkP7+Zz5Al3aF3a2nTLnr9Ip2znePrHPWbNNlnyCNGdoaH6ehr4Jl8PHw2VFp3PzOkyXpuZpquNwcN1Pb6bQNUXZYu53rj24Rjf/uPLjjhVfV3DtlR+rWLg4Yjj47KQfuUzz85fpkDjsO3+kyfkpOrfTktZLc2hgnuYHThgTUu6lcyxcnOeJOr1zOe/JH2mnk6cq4wFPlAjZY+4zf3Oe4TJ2np9y85fyvLW532qved1GHv41VH1/WuFixhsqor8oMuVMzCefQWVHZmyshkNFTvY5ogQLE+Gli3b1ztE0hAuCYw1xpdYc4IgLvs+1cMETdPJQMl7ihovkRrgIiwNux2h64hqtO3KCbjnSSZ9NqDeJfieKRYTjdEsmiwgSSWWmTVdNu6VM3aEM7HzxSrGTM3ql28Mt/tzaYvuDcsBEvAhw+acfTNEiOFZbu3Q5sLFyrG0c87g6PUpvHGunW4/10TFTfMv0PrfbOHp9gB4/oPhw4CK9fb34fuK3bNm1RWxPOz3+4zU6O3UjiA64OUejUxP02Y8XaUlIrBTxQl1HJm0mbKz83pE6a6fHu67TZ+fanbrfNS5t/Q06dlbSuOtbz12jY72ddGsV6rjWwsWnnnDxqS8YHKJLU+6490ufKqfYEy78dJ+ymMBO/qHAyRehwj+P85p3BA/zvHklXKx1zjOEh097aEjydsoqUMge397N5J5vigRie1gQcK6XRRBt43APiX0hkSJCWHHSaPuf9q5TCzmJwsUhuqTKXft02M5qChNJeZUvXBx3oxlCQsHj5Dj0RSKFKw44goNy2g8NBMKDKwQcDwQKJ11YVHAdf943Rf0DU2FBwxAgOK1ryzz1+zZG5afFEfe65geULY5IovPx8tZp2N56Cxd3LyN+WypfAgiGikjERSBcxH1RBMJFuY7zFdrkCDKeCIN5MiDC5JQDUcLF9HRYuLANF8mJcGF3GpI7TVP0wd7jdEsmi9iYVGbadNW0W8qUziyvAzsjhQsHt/hza4+tFga0/UnbwfXBRuZSnnG0cSymfiVMX9aKy7Wr60awsZQ2o51evDyjIq088SKTtjKtnbCxLD4fUFy9MU6v1LBOk5/B7n2c5JxGHS8WLjwhYCpw5p1zTeGCnXpPvAhstIkHnlMvIijna3PqPfHCmlescGERDbSoIRET6npc8SJo/0Lii7om2R8pZsg1mQIOl2+7xpA4YeASETESVW/V3F+pcBHUmYep6cz7QsUeJ3pCp588v8cXKuzChXuOTseCxJ84KoLFkT8ZERx/4siOoG77j1jEFUdccNO4goatDE+88PMqLstqby6Eixn/awDy1lTW8jZ1enqaooWL8YwiLiKc+0aOuPCjSSKuLadObK3f7iP/coWw2p0XCBfuBJ3ySVQRLmzDRWTunDoJF+E3RLfsPUd/sL7FDB4A+mEj2/w29N4adtrCnUrVWfQfJnH2ZelY22wLyt8QFXGRC+HCdbrfHbG9xc4LvrAxfC+kdUwlnY2fEXV7Y5w27+2lbye99Q1OF3C5MjvEHtu6EWy02R23r502hMSLLHCMs8d2DDaWzOmOCX+YyPT1vpoK9/KsTVqvfXoTYQEG5XCgfOHCEA18gQL7azckJApbb6iIE3FRLFxowYIdE1e4KFChwNFV7lAR/rLAxIQ7v8XY2FjtviqS5NxHCRdqvzvEpI9O+EKARDp00EN7xqh7T1cwDGXbFeet/4ltamiKt0871KHjS9185Lh/7JkB6g7ZEQgUfprQEBixMbDPHx5jsUHKw7p2DjuwdbF1hYsxZz4bvu/dL4tMOW2DtBcieErk1o0b7jwXLFzM+R/AcKdBXqBnQ7Zt80m2P+ncFI/jNYUKWwc27/u6Y0LZLU7Y9ChtyExUsdimyo+c48KxL/7ckjvVmV1z3vkC+wLuGPNEJAl/Emkh67kJ+kPNedUINpbDKREGbtCxH87U1MkN6rtUO2FjKdjdeuYKfTvpDhE621Eq1qWll2d60nrtU5sICzAohwMQLqLEgEban164kEgLV7QQ4YJFi6yFCyUksLPPogALEUoY8Cfn9MUO45ylxcLAQ88o0cITEWz7/LxnxmjXM2a+7m8WQdjR9UWJZ7r8iUN9AcKz209TJFxYRAtOA+ECw0h84S17ocYuXExahQtzuIgrXMhXKV01wq5KKKXCFC7MTo0rXCixouZOR2mdsVI6iUgLbMEBcAAcAAdakQPmsz3q95qnNhEWYFAOByBcNJJAEWVr6cIFR1rI4k7MmVfhQgkLvrMf7HMFCCUOWASQhSJwKFFERIlpXxQJoif8fRZRQgSPQKiwnLdU7VNlyrl465+9ow7Mw5jHCRdJw0VqJFygk9uKnVxcM3gPDoAD4EDzcODmzZuUZinHYcU5EDqYAxAuosSARtpfnnDBXxGQr4lwxIV8CjVfQ0WUKBGKZtBREUEaX5CYSbcvNKykKH83osMXKUQU4TflcYKHFi5sER2+ABN2JuFcA4+sOKCFC/fLIpNOW8DDyHhxh4u4k/rykBEZLsLzXNRGuECERU5DspunQw3nCHUJDoAD4EBtOZBGtOA0ECEgQpTLAVe4eIzuewBLPjFII6AUCxcc3i1j1NkJCea24Ik5ZYhIIFy4ooX7KdRcCRcqYsEfnqEFBkcESCdSTFvEDF+U0Hn6227khJ+mLOHCdcb9PPy8ZZgLnPWsnHWUE3BNhAvzk6g8lCwQLmyfRW1I4eIY3bIXCzAAB8ABcAAcAAdqyQEIFxAkyhUk0p63+FfL6N77XccX63ziEC+osLDh2n2XmpyzHOGCnRgWLXIlXCixIXpeiPKFiyDiQg3vMOYe8EWHCoQL32m2RWoY5flpsR/zYNSIA00kXMR0Qvcco1uwAANwABwAB8ABcCATDvDM3WmWtE4q0kEIMTnAzi4Ei3wKFmnqxRU1HqV773+UuC75balEWsg6XcSF+xlUFi1GR0cz+KpI8YSYzhwQKsJC5oQIxAXjHF9IKF+40FEYZkSHlJ9auFC2u3n10Ymifd41+LYHb8EhWACLrDgQLVwUnDakeJ6LG/5wkZoMFVn4+bcphkoYIgU6opl0RCH+QAADB8ABcAAcSOLAwv3fkHw3PWn90stvYbgIJigtiwMQLhpXtAiEjUfpnvsepf94eG1IuJDPGrrj1uUzqFFDRVzhYnQ0f8KF48z5kQpKvPCd/0qEC3aWg8k+tXhRsnAxMxf+FCtPq9V/0wAAIABJREFUCmoTLny74ahn5aijnDDXciVcTN2Yo0UHTkcIF0qsgFABoQIcAAfAAXAAHMglBxYdaKfxmdlE8WKqUKBNr7xdltNqvn3H79aLyIBw0RzCxb/eu4JWPPosjY+P+xEXWrjQn0EN5rhwJ+SbmJhwzuOhIjUXLmoU+g7HNOyYAg/gEceB0oWLYILOqkZcyHjYfz5yhv76kxOeeJGlWPEV3bIHCzAAB8ABcAAcAAfK5cBPPz1O/3L4Oz80U2b0jlq//vt3ad1zW2jNUy9jAQYlcQDCRXMIF7+652FavWYDzcwEXwKwCRfyCVRe8xdF5KsiLHhAuICzG+fs4ljz8IOFCxYpiyfnlKEi8mWR4gk6qyZciGjB68OXr9Pff3aS/vrj4xW8SYrodO7+im7BAgzAAXAAHAAHwIGacODv931NBweuphYufvjhEj23/nV6cu3LWIBBSRyAcNH4wsU9962gJf++kk598533GcMZZy3j1HmoiERciHAhogWEi+ZxRiEsoC7TciAsXIwTR11xW8DRWElfFqmKcKFFC9l+5XyPI178TaJ4YQgU6IjWpCMKsQeCFzgADoAD4EAcB3728Qn6+0+/po1nO8n9KgB/0jDd8ulnh+n5F16jZ9ZtKclxhdjR2mIPhIvGFS54XgsWLR789Sr6087dzhCRIMrCndMiEC2CuS0k2mJiYtJxWDBUBA5vWocX6ZqDK7kTLtxZyOfo0OA1+qfD39GiL9qJJ/oKJgNTYkXZQsWXdMtuLMAAHAAHwAFwAByohAML207Sos+/odsPttOB/iv+GHX5KkDa9bnzF+l3W/+TNr3yB3pp4zYIGIi+SOSAfI2CBQwsjYPB8keeokcfe5ZWP/kCnToVRFoEURZauCjQ1JQsU2QKFzxMBENFmsMhhbCAekzDgXjhQoaLuJFb0v+QoapVj7iwzT4+MRNMqiEF67X+3rMYmHbN4+mwAANwABwAB8ABcKB8DoxN8ZjS8s/X505MTFUtL50vtqtTP3nBkUOC82JLK9uR1N+WKApzzZES5j73CyLu0JBgOxAtJifDwsX4uEzM6Y5353HvIyM1/BwqJuekNI4l0kCAqCUHooQLFjh5uIjbdtRYuJAoC1O40AKF3k4SK8IPEdd4s4HEb+ACDoAD4AA4AA6AA+AAOAAO1IIDs8RRFBJJYWIs4oQcl98yp4U7Zj0sXLjzWvAwkUnSwsXo6KgjWkC4gNNcS6cZedefX3UXLkyxgn9rkUK248QKV6hIbnSlAY1eT3tKDdbyAMEaXAAHwAFwABwAB8CBvHKA37QNXx2nvkH3bTt3bLEAA3AAHKiUA32DYzR8bZKmCrOINslJxBHXafBVkWByzswiLrRwceNGsWgRJVhEiRWBKIFORl47GbAL3AQHwAFwABwAB8CBSjkwOjZJvQMjdH10imZvzBH+gAAQAALVQmD2xk26PlZw2pjR8WmIFzkQL0oRLlgr4OFsEgRRlTkuRLiQTGVtEyzixQp7B8ANOQs+pyShZ1i7Y4GAA3AAB8ABcAAcAAfAgUbjAM95wKLF5NRMtfwU5AMEgAAQKEKAIy64rUHkRWMNFamZcCFihazNyX5MwSIqqiIQKewdkGBmYhkzp9fupD/ynWisgQc4AA6AA+AAOAAOgAP55MDQlTEn0qLIy8AOIAAEgECVEeDICx42gnku6ite1D3iQsQKXptRFnbBIhxZYU7iw28MwgJF8gOXVXsswAAcAAfAAXAAHAAHwIHG4ADPaYHhIVX2zpAdEAACVgR42AjPeQHhAsKFM/YkTrRwIywCwcIUKwKholikCHdAJolnJMYCDMABcAAcAAfAAXAAHGhcDvCbN/wBASAABLJCgNscCBd5FS6m1OdQ+XPZ/NEOd44L1hg4QKIqc1yYkRbFURZJgkUgVgQiRfGDmD+dFF4miL8jjQUYgAPgADgADoAD4AA40FgcgHCRlbuGcoAAEGAEIFzUV7Rg0YjrwP5VkYyECx1poUULHWWhIyzM6AqbWBEIFPaHsPvt5wnvG9C29TiNj2MBBuAAOAAOgAPgADgADuSRAxAu4EwCASCQJQIQLiBcOJ8p4ck4TdFicqpAV67hu9x8k2ABBuAAOAAOgAPgADgADoQ5kKXTgrKAABBobQS4/cVQkfqKF1wHdY64KBYtxsbdT1xdvT5Fk1OzIEkOvpuLG7W+NyrwB/7gADgADoAD4EDAAe7A4g8IAAEgkBUCEC6C9rdez6K6Cxe2SAv+Vu7YxAwECwgW4AA4AA6AA+AAOAAOgANFHIBwkZW7hnKAABBgBCBcQLjwZv2cIZnTgoeHcKRFvZQclFt/UqIOUAfgADgADoAD4AA4EMcBCBdwJoEAEMgSAQgX9X8mcR3UdagIf65ERIvp6Wni73JjeEj9iRHXWcAx1A84AA6AA+AAOAAO1JMDEC6ydNlQFhAAAtzmYKk/BjkQLtxPnhYKBYThIBwU0TbgADgADoAD4AA4AA7EcgDCBRxJIAAEskQAbU6WaNvL4jqoq3DBURa8yCdP2aB6KvgoG2+QwAFwABwAB8ABcAAcyDcH4ETYO/bYCwSAQG0QQJtTG1xLyTUXwoWIFlNTiLhARynfHSXUD+oHHAAHwAFwAByoPwfgRJTS3UdaIAAEKkUAbU6lCFZ+fk6EiwLxMJGpqSkMFUFoKCJuwAFwABwAB8ABcAAciOUAnIjKnQDkAASAQHoE0Oakx6pWKesuXOhoCwgX9X+DgbdIqANwABwAB8ABcAAcyDsH4ETUyjVAvkAACNgQQJtjQyXbfTkQLjjSwo22mJxExEXeOwqwD51ZcAAcAAfAAXAAHKg3B+BEZOswoDQg0OoIoM2pPwNyJlxMYqgIQkNjQ0Pr3VFC+eisgwPgADgADoAD9edAFk7E5s2v0d/87d8VLYsXP0AjIyM168Wb5fJv/IURYEzi6uHkqW+deuM1/uIR4Oj3VaueDvGcf/P+cv/4/lj60KPU0dFVbhapz2MufPjnvanTl5swizanXNta5bycCBdTxNEWk5MQLtAZqn9nCHWAOgAHwAFwABwAB/LNgSydCHHsKnWCkxwsdvbYGTeFih07PqipUJI3pyeN08sY/frXK6wOq9QXi06V1lnesCnHHhYPWESIEtsEL8FKflciBqSpw3KuxXZO0n1lO6ecfVm2OeXY1wrn1F24CIaJTNLEBIQLdJTy3VFC/aB+wAFwABwAB8CB+nMgSydCHDlx7Mp1EOIcLCmjEmexXLvydl4ap1eEC1tkANcTO+q8VFpnecOmHHtKFS64DOYhY1zuX5o6LDdv87y4+8pMW8nvLNucSuxs5nNzIFwE0RYTExMYKoKhIhgqAg6AA+AAOAAOgAPgQCwHsnQiRFTQTjA7ZhwdIUNJtODA27Kf01y+fDkUiv+LRbcXhdAnOZfijLANkjevtXPJx9iRf3fH+04aKUefI+nlmo4c+Spkm75GSSPlSX5sixz7rO0LHwd9nNNEYRR3LuPA+UiZNmGC8+br4Ovk49pmOSbXJcdMWyTfOFs4L/7T9cl2SZ58TOfLdjMeOrpBH+dzhSe8n9NxerlePqbTm0NhuFzBRWPN+3W9cxqpZ32O3u9emftfMJDrEtu4LvhPjkvZcXZxGs7HzEPskDLkN6dPey1is64Pvu7fPveSj6ukqcU6yzanFvY3Q54QLtAxiO0Y4K1S/d8qoQ5QB+AAOAAOgAPgQJgDWToR4riJ0yXOpf7NTig7eqYA0dnZ7Thx7DSwMymOq+lEcF7iTJvH5Den0U6e2CV58nF2BOW3OHjixLJtdy2+37FRztX52Y7LuWwD5y9Oq5wvv/k4p5VriMMozbmCp1y7uRYsTdwE/8FBVyzi4/zHa9nWtiXZwsdZIOE1/zGmUddo5qXL4XP5t1yXHJO82G6uC8FT8pK6ZNvlmFyPnMvHdL1LXnK9ggmXafuTsjgPWaRcTs/ns8DCf5JWjpt2cdqzZ8+HrpXTaJ6Z5/DvtNei8Wd7+Fx97Y6RNfqXZZtTo0to+GxzIly4w0QQcRF+KKOTAjzAAXAAHAAHwAFwABwo5kCWToQ4a+wk8Z92tMQTYIeKF3bcRByQY7IWZ1t+67UtT32ct23n6/P0Nqc3bdHXobd1OVIGn8tOtnZ29Tl6W87X55i2cBrBKOlc7eBL3uZa7DTTyn5bGTqPuHT6OvQ5vK2P2a4x6bhgYNot9vJx+eNttpP/xF45xuk50oDLs9mh02ub5Hy9lrI5H/nj86Vs2Sdrsct2nqSR62PBw7wftG2cPu21RJVn5ic2VHudZZtTbdubJb+6CxcyKSeLFuPjGCqCzklx5wSYABNwABwAB8ABcAAc0BzI0okwHSZ23OTNtF6Lo8eOIr9h5mOmM6gdU+1MlONc8vn6PNOBZeeR32Tzmv/0dehtbQfbx4uZl6QRJ9F2vrYlDqOkc8Xp5fyi/sQOPs5l8W99nlmG/Nb1xefJfl1P+jo4fz6mz5PIBylX26jPjcNA2yrn8zVoOyR/sVHbINucnheJWNB58fn8p22S43ot+euy2T7NHbZNyuS1ibfOj7f5fMaJ0+p8pSydl2wnXYsNMy6LbZFrNe2o5u8s25xq2t1MeUG4wFARDBUBB8ABcAAcAAfAAXCgoTiQpRMhzpY4YLxmZynpT5w3OS/OwTLLsOVtO5+dUn7zzudzOdqBNZ1PXYbe1mVJGVHOLh/ncmzn63PiMEo6N8pBtdnJ++Q633xzu18vugy9LXnIddqOmdehMdXH2FnWxzhvvm4RNuIwsF2jYCs2inDBv81jkkbKNO2Q6+Pj2mZ9nmwnYaDz4nPELtt5kqdcn8zhwVjIX7nXYitP9kG4EHSbe50D4SIYJjI+Po7JOdFxaqiOk377g228DQQHwAFwABwAB7LhQD2FC3bK2DnVzpi4C7xP9otTJb9NB1DOkTWn47fPphMmn0Pl43quAMlf0vNx7cCKQ89r/pP0nE62dXreL063HGeb5c92nPfJn3aQ4zCSvOPOlbkgJG9zbWLJv23YcBlsi85PbGPckmzhNBoD/i0Y8fVymXIdkpccl3LkuL4G0yY+xuXotLps3i/56nx4m4/pepS8+Hz+0/Xi7DD+id26bLaFF/OY/BZMNB5SljnHhYlTJdfC5epr5bxs94xxiVX5mWWbUxWDmzATCBcQCiAUgAPgADgADoAD4AA40FAcyNKJEGdNO3bijEmYuzjN5n5xHtmHkGOS1uZXiLMr+ZpOmThqclznz8e0U8d58W9e85++DtnmiSfZHs7PtEvSSFnacZZjJiZ6Xgy5Xjlf8k9zLl8Xn6evR+PFDqy+di5LIk/Ma+Xfkh/nydfB+fK+JFvM+uAy9DXq+uDr4wgDfTwKA85XiylsI1+TxpPtE4HAvAaNjVnvkpfGh/Phc3R+nI7/BAM+LovG3bxGxkDno7GVOjavT/KQ8/Q55V6LXA/nqa/Vu6yqr7Jsc6pufJNkmBPhwp3folYRFwPXLxEWYAAOgAPgADgADoAD4EBzcABORGWeiDir2lGuLEeczQjYRAQg0xwIoM2pfz3mSrgYG6vNUBHupKQJ3UQ6e3gncAEufP+AB+ABeGDnAHABLtLHQDtp50ItcIETUZkTAeGiMvxsZ0t0RhZv/23lY19tEUCbU1t80+QO4UKFhtbiwSqdmbg1ys2uoxNXD3IM9YH6YC6AB+ABeGDnAHABLnl4XsKJSNPNj04D4SIam7RHRKiQ4RW8hmiRFr3GS4c2p/51liPhYpwQcRHdGUJHMRobOJh2bIALcEG7YecAcAEueXC8xYa4NdpxO1cZFzgR9XciYAEQaCUE0ObUv7brLlxMTPBXRXiOCxYuxmryVRE8+KMf/HEdJjkG/IAfcwE8AA/AAzsHgAtwwfMymgO1uj/gRNTfiYAFQKCVEECbU//ahnCBoSKJ83/AYbV3yIALcKlVh1ycoLg1+Af+gX92DgCX1sAFTkT9nQhYAARaCQG0OfWvbQgXEC4gXCgOoMPbGh3eOEFAjkEYsHMBuAAXtJN2DgCXbHGBE1F/JwIWAIFWQgBtTv1rOxfCxfg4hoqIsxS3hsNg7xQBF+ACh8HOAeACXOSZgnbSzgXg0ri4wImovxMBC4BAKyGANqf+tZ0D4YJFiwlnYk7McWHvQKDjCVyEA3BEo7kAB8SODXABLmg37BwALo2NC5yI+jsRsAAItBICaHPqX9sQLtQwgXp08Hd+9gOtff0APbvtWOLSSumWv/gFbdpxlE5fGMZQFsVRdLQbu6PN9Ze01KMdAq+i66XV6uNM5/lEjoIv4Iu0Y/W8P+BE1N+JgAVAoJUQQJtT/9puGeGCH655XFiMuGv1x/TYq8exKAyWPO/iwtgs29BGf9x7PJf1l0dOwaZ83uuol3zVy+rXDjltL7cxWAIM7n/2U/qPF9vovbaTaHNz2m9AW+K2JXAi6u9EwAIg0EoIoM2pf223jHAhbwfi1twZiDsux6qZjiMtWLQ4eJ6wKAwYExYsOCKFMWLHgqMwXnu/vSgKo5r1wXWM/OxvE4ELcGmm+4PbFLS7xc8dxuWl/zxJ9zz1qbPwdu/l8aJnI9oDtAf1bg/gRNTfiYAFQKCVENBtzocffkirVq1KvVy/fr2VoKrZtUK4UKHb9eiIQbgo7jizM8HCBUejiFjUNzThiBbyZpRFDBY16t1xEvvi1vXgFXCxOxXABbjIvQrhwt72Mi6C0e6Dl+jhl9zot0deOkC7DwXiPto1+70EXLLDRTsRNeslI2MgAASAgIeAtDn/8A//QAsWLChp+clPfkIQLyqnUq6Ei9HRMWKDpNNUrXWeOxIQLuydZ1O4EC6wgGFGYWAujOw6ilIPces8329sN+wDX5gHEC7sba8WLuQ+54gLMwoDc2HgPqp3eypOROVdYeQABIAAEEhGgNscjrRg0eKnP/0prVy5MnHhdCJy/NVf/RXEi2SYY1PkRLgYd74qAuHC3pFsxXDmKOFCOtK8jovC0OlkGw4rOtrMBfAAPGAeQLiwP29swoW0obzWURgcjaGjMHQ62cb9hvuNuVALHkC4iO3f4yAQAAJVRoDbHBYrWIjgdZo/Sf8Xf/EXznkQL9KgFp0GwgWGiuRynHca4UI6xme7zhdFYWAujNp0FAXzuHUtOqhx5ckxlAsHibmQlgcQLsoTLuR+44gLMwoDc2Gk519aniJddLsG4SK6c48jQAAIVB+BSoSL5cuX01/+5V9CvKiwWiBcQLhoeOFCd+yiojB4v04nnW/bGumiO4o2vMx9wA/4MSfyzgMIF5UJF7p+i6IwDmIuDLNdNH9r/Mxj+jfSRbenEC4q9ABwOhAAAiUhUIlwwZEXPMcFxIuSIC9KDOECwkVTCRfS4cNcGPl3HNEhj+6QC4/j1sCvMvwgXFRPuBCeYi4MtLvCBXNdi/YKwkVRnx47gAAQqCEClQoXbBrEi8oqCMIFhIumFC50pykuCkOnk+1adLAk77g1yq3MEQV+wI/vr7Q8gHBRfeFCt29FURjqiyQ6nWynrTekw30u93kWwkWhME2rVj1NJ099W9Tb3rz5Nfrwz3uL9tt2cDpOX4u/NHmz/X/zt3/nL4sXP0AjIyO1MKdh8zQxYrxs9V7OBSbVEdcF10na8jg/5iXzM+5P+Mvp8Vc5AtUQLtgKiBfl1wWECwgXTS9cSMcYc2GgwysdXuFE3BoOUnPzBcJFbYULubcwF0Zz30f1bCchXLid/ySnmAUTU6hgBzmtk1y+i5GvM5OEJsZDiwEdHV30i0W3VwWnNHVUK3GBRZGlDz1KfD34qwyBagkXbAXEi/LqomWEC3645nFZ+/oB4okoW/HLIXHXLJNz1qrOWMTgz6iy88LLsg1t9Me9x4n316pM5JvPexD10pr1AuEiWrio1T3xXttJ+o8X25w2l9fvtX2N9janfZNacaCa+UK4cDv+cU4xH9POeHmuQnOcVapwwVfN+FVDUIirIxYUWFioZQRM0rU3Rw3X/iqqKVywtRAvSq+zlhEu5O1P3JofqHHH5Vg10z277RiEi/PFHWgWLlhMYHySFhZ/ktLwcVu65S9+4YsX7MjwbxY0Tl8YTuRCNXnA3EJ+eDMJHtg5UAtcIFwUt7ssJjMu8qyLW1fSXmEuDLT3UdwqhVd5Ei7EMeW1DMlgZ1H+5Lj8lqEBklZHREh4v+0Yn8+RAfrYm29utw5DkXySIivibJG39Z+1feFEH3C5fC36HG27XGcUDmy/Pib5CS5yPmMn18j75E+uSY7ZMDbPNc/hKApb9IEZccFlcl5SfpzdnDbuOB/Ttsr1yHm2YxpjuV6xXdsqdcT7uC44raSTcnR62Yd16QhUIlz87Gc/o1WrVhUtDz/8MMmnUn/yk5+UblSLnQHhAkNFchnt8cwfTjuCDgsYWS5Lnj/gdNxZ6LB9UlV3tkrpYOnzoraRn91pBS7Ahe+ZavPgN1sP0yObjtKzb39Hr33UTe8fGaEvzs7nsj2Mi06r9rEntnwZEnNZyMhiuf/ZT2sumNja3mrzCvll117lTbhgh1GcXHGW5bd2XMUhlWPsd/C2REawU81CAf+Z+YhzynnwH6dlJzXK8U0aIpBkixzXtnF5IlaY9vF1JOEg57L9kj9fF//J+fKb1+KEm2XJb0kbdy7nrUUIpzDjH+cj18mHGNu7Ft/vrDnvJLuTjtvqKI1dYqa2X9sqGOry+bj+zddS66gOsbOZ15UIFwsWLHA+hZq0bmb8qnFtEC4gXLR8R113/GWIiq2Da+5DBzW7DqqJve036gP1wbxIy4PeqxfpXMc1+vTLTtr6/ml6/JUjjoMOMcMeiaHbyVpsZxHpgXYj/f2R9j6qZ7q8CRemY6qdS3Z85bjeLx15dj6jRAZ9rnZe5Vx9XPbxOi5PSZdki5mHiAVcpvzp8vW2HJcyRkZGHWGAf+s/fY7e5jRSHp9jc755v+Aady7nZcNO28F5SWSDjlrQNuj0Ul7ScT5H0urzZZvtMjGRY7Lm41pU0b/NOuJzTJtsaSRvrNMjUI5wsX//fuJPoSYtP/3pTx1hI701rZkSwgWECwgXaqgKhAu781uKQ1jPjqzNMTH3wT57HQOXOZos3IgRM84gMkO1ldUWLyBc4L4s9TmTB+FCHE6bY8qO9m+fe8lxIvVxvS2uh+losjOrnWj+baaRc2358bGo9HIer23n6vNsDq/paOs89LaUIzgMDg5ZxRnthJvna1s4ncZEtsWhjzuXbWG7OU3Un7ZDp7FhwMclfTnXpfM38dTHeDtKsJHrjrJP5xuVxiwLv+MRKEe4iM8xOMrCBkdj4C8eAQgXEC4gXKjOOIQLe+e51A6lKRbYfsNRtmMNXPKFS3xkhitm7DwyQvvP3ERbqtrSUoUNCBf54n0jtENZCBfchbY5vNqh5jSm08z7xLHltPq43i9ddE7DIgc7qWZ5+lzzmNjH+21/+lzb8SRbbA4vl8XnyZ8uQ2/LcSkjKuKCj4v95vkaZxFAeJ/tL+5cTm/DTucjdpr5axvM9Jxn0nE+x7RN5xNnV1zeccKFeR7XI6fnNf7KRwDCRfnYVetMCBcQLtDZVp1tCBf2zjOEC+Ai4lMjODRia9y6kusYm5yl/cd76JUd39AjGw/RPU/to8e3fIW2VLWlEC6i2wy0p9HYlHJfZiVcsEMr8yxI55sdUXEceR//1mnYQeQ5BvhcOS7OuRzjc+RP8jOde3FA5VxOZ85dwOXKcclP1lKWtpWPsV28yHGbLVw2HzeHsHBZcl2cF58r5fN2Eg7afilf8tN5cd5y/XxctrWtcp2mHea5/JttjDqXj3MZJk68n//4vCS7k44LRl6W/kpfs3mNfI7tPG2rYKjTcZ76WnR6v2BslIwAhIuSIav6CRAuGkS42LPlF7T85wv85cktA14n+Qi98PMF9MIuc1wy7/8FvXHE3J/i9641tHzxH2lPBZ3QUKeV81O2F9uawia25cgf6cmfr6Ed1bLLkg+Ei+p0KOMcRjlWSgdVzolbIz973QEXE5de+uT+oC1d/vN/pE+63TQ97/0jLb//D9SjngsccfHl6/+Llq/Y6cyFsfLV4rkwoiMuBuiNxbb2OWWbZ2mj3HbQzFO192W0kzt+s4CW/+ZISHjhfcFzpgJ7zyvbbNfj7UPEhclT9zfu32hcshIuuOfNjp8MTeC1dgr5ODuKHDHB+yUd75M/7ZzyPnE2Ja3OT5fFIgDnazql+rx3d7wfOi5l6jWfL+fwWpcXZwsfK1W4iMOBbWIstC18vfJn4iSOvKQxbeV85FjSuRyxwXhqYUXK5TXno3HRx3g7zu6k46ZtOm89FESul9OzPRon2eb92lapI+aBpNEiitjGeeKvMgQgXFSGXzXOhnChOqj16CDw1yvYWQ45+mbnzumIKhHC+S0d1yjhopKOZvXOdQUXLTZUYK8jgOi8qmen4A/hwt5JZMGgHvcHykV9iFhVLf6JOHHG+/y18/vnq+nUzBx17fhHWn737+gDb8LOKJGinl8f4Tb1yd+soSdDQoMSB8poJyFcRN9n1eYf8ovHupT7PEvhIqnDHeeYJp3bTMeBQ3m1ycJSucKCCBcsgNj+ko7bzsE+OwIQLuy4ZLkXwkUjCBexHVFPCPiNRDWIwBF0ZB3x4Dd/dN78OZEPXoc3av9BLs+JuPDeFvp5i1gi0Q/uW8sX+Lg1QiPibeORAdpxhCNGwiKGa4/71s/pSEuUhmOvm1bb79gZSkMktr/BbxD5GNvl4Me/BZtowQPCRXSnspQOpXTO49bIz441cKktLqdeWEDLXzhE5twVLFL86l//Jy3/f39Fj9/mtR8rPnE+kRq0TV67usVsb722bgtHhXntohMFp9pAp11dQy8sVm2TJ1L77d1i93h0VBrnx+2YrKUtk/a+uJ308/55EEHhXs8aJ1qPoyqShQuVr25HPRFdIuqCCA33ut32mssJ2l6bPU67/Yt/oW0cCfPIIZAuAAAgAElEQVTCodjPouL+qO39IW12I+AM4SJLdyFdWRAu0uFkppJIEo6kKPUvTpjQERyl5ov0xQhAuCjGJOs9LSNc8EM4j8va1w8kR1ycJ7djGeoQ6w5rEOYbdEClI0vkdFL9jqPbAeWOcdR+cf73nPc6n1roUIKGdFKdMm3ChRkpYkaSRAkXznkSWRFchytUePtDebt2OvZ4IoXb8fc62479Kk2RHYIlOXXBdZJHrsCmfN7DqJdGq5f3aKsInj+/m558+zv/ayEfvcpD8jwnW7UxYeEiaG+d/apN9AVcpx3itsptd5z2yNknDnzQDhe3a0ogNtsqtkm1x9IGuyKwl7dfttfGe+l1GrftlzY2/HwREYLXbv7qGtgezt9r7/fsOhIMKdT7eWijPBPUdQc4cptrtu3/k3b90Ghcgr31bP8gXGTtMiSXB+EiGaNqp4gTLqpdVqvnB+Gi/gxoGeFC3iLErfkBHHdcjlUzXaqhIrrz6nSmdfSA6gCf1x3VoFMY7iy6nVTukEbtDzqmhrMvHVPVoXeGWMh+baezHdggQzHC6yjb3XLdt3Vq3LXTAfY620aZ/rXoNNpp8MSfoKMfiBXaJkRc2N/mMferyXvkB5xr0Z6WwiueU8FpNyQyS9pPcbiVY+23L2qf0244baEhUITaPuX0R7RNgdjMbZJKX9Seuu27H43BZVts1UKIjm4QQcJv+/1zPeHCFzjctpHPddtLt52W8921CDDh6DtXrDCeGwqzKHtcm//FGa4jvIhaox2ytx2tiEuehIv6d+dhARAAArVGAMJFrRFOzh/CRSMMFbF0YM1OpXRmbR3sYF+4Qxq1v3zhQgkOzlvLiE64LzpECRciKgQd5uCNJYSLVuygRjkxej9wgUPDfEjLAxYuXNGS2xnXEXfaRN+hN/Y7jn2wr+bChSN0eMNK/LK9337EiAgIyi4lkATPCWlT3XX4OtMIF1JOOB9XiDDb5HjhwioeOzZDuNDtmWyn5XMrpoNwkdzJRwogAASqhwCEi+phWW5OEC4aQLhwOpnG1zS4w+iKFdxhle2YiAv//CB9ON9gf6Jw4b0VlA6o03n1O/vhjm24DD6mygnl44ke3EEPvUlU4ofqkLsz60tnWnWUdRrj7WVUJx4RF9lHGpXiYLZih1yclrg1cClHqPG+KPLCIQoLF67zHXboua1SgoYSD6TtC9Kr9ouFZr8dimi/dNvkpw2iF0SI1m1T0C4HbaxTvm+X1x6q/MLtb9D2Bna7eTltuJNPkHfQXkZdWxC9x3bq50Aof8cehaPlWeTiBeHCdr/jPo++zyFclNv1x3lAAAiUgwCEi3JQq+45EC4aQLjwO4X+WzYJ4TWFgBjhYvEv/Enj5LN3bueyeH/QQVaCgHTGRaBwQqTdt3/Rk3O6nWC38xy8KdSd8uDYL+iF3/zC/yRfsD8YTy6fART73c6ufiOpHQYuWzkNGCoSOQwKHePojrHNkTD3Ab9Gw+8QbVNtqT+nReqhIgvoycXyeWpDPPX3i5is2iAlKNjaJmcIRszknIGQEIgLbpvIoksgspjtpCMoeNdbLLi4eTlpIoULTuOKHkXDRJxr8p4DzsSkXvSF1/Y66X8TPTnn42u/pue2f0ePrPwVLf/5YgwVUf0RaWfQvkS3LxAuqusQIDcgAATiEYBwEY9PFkchXKiOQj06CCXPcWEZNhJ6K2c57goUfwwmUfPSRO1Pys88buv0mmka5TfmuLB3ErkTXY/7A+WiPmrlwAURF0oIsLSf4bYriFoI7zdE3sR8Isp0BGERQyLSlJt3nc7jT8fuPDLiTIDqiBSbjjrRLvwVlzd2naZPv+ykcx3XnK+8SF3HrdEO2duEVsQFwkUWbgLKAAJAQBDQwsXPfvYzWrVqVdUWzm/BggVSFNYRCEC4gHBRJGiEO+S2zrPbSXffvvHbNnnLZkvbWPsgXNg7xRAQgIs4k83iIOVGuFBRC9ymSlREcjucv7Y1rUgxWbhRFAHWLLzCddjbylrgAuEiomeP3UAACNQEAS1csMhQi6UmhjdRphAuWkC4aMQOcL1shnBh73RCuAAuEC7yJxTUq53kcvefuYlICtV/aLb7oxZCg2AUty6lXAgXTeSN4FKAQAMggDan/pUE4UJ1PEp5YMY9eOVYmvyyGCpSz85to5UN4QIOein3L6dNc58jXf54VV7EBcQLadMf3/IV3fPUPnr05YP0yo5vaP/xHhqbnEUkRR0+q96q7QuciPo7EbAACLQSAmhz6l/bEC4gXHifBESHnDvkEC7y52BCGLDXCXCpDBcIF5W1+eGIizP0qDd3xROYu6JIvBExVK9x/1Z2/zJ+cCLq70TAAiDQSgigzal/bbeMcMEPuTwua18/4DjL8hYL68o605XiJ8JFHrkCm/J5D6NeGrNeIFxUv63lOS7e9ybi/O0fT9Mjm9zPzj62+QC98qcvadeBU3T87PfORJy4bxrzvslTvcGJqL8TAQuAQCshgDan/rXdMsKFftMRtc0P5Khjen8102GoSPU7z5WIFyJc6PqO2q4mD7gM5Ff5G7ioutL7gTNwZj5AuMim7dViBn9VRCIz8FWR7PsbzfacgRNRfycCFgCBVkIAbU79axvCBYaKYKiI+kwghAu7U9tsHV4tZERtQ+Cwc6FRcenoG6XPvuqi3+1sp4dfOgDhQrV7lYi95ZxrEzN+s/Vw5i8O0K7Z7/FGwQVORP2dCFgABFoJAbQ59a9tCBcQLiBcqA48hIvG7shGiRB6f6M63voaGsWxMG22/a5VfZzruEa7D12ije+cpH9/bj89svEgvfZ+O7Ud66bO/lEIF6rdK0d8qPY5HAFj44e5r1Z8Mcsxf6Nc+7OhnrjAiai/EwELgEArIYA2p/61DeECwgWEC9WBh3Bh75xyJ76eHVTTibD9hn32umsFXMYnZ+nbH4bo/bYL9My2g3Tv0/to1ZYj9Nafz9Dhb/poYHiiyCnGUJFshoqkFTggXLTu/avb81LaKzgR9XciYAEQaCUE0ObUv7bDwsUETUxM0OTkJE1NTVGhUKDp6WlnmZmZoZmZWZqd5eUG3bhxgxYsWEBzc3Ohi1gQ+mX5wSfpPy5wfHycxsbGaXR0zJklWj/EqrFdyoMwTXnVzA9zXOSr8wzhwt555vuimrxHfsBZ2tpyeHV1pEDHvhugdz4+R0+9/iUtfvJjevqNr+i/PjlHn588TddGC0VChZQnawgX+Wp7IVzY24Ry7g/huG3dTPnBidC9aWwDASBQawTQ5tQa4eT8uQ7GxsYc3WB8HMJFYmeXOwLVfPBDuMhX5xnChb3zXG3eIz/gLE5Vmva0f2iC9n75Lb354Rla+ephuv+ZfbT+7RP0wf4L1H5hmCanZv22O01+XDaEi3y1vRAu7G1CWj63Yjo4EcmdfKQAAkCgegigzakeluXmBOECQ0UwVMQYKvLk1i98J0icK9u6FTuKNhzMfcAFDghzohIemBNp/nr9fnph+2Hac7iDzndei70/05YL4QLCRaU8Nds+5Gdv+2qFS1ZORKEwTatWPU1/87d/5yy/WHQ7dXR0Of3uD/+8lzZvfq3cPnhZ53HZbIPYw2u2b3BwiBYvfoBOnvrWyZfXvJ/tL+fPLEdfd6n5jYyM0NKHHvVxK/V8pAcCeUAgqzYnD9eaVxsgXEC4gHBhCBdL139Gq393lP584CLxm15b57RWHbGosvT+tI4Z0tk70cAlf7gEE2meon9/3p1Ic6uaSLMW9xuECwgXteAV2pfs2pcsnAh2uLUYwJ15dujPnj3v9OvrJVywCMC2xf1VIlzwdZlCBV/3Z21fxBUZeQzCRSQ0ONBACGTR5jQQHHUxFcJFDoSLJc8fIB6igKX+GLAzs/b1A85Ef9v+93f0b+s+o+feOu58iWBkbDokYqCDml0HVQs3Uduoj8aojwk1kebzfzhO9z79qT+R5qGIiTRr4WBCuIBwUQteoR3Krh3KwolgZz1OJGhG4YIFDxZrkoSRUrwWCBeloIW0eUUgizYnr9eeF7taRrjgzkQel007jjqOMjvLWPKBwR/3Hg9xZd/xdtrwn4edMfG83neiPXQ8j7yCTfm831uxXi4OXKD9X5+mbX8+Rqu3fkGLV39MT752gN786BjtP3maLg1cqMv9tPq1Q849zQJGvZf7H32f9t/yv+hXq3bX3ZZ6YcH10Yr3B665/LY6CyeCHW4z4kJ34EW44OEiMnSD98lf3DATPken5W09tCMqYiJKTJGy+Dz+M8+Xa7HZKfby2rRLH5NtKUvyMqMzzONvvrk9NFTEPJ71cBu5DqyBQCkIZNHmlGJPK6YV4YI/7OFOzjmJr4pEvdGV/dzRkO24NdJl9+Ylrh7kWKX1cX1smj471uVEYPzbujbasvNLav9hOJELlZYr9ssa+TUXr6ReZd3o9cvDqw6d6qXfvf+lM5HmfTETafI1N/r1VqPe5u74Z5p7cEmoLQEuuM9xf9g5ILhk5USwUMCOuS0KgcUGdt61WCBOvDjn2inndJKPFhYkrZzLDgnnrYUNcVLKES5EtBA7oyIgxA5JJ2XqtaSJui45rm3ntHJt5nH5HVemLh/bQKBeCGTV5tTr+hqhXC1c8JdJJyYgXIQ6j9Ip1Wt0KO2diVbCpW9onN797Gta/bsj9PBLB+jdT87Tj93XrdxpJVykQ6nvl6ht4NIc91HRRJrP76dN/3WK/rT/ZOJEmuDLHN14/fc0/1f/o6jtwP3RHPcH2j+3HmvB56ydCHasWaTQDjs75/q3dsJtAoM+zuIBR1jwmhfO57fPveSIIJyOtzkP80+EFIl24DXbofPmc9heieDQ25Ifn6PFBd5v5iFp9TrpumzHtVBiO872aRx1edgGAnlBIOs2Jy/XnSc7IFzUeY4LdNztndNGwuVC93X6r0/OOQKGbVLPWnTYojrDej/KtXMLuFSGy/Fz39PuQ5fo5XeiJ9JspPtX3zO27Sz4Mtv2OYQLRDIWcQD3kb2tElzq4USIYy8OP6+1wy3H2RG3iQXsAHB6Ps9My/vEgWfnnoULTmP+2Rx/TqPz49+6fM5bCx2yrW2XcsQ++W2udb76mJxnO66FCz4u5eu1iCw6T2wDgTwhUI82J0/Xnwdb7MLFFE1NTVGhUKDp6WlnmZmZoZmZWZqd5eUG3bhxgxYsWEBzc3Ohy1gQ+mX5wSfpPw7z4HEqY2PjNDo6RmyQrfNYyb4sOp42+1CuvdPRzLh8+8MQmZN6dlz+MRWnmxkX3B+NOSSieCLNffT4K5/TW38+Q3ETaXJ9g8+t1/7hPgfvbRyoVXtQLydCixV6m/u2WjyIEhjYwWfnnf/kfJ4DgtOzg88OPH+9wyYq8DlR+eqyOZ0WEHg7Kj/HEPVPn6d2+5tR5ct12Y7zvrsW3+/YzttRooxfCDaAQA4RqFebk0Mo6maSK1zw/BbjxBrC5CQPFYFwEetookOODnmajtjR9n7a/O4pZ7K9ze9+Q1+294NXiHCK5UAaXoljUIt26OpIgY59N0DvfHyOnnr9S2cizaff+MqJKDp+ZpCujRYgSCgOS12UU283nl9PNzZtjuRDLepX2xu1jXLxfCuHz1F8kv214FUWTgQ72foToCIOsODAfyI8SC9ejrPzL9taMOD9MscFn8P5//rXK0KOPIsY7ORzWtsfn2P70omUJ+fxWqIYWBCJm2RUlyP5aDvFVsZCjkddl5QlGPG5nDZqjgtdNraBQJ4RyKLNyfP158G2QLjg+S0gXER2IuXh2ygPdG1v1HYtOhJRZen9rVYuR1zoST05IsM2qafG5dCpPnpy61ErH3U6jau5jXRwQJgTcTyQiTTf/PAMPbb5c3Im0vzDCfpg/wVqvzBMk1OzRRyMy09zEOmi+Tdz4hTRf/tvNHPymyJ8BUPgF42fYBS3Bn7Nj18WToQ44XpIg3bI44QL7uSLky/nm2KAHDfzNNNph6Ec4YLP5/NYPBBbREjQeetttknS8lrbJHbLcX2M8zBxY8GDxRa2wXac8xHBRduAbSCQJwSyaHPydL15tAXChXp7ho5O83d04jq6cqyWPOgbmqA/H7hondRTl/vFiR761dpP6T/3ni1ybHQ6sdm2RjrwmXmheSATaW7d2e7MyfLr5/fTy/91ivYcvkQnzn1fxDXwKoyfDQ/Zp3GWfbY1p7v5f/+UbrywIRbvUvKzlWPuQ35oD5gTzcQDOBF5dCtgExBoXgS4zZmfn8eSAoNasYDrIPgUqhtxwfNbYI4LJWigA4jPv5ocqEYHkCf15K+R8FdJeFLPHZ99TSxscN6nfxymB579jO556lPa8en5kIPTTB1PG67mPlxv+Q7XuY5r9Ke2rxMn0qwGn1FvaCdNDoBX9nsXuFQHFwgXtXINkC8QAAI2BCBcVFe0sWGctE+EC/NTqFNTBTU5J0/MGUzOyRNzYnLOGGFDOm9wuOydE+BSjMu3PwzTlp1f0r+t+4yee+s4/e8vLtK9T+9z5sf417Wf0vv7L/jiBfArxg+OwBy5E2kO0/ttF+j5Pxyn+57eR6tePUJbP/gqcSJN4GfnVCvicqYzLJTK88xcox2ycwa4ZIcLhIukLj6OAwEgUE0EIFxUV7iIil6Jq7OWES64M4EFGDQCB/Ydb6cnX/uC/vWpTxzh4q7VH9O9T3/qRGRUav/q1w75eXK+WCrHgDGttF7KOf/iwAXa//Vp2vbnY7R66wGnLp987QC9+dEx2n/yNF0auFAXu8q5lnqcU497oeP/+L/o6cUbcn3f3f/sp/QfL7bRe20nwR/0G3LNAQgXcd17HAMCQKDaCEC4yEa4sAkaUpeucFE8MSciLmIiKriTbb59sv1GuuzevNjwN/c1Sn0c+baf7n4yEC1EXOCJE9/+6HunI2lem+237Xo5r4PnCUsVMWBMbfib+2z1Yabh31Hp9ESaK1897IhZ6xMm0ozLzyw7qtxmTZf1vdD3z0tocNGdub/3GJeX/vOkM0yNh6rxdu/l8SKOtxpfcL35e55DuJCuPNZAAAhkgQCEi/oJFyJmdPddp/FxCBdOpwwdk/x1TEynyfa7meqNP0N59xpXtGChgue54DU7E/c/s482vnMq0rE1sbHhkrWz1goiCWNqYi+/R8dn/GO2+pB0ei3p4ibSPN95rSIe6PJkW8qV31HrZkmX5b1wZvMuKvz3/5OOnBpvCOFC6n73wUvOHDyM1SMvHaDdhwLRvll4gOto3Oc+hIssXDWUAQSAgCAA4SIvwsW4I15MTk46k3JytIUt4mJ2dpZ4wRwXiLjwnTHp4PIaHcDKO4Af7P+RNmz/2pmn4Iuve+j0hWHnbedU4YaPeSU4Z+mstYJowdcYJVywk8dzllwdKTh1l1RvPJEmn7P+j/8/e28aZMdxpAnW/Nu1mT72z9radtu2xmxsZ7rNdqd7dpfqkbQ7kjU02jbr6W5CPT/Gtg/1jKopUiBFihTBQyIJoHgAPIqAKJIgIYgkCF4oEixeIHEUjioUARAHARJH4SYO4gbqQqEOgL72RTzP9IwX+V6+K/MdXmZZkRkZ4RHh4REZ/j0Pj4102+Nr6e5fbiCc/tGz5Rgd/XIo6H8ec8XoaTr/eGS+pD0Wtr33Wd2DFnHyDIsL1wpDfWH45UvHZXp8UeCC1SkNlQPKgTQ4oMBF/QAXUeecClzkKQm82EWoC5P0FiaS73H32h/J+yNtZa0VwAsfcLFo+S7jXPX2J9YFc4mU0zhHmi+9t5s+2ryTTp2zp8vEybzOQ36ZL4UvOhb8W8Z88izlUFph4EQkaYUh0/G9lHuO84Wazi/Typd4vihwkYaqpmUoB5QDzAHMOdeuXdOrRB7wNo9qhHaryAhFgQsch5p/qohaXOT8XuhCIn4h4VuQunHKv+z4p8qaX1mrBGCRit7gyIQ5FYZPhHnuzV0GuIDVBRxmYivQQ7/eZKw0Hl68mV7/aB99svs0XRyyVhkYKzo+0hkfaYyFgbkv0um/+W8NYWnBY0DKszt3y2dYXLhWGOoLQ8evlBF5X4t5TYELVqc0VA4oB9LggAIXtQFtSgE04nxcXLmiwEXwS6n8+OK+Fh9gtwzfs5abjkLTzHxOQ1ljBahVQlb0Dp8YDPwBIA7Xoy99QnCkCT8lc1/spbfXHqBdB87R6Nikzi8ZA8G1Hgtb1n1BU7/1u7Rz6YamBC7kPJlnhdGrvjB833AZJ/kn4917TRf/3VfgIg1VTctQDigHmAMKXNQGuJBWLMVADAAX+dYWY2SBi3EaHx+niYkJc6nFRcYLbV3AxC9g3MWe71n5d9Uo060CKKTVTijAK/qOmFMYGLBAiBMZfv6rPoIjTcijyl99jd9aAxen/vMP6egtsxsKtMCYAV9886cb55Nn9YWh49yVE372yQu/k2Ep6RS4YHVKQ+WAciANDmDOuXr1ml4ODyTwUIt7CWYwcAHHnJcvY4tIuE3kyhUFLrwLuFI+rPKDHHev9OpLoWnm/qi1spYWWFBP5YCnT72+w5wGc8u8HqP4IQ4XwIu31uxX4KIOj5fWseDfNgW+xH2rZHyxeTLPCkOcSCLp8H0xeprO/51sZb4ocJGGqqZlKAeUA8wBC1xcpatX9SqPByHoUy7AYYELgBYhcBHdJqIWF3mLOF1g+RdQypf654sqa35lrRIghBU9+LGAv4oX3t1N9z+zkdrnrDRbRH704CqC000dH/U1Pmo1Fra/u6vhrCyk/LM8s0IcFyaVZ/WFUV9yn7TfGiGdAhesTmmoHFAOpMEBBS5qBdgk24IyMTFFJ05hq0gIWrBTToAX2CYyPm63iUxM2KNQG/Y4VHyE9VIeNIMMzF7UF/lVH4pGGte9z25paIVMKmfVvAfvfXJ18uJh+nj3bnr+7U302ZF93jS+fBqXzjyFfqumHDCtweu+TYd+vqAmtLmMWoZx8lwNuezq2U53zrdWSQi7erbpuNC1SdkyoMBFGqqalqEcUA4wBzDnTE1N6RXhwVWamgqv8iwxJCBirTJ8FhmXBi/TmXNDxseFtbi4nPNtke+YMwQuwv5qa2sz1jLcnwjb5IPvHpnkHxxsjIyM0PDwCA0NDROEIu4XnnLjseBKklfT6S9DkJN6l4NKFK6s8tZS0cqaNniq80v+3NHM4yhO5r64+QE6/93pDQtaoF1pyLP6wqj/70y9j1/UT4ELuZrWe+WAcqDWHFDgIgQBKgNwJFBR7N5aY1wem6BjJy/S0DCOQpVbRQBajBsAw29xEdZZgYsC+7YbQQFuhIWJKoT5CmFW4EMl5cYpes0Qn4ai5xsHOn7zx0Yp82615fnT1z+m4f/9Otqy/lhDAxf3LbTH9YI/aV4z5q5SANCzptBxHj/OFbiotZqm9JUDygHJAcw5k5NTejk8qAzEYGDBD2CMj0/SxUujBrS4eGnYAS2sc84kJ4rAKkSBC88iQyoYuuCIX3BIPsXdK//8/KtE4coqbzMAFHFtAE/jZFjGqzz75TkrvlQyFuJkQePL9yGj46i+xkdW47KUchW4kCqV3isHlAO15gDmnCPHzrX4dZ6OHKvudfT4eTp6/IL3On7yIp0+O0iDQ8NmhwZvEbGnifAxqNbqotBRqApcFAEtoLCU8gGWCk7cvdLThR1koxKFK6u8zazQqcLVmOOykrHQzPKcVdt0HDXmOMpyXaLARa3VNKWvHFAOSA5gzjl79mwLXOfo7NnSr3PnzlH0Ok/nztnr/PnzdP78hdx1kS5cuEgXL+K6ZK5Lly4RrsHBwdw1TMPDuEYMYAG3EnAvgYtBi9Axpz0GNQQu8h1zwveGWlwUAS+y/KDHgR8yXuvXmAvFShSurPJmpQylUa4qXK03jqRc7X66m0b/zb+l/h0jDb1FRLYpi3sdR405jrJcR6QFXDz99CL6xje/G7m279gp9Zm6v8ce8AceeDjSBrQJbSv3DwpGe/vNVG1eoE6V1Kvc9mg+5UAxDrQOcFEMnAGocT72AlhhgQoOGbC4QBcu8BUFLy5dYsBikIaGhnKXBS8kaMEWF5cvY5uIdMpZ+EQRBS6KgBYACLL8oEuAIu5e69eYC0U9VaR8c/RaKGSFFK7BkQl6v9c6B9bxVl/jrRIQj+Wof9sQjf/e12j3s+8oaDFQ2bgsNI7kN0zHUX2Noyz7I03g4t33Piym09T8/ZEjX9Dtd9xrfo0stTAGLiTIwHEAHwBCZPUHkKIe+JtV+7XcxuEA5pyoRYFrYdDKz6F1RdTKgsELtriIAhawuGBrCwteDNHgIICLfIuLKGhh/VuMjVlrC/i5mJiwR6HiCFR7sf+MKXOaiFpcFAEvsvygy4Ve3L3Wr/UWgOUra6docXsbzZzG13Ra3J9TVLo7aOa0DlrmKi6Ib19KK9z4BM8rFk6nmbP6G0IZ9ClcACze6jlAP3pwlbkwBnW81dd4ix8L/dQZyDnkPZRtI5dCpg/MXkgn/vGnVL682nHV2V2Z0s9AiqmHqPuchadyY8i2Kb8cxIuxnGBsclm9FYzvgIYozzeOfN8uHUf1NY6y7A8FLpIrfAxSSOCCc2cNHGRdPvNBQ+VAMQ5Yi4vSt1CUs+2invMUBm8YwPBZWcDaQgIXvFUktLawoAVbXORvExkdZcAitLiwzjmvEG8VYeAidBpqHX9a4OJapJujZ51GXtkHZJJ/ehyqKjS+xakqev7FaaV8iVfWCitOrsJmFaScQhcHXAilxKeoNEucVLgYsLjxoVU045HVhPDDjUeM884sF/hxY0zGt1r94sbCslltEdDMPOfACncc1JUM9y+lORKEMM9tZMGKOOCi8LhPs31yHEm5dO9bTU61vf5vIfiSNXABKwFsvwAogD+AAtO//7cEywgGCniLibv1AWn5HUI8g55MxzTwzk3P6Xi7BtOKs1yQtOQanOst2wEaTE9aYyD+0ccWmDajnQMDB8w910/ScOlKmtxerhOXxbxDWm4f6LhtlHXCO1ihrOlZb3gPWvK921Z9Vraf/a8AACAASURBVA5UwgELXMRvkSi0faKZ3+VvDWEri0LghbS0wD2DF9Lagn1cWN8W4TGoOA7VbhPhE0Uwn8jjUAFeMHCBbSK8VeTaNQUuYk8U0AVH/ILDXYz6npV/1edfnLJWTEFxlblI+hxw0QmFD7/28i/SwS+yuV+VF0KxsmmsMhUXT+IXbPuLcOes6TlrD/HrsCkX9KaTeZ+RhQZ4KgGLHz+yOjhG8ua5a4L5QeW5+vJcybzhHwtWJkNLhahib4GLDlr0X3KynpM5E2/ucxYMC2GFZGXTWibFxQuLCzNeOqiTLZt4HA0QmfFnxpZ9n285QWQsIIR1SGSMDuSAi1kx9ernMbc0tKyKtC0/PrS4yLUhoM1gCVFvDjwBLzrxXrQpWj8yY8bXn26cjqP6GkdZ9keawAUr165iDAUbijYr4VDi+R7x+ONnvMMfQqlcA+jYu3egIHCBfO5WEVbomS4r8Ujn/rl1kO8lXdRZAhASRMA9gwvIL2m6Zct3uH9j2XKTHvncMpiHXCdZJrcRcfwn8/N7rjOXK4EPzqehcqBSDmDOKWxt0ApbRdiiwh9GfVvw9hAAGK6lBVtbMIAB4IK3iTB4EVpcjIwAvABggYutLsLTRDD22eLCbhmx20UAXjQkcIGPq17Kg1aXAb+yFlXOXIXCPlvFxypjoem8eZcDEPJ+2XWAi0BpMelBwyo8+fGsRGGriC2XFckQQMkpYsbEPkcnQ+DiV2/0G+sK8FevxuGBV9aFsh3IZs56yFoaTaej/89f0xftfxNYOESBi9BiwwId2C6VGz8SDDBKvANcBBYTQr6D8RICAV7gQgIcAAoi20+i5UfHkQUDuW0h0GJpxMW7wAVv7QrbbNsWGbtFgItWn58bsf1Z+VzCPJsmcCEVZ6n8sNL/4ouvBFYCHAelmv8ALkCZZsWawQZ+j1Aq7Hh207p0QYMVdqYDGr66urQ4PUKme+bMmcCCgt+jDSgDYbH6SQCCaUoeME33ncyHNLIcXxtBE1YWoCPvmb4vD7/TUDlQCQcUuIgDZhjEuEDnzoUXThEJnXHyPQMY8jQRtraw4EXo38JaXPBpIjZk0CLcKmItLaLABW8XQdiQwIX7q43vGYsGX7wbp+n0Fx/IRCPKQfnARQhuWEXGsawIful1FDFXOTMKIJQoKEsibSQ+H7hgJcyUDeVPKnMDMn1YT69SWoPtK+CptLjAFhEGL37yaE8wpzSivLhzX6PKva8dScZCYOkgAId3/v3f0YWvfycHqgml36Rh2c7JoQFBANLFxYsxEJHpMD4EGUAzjC8o3wH4whZKFrjIG0eiXsHYyo0RlAvQIS7eBS4YoAjiTR24/JxFSBHgwtdPbpyOo/r6/iYZRwVltYI5uR6ACyhBULSlBQUUZ2mhwfcAAE6fPhso3a4CJRV2vHPBBlfhR3qmLUOftYFLS5bNij7qhnZIWrhnK4sk9cNWEpSFtLj4z+WJ5Fch4MIt0+WLAhfMYQ3T4EBrAhcMSiQLQ4sL3zYRBi1cawveKsK+LXwWF2xtYUM+UUT6txgft845YXERAhfWQaduFSnimLOZFvi6UKyvhWIl/VG9RaZQxGIUrkCByVO2OK+rhHG8BCJiFK5ImTJ9NsAFK1cugHHjQ6vpzTX7DXhRSb8xfRkqvcrGZeKxEIAPRB8+cz31/9F3qe/dXdkDF2YMRLesuAoigw9suaTARb7M6DjK50kp65fE46gCgMKVa36uB+ACijMACVysqANgYAXeVaYKAQiuku6mdYELgAE+kMItE88uLU4j43GPeqMc31+x+nF+bHuRdBgYwXv8ue0oBFy4eZGfywEdBS58PaVxteIA5pxm9lVRrG18WogMQ6CC/Vr4wosxW0UAYEhrC7/Fhd0mYv1c5G8VsU45fdtEpJ8LbBmBn031cVEAwNAFUWULIuVf9flX3iLTAgxsCm4XjQAUfM45BRgBxUpYXAT5A9DBoRvESyAiBrjImd5bRcyhU4MFMi+UfSF4KgEF3DOAgVNF4KCzFEVA5b76cu/2D579Y8HKW2A9AFkCcJGzFDDWB4HVANL6LC6spQJkJUwfpRvGO+OFx5QE+8S4YJ8RDEBIeTQ0g/wWwANwYdMWGkeiDUH+MH2UbhjvApMBz5xxz/HGciTgXT7A6BtHvn7T8ZHO+EjKZ/84yu9fKavVus8auIACDcACyrVUoDmegQxXiUK8tDiAAg5lH3RkPNLB4gHx+HMVfpSJ9PzeLUc+c51kWs4vwQ+UiTYhvfuHdzKtjybSALSQwI2bD8+ynYWAC64j8vAf7rmOku/8Hm3k9xynoXKgGhxoTYuLuO0hiI+3wsA2EXmFW0ZgdWG3iUSPQh2iS5cKWVz4gIsxM1dJp5xRa4vQQefU1FUFLnyLKhmX9MOv6eprIVbv/ZHNnuIn6a6cY82o00HXKaCjiAngYk47O9hkZcqmzY9PAlxwufXhnFOOe3kPAOP9XrsFrd7lqtXqF6twBdssctYMOWV+x5tbBRABxQxKvFD6g60ibRTKNG+VsAp/frwzXgLgQMRL3xXtBZxzynS5scqgQWKLi/bpgQNdBhotyJIfXxy4CH1yqHPO/G9cs4y32HGUAoCcJnDhbp9gZVwqyFCYeVsFK9wynwQNkJ/fcR4oVlDiOR4OLUFf5uP3DCAAzEB+ziNpSUWNQQZOhzAuLZfBabksbjPTZZqyflwfGefyAqAGfFQgHn+ch+vjluPmlzzHO/Z3wfVC2TINx2uoHKiUA5hz9EqPB4dOXqKDJy/R8TODNDQ0IpxzWgedcpuIdciJrSLWKadrbcFbRRDKv+hZp/JN7l6PQ23eBUyzLMTqvR2VLBSzyZsDKBaeougvbXHxpf5aVy06pZZr04OnEqyIu693uWq1+pUyFna9vJ6mfvt/oC3rjjky7MqMsEiIKG5x8W7+Is+u34hIGUXyFkkbWoFE6cTFR8dyNI/vnbG4yPkK8b3XcZS/NsBcUu/jspRx5Ov3SuLSAi48S1mNUg4oB1qQA5hzrvtoq14p8uCbK7fRf9u4mzYfOUuXBhm8YAed4ZGo7N8i9G0hrS3sySLAIBS40K0igdJW7wusZqlfJQvFbPLGAQtx8cWVIP4F2Vp/CEehRZSzShbJcXlV4Wp+hWv03/wxDcx7qQhoAbmNAyji4hPIutkqwtYf4TaUOHksNz4OoIiLL16OHd/BGA2sSfxt1nHU/OOouMz4ZSMunwIXLag5apOVAxlyQIGL7ECb767ZYcAL+LsIj0PFVhHp48JvbYFtImpxUQCw4F9cm0VR1nbU14IyG/CBYnwClLbQjFuANnK8Klz1NT6SzldJx9GO5dvp9Pf/awLQQsdCJeNYx1Fzj6NKZCMurwIXGWpwWrRyoAU5oMBFdsAFLF1geXHi7BCFDjqtxQUfh2q3iwC8sCeJwCEnLoAWClwocBFYWihQ419wlsOXXfvP0j1P9dKqTUfp2KnhPB6DZlKFy7fYyyqvry7NEqcKl1/+kwIIWaWrZCw0i+zWUzt0HOk4KlUeFbhoQc1Rm6wcyJADClxkC1xg2wh8XgC4GBvDdpFwq0jo48IehcqgBVtbKHChwEWeUp1UAdl9dCAvLyv5MkxKr5nSbd97xgATNz28im56eDX99PG19OK7u2nTZ1/SpeFxw7dKFK6s8pa6IG2k9KpwNafC1b9tiPp2T6qlRUrbr3QcNec4quVcrsBFhhqcFq0caEEOKHCRLXABqwv0QQhchOBFCFxEt4uwtQUDFw1zHCqU27SvbE5/+MgovlgE1us1Y+4qunN+D3X1bE+9T9KWgXLKe7//UwJwIfvvxodWUvucj+jJVzdSVnJ177NbVInzKHHop3L6WfOkPydLnqPfCilVp6f/gE78408LpimUX9+VtnVGx1G240GOjVLui42jWo4DBS5aUHPUJisHMuSAAhf1A1xI8AJ+Lhi4cJ1zNixwIX/Jj7vHxzrunYxPmi7LD3otFwuV0gZfFry6nW58aJW5cH/izEge75PyuVnSnbxwiPYdvUirNn1Bd85fTzc+vNoBL1bRexsOVeRlXmWyNGUqiayDp3J+iLtvFjltlnYUGgsDc1+kkT/6EwUtPEBdkjFRThodR2pxUarcKHCRoQanRSsHWpADClzUB3AxOorjUOWRqOMEPxcStJB+Lhi8wKkiDWNxEadMyPhqL8gLLYxL/UA3U3q5QP2g9zDdtWCDUdDvXrCBPugLwaNq90c90bt8ZSoAKRZ3f0aznus3PJi1sJ8Wv/0Z/fLV7WarCHj140dW0/3PbAx8XlTSDpVJBS7knCfvK5ErSYfv651eobEw8MgLtHPpBgUuFLgIQMl6l+es6ldoHNV63aLARQtqjtpk5UCGHFDgol6Ai1ECeAE/F7C28FlchD4uQgedClwU8XOR5Qe91guGSuiDL6zccAiLC9cKo1l8YUhLijyQovsz44hz35ELdOLCoYAvv3i6zwAZAC3g44L5hLCSBarKpAIXUpbkfSVyJenwfb3T07FQ/bFQ7e8Cy5IM612uWq1+WY4jBS4y1OC0aOVAC3JAgYv6AC6stQU76LTgBW8VQeiCFniGpYUCFwpclPWLpA+4kAtTaYUBawxphSHT8X09LRQLWlIIkALpuP4ccjtGxyYNaPFPHSsNqMHvOeR0/BwX+tJlucisRKmp57zF5Jn7x9cf/E6Gmi4dk3nfWDgw65my5rR6ls9GqZuOo3Tkvtrzi28cpSVzCly0oOaoTVYOZMgBBS7qA7iQW0XY6oKBC7tdJP44VN0qUgC8yPKDntbCoZxyki5QYXHhWmHUky+MciwppILq3vOCctueM/SzznW0+9D5PHADeTidm9999qVTmaz+r8xJ5dnXH26fVdq/Si/5+HDHwvZ3dhL9s39G29/dpeBFiltE+Bui40iBC5aFpKECFxlqcFq0cqAFOaDARb0AF6M5Hxeh1cX4+ARNTIQniqiPCwFQJFVA3IVx0o9xs6crZ4GaZ4XRm64vDGNJcQSOM49Soe0ehSwpfEqljJNyxUefyvd8L9NxnC/0pVOZVODCJyuI88mLL22zpHPHwuB136ZDP1+goEUGoAW+eeV8F3zyyXHNIqf13g53HKW5flHgogU1R22yciBDDihwUT/AhWt1kQ9cTJotI+yYs+GOQ+XFTKGw2guELD/oaS4eSi2rkgVqGr4w4GtiXwKQQvqkSFOuKpFTlUkFLuJktRK58tGsd3ruWDjxg9sUtMgItFDgwm9tgXGVyjg6toQem9ZGM+V105N0XPxg4xvj4xN9dNu0b9Hi/gLzancHzWxfSitqIFsKXGSowWnRyoEW5IACF/UBXIyMwDln1OoiulXEWl7At4ULXOBZ/rXJB989HGPIPxQ8MjJCw8MjNDQ0TBAK/wcy/sNeLH0qH37PB95dGJeq4Ddr+kqAC9nXeVYY4kQSmY7vfXKQZ0mxUJzuEfikuEjVsqTguvhCX/2qnU5lssACu8yFdbXkmfs6DTngsmTYauXqWKj+WKjkm6XjyL/GSWVcGuDielp5LKxD77w2mjljSWHw4tgSukOBC7mk1XvlgHKgiTmgwEW9ABcjBrhgq4uxsSvEwAVC+LlgB50KXJTwC4gujP0L42ovUJP6wkhmSXExcrqHVOzc+1QWlB5ArJJyVSb9MqkKV0q/7FZZnt0xieek44PHws7XNqqlRZmgXSXjxs1b7e9CUjnQdFdp3ANcnLrURS9MYzDjBK2cISwyDKAh4nIWFctmiTTTOmgZ5MpYXHRQZ3vunbS+wDth5dHZbefnCJ1Z/cH4lPFzFp4yP3Q1sY6kTVMOKAfqjAMKXNQPcAGrC5wuAuecAC7Gx8cD8EL6t5BWFzCeaBiLCyxO0r54Yewu0Fr9GXypVV909WynO+f3mP3SCLt6tgVlvfLRJ3TfM+vomTc3UfeGHfTJ3j0GpKhVXeqR7uxF9phV9IFe1eEBeFqPfa11Kjzno99W/fvp1PfvvqdjoQ7mAx1HheW1puN5/5M0d9r3qHu/rMNm6r6pjZ5ff5hO7e+i3uBdFz3Pafc/KSwu+mlZDnjoHThFi9vbyAAROXDCghI2HqAD1kHLukNQYsXC6TQTIEX/UprDoMdAP3VOm262ogTvDchm46FE6J9yQDmgHEiLAwpc1AtwIbeKALgYywEXfuecDF40FHDh+2XOjcPCwI3zPSdNp8CF/9dt8MXHVzcuKZ996dLwheEr120DnjVdaH4s+aN8Ub5kOT4uvvIcffW1f0njFwpvT1Q5VTnNUk5TkT+vxcVmY2Xxwibuf2FhwZYYnq0i0ioiBC5y1hcDRFEAImeRwVYXxrrCghvGEiPG2oKtNBS4SEtd03KUA8oBcECBi/oFLniriD0OFQBG/pGoClx4zJ6lYqbAhR+4uG/hpkx+4Zwxd1XNARPZ/3yfysLTI4taLi+4o6HyJcqPVpXTcx9/RJNvvV10TlB5UXnBGGlqOfACF2KryKbZZkuHBTH6wi0kErgwlhJtZK0pXIsLH3CRAyhyW0fyAA1jbWG3lwAAASDClhpstarAhSqTygHlQJocUOCiXoAL18cFLC5wHGrhI1EVuPAoi6wEIFTgwg9c8KIj7TANSw/Z/3zf1AtezxjQ9qqiB9lXOVA5UDnwy0Dd8cUDXESccwK4YEedBsTI+b7IAy5yAEUOxAgtLnLbRnJbSPLAjVx8sFUk8IMRAiAG2IhsIWlTHxdpamxalnJAOaAWFx/VD3BhTxa5HPi5iPq44C0jUasLABfXrl2LSHL0yJDIK/uATPJPTxWpL+U+bTAhzfIUuPAvolXBVL7UnSJVQ0Bs6te/ofGLgwqseHjcSnKAtmp7c3OfAS6kY802mhk5DhVWFrn3nUvEFhIch9qWO+5UbPFoX0qL2ULC+LjooE523BmAErltI4budFq8MDw21YIUufJitosA/Ejb4uLppxfRN7753eDCcz3/oX7VrOORI1/Q9O//bdB+5sX2HTvLZgNo/rB9BiGs5l+1217NuimtxuWAWlzUB3CBk0ijR6JaHxc+qwt5uogCFzELP14QqcVFfYEyClyogq6Kil8GWoUvEwePEP3O79BkzzoFLmK+Xwpk+seI8sXPlyzXOWkBF4ODg9TefnMeCLBs2duEd+X+vfveh3k0y6WVRj6AC7ffcW+kzQxmVBMgKbUt6APUq9rgR6n10PTNzwEFLuoJuLDbRXCyyOXLDFzIk0VCqws+ElWBi5iFnwIX9QVYsFWHAhf+hacuyJUvrQJcXPvLv6Kp+x/QX9oLfLt0PtD5oJT5oNmBiytXxumBBx4mgAzV/msG4AI8yRo4yLr8asuF0qtfDihwUX/AxeioH7iYmLDABZ8oAvBCgYsCiz98+Cv+oDtnnJv9n8FRYLxnVIIE4X5QVtYThyhLmHAmzmfqI+qQMws157eLd9bx1rvhEWniXdlllUhDgQtdkJeyIFcFrvnkZfKllwNnnNq/zde/GN98af+GvGCe1GL+q3idU+J3XK4X0rC48FkZuGqVC0Aw2MFbKPCet1XAcgOKNiwUOA4hp0Uo46UlA94BRHlj2XKTBts2UD+ZR6bnenF9JN24Mpmm20Y8F+IFykV5+HPL4zpxPOqPctCW06fPBtYS3D6k4z8ZJ/nI9Ued5PYV0ER+brukI9vPdcJ7LoP5inTyPdPQUDmgwEW9ABfDNDISddCJcQ8/F9guwieLyG0iDFxcvao+LoKFklwc4L6yDzrOKZfghH22Tq3cdwI4qGARIBcE5d/7wJP6qK8CF+ksZFVhUD7XQkFSuVK5Urnyy0CWfKlsnVPZ2iUN4IKVWqlMu+qbqyQjLRRo5HWV/aNHjwVbLdx8SC+BA6aDdPjDeyjV/IxQKtkoS/qLcOlzvWU8aDKYwmWw8s/pOXTbwvEImaZbZ35GOXwv6UtrCXkPmpye8wJYQByXx3TcfPyewQfkL4WvDIYgn/4pByQHFLioL+BCOui8cuVK7lSRfOBiauoqKXAhftnBosF3VfRBN165p9Pift+HPQcEzOowR5TNnMbpQtDAWjgsNRYOkfPQc5YVcJxl4tnKIrC4yNEIaEvwxL6z9DqoMyg3Wkdbdj8F4EdghRHWD+/yHXBF38vjz/JolgHQKHDhl1NVCJUvWSo+1Za/3UcH8ubjqSc68+KqXa7S03HUTOMoqTxXtM4p4zserCsGKBXnnFBeWUGWCoy8Z6Wd46TC7YIJnAahmw+KNuLknyxf3iONS1uW66PPeaSfCrdM0Hj0sQWGtqyHL698z23xgRuoN8px64f8Lugg6+OjxWXKdy4NpOH64F7S5PySl/Ke3/vy8DsNW5cDClzUI3Axak4WKXaqSAhcXI0IcPTIkMgr+5DVqSL4CKd9VfpBl4p99PxyC1zw1hEo+PY+VPxtXgY0hMWDAREYjLDpDW0HuGDahk4O3JD3vYYO048CF70GdAnPbQ8BiLB+Jj+DJrmj0HB0minDeBE/RYtnwRP5Ulox4D/DXS5gktyjP9KWAS0v/XHXKjyfvajPWHVBrvUKeTBj7iq6c34PdfVsN+N95K5b6cpffE/HfgbfwFYZi63czkrXOUm+3XFp0rC4kAqyZ0lroqSSjAhXQQcN3s4AJZn/ZD43D6eR5bsKNhR2gCoI8efSkPTx3lXwOb3cQsH3sp6+unAch6zoIx/TkKGt51BgicL53DqhvQBOUDfUHxf/ubTZUsSlgfTcdm6j255CfEV+bg+XraFyABxQ4KJ+gAv3ZBHeJjIxMUHs3wJbRuR2EWAQADDkX90CFz6LCDcOiw83zvecNF31Pug5oCLYOiKACLZcYGW/3YISIQBgQYUAPAgAChsfpAviBZiBX0Pi4gdQhxjgInJWu0wXAhemXD5ejUO0gcsD+DGrn5bNAgCCfHFlOaBJgV9w0B++/nTjkvavptNfWCE7WclB9eaX5GMoToGop3jwZcGr2+nGh1bRE+2P0/g//y06tWNf3tjPqt+0XJ03spw3qi1/Wc5DaQAXcYqvXPiyksxxcXmgYEPZZiXazedTlqUij3zS+gP0SgEufPQRx/Xh+seFUtmXaWS8rK9Mg3sfX1zQAWkAXOzdOxCx/HDbLst0aaAsyVtfu2U9XdrI78vjtkefW48DClzUO3CRf6oIAxfYLqLARcwWEVaEq/1BD0AGAxqw1YRjpZA6cGHBCLN9RAAZpq6wqGAgwgAKDnAhzmcPFR8AHR20rLuD2AKjc+FSmhNYZ5SvZKE/uG8KhdVe2Ck9VVRqoahUe34Jx2D5Y6weaMhx/kHvYXr97+41Fil3L9hAH/SF4LSOSx2XtRiXrSZXWc5DaQAXUM2g2MJ6AMqw/OPjUPGef/3He6RDesTzhXhXcZfKNd4jbTFfDOUCFyhL5uV2uHXneF8owQJ+j/zcVsRxG11eyXfIw39xoAPAC7a8QFqXV3hmnsfRAPiAv1L5ijwKXBjW6T+HAwpc1AdwMTQ0TNbiIjwSFXOPb7uIAhcl/MJa0QcdCr8AAqAQAAzwOecMAQ0HGAAAYAADYaERoWvT+7aKBFtTBPAQgBFsieHUL6q0WEuLOTkgxb4L6xfdaiLqkbOumMMWFv1LqbN9em4rTGUKlVRoFLgIlZZWW2g3S3srml8KWCZFx3FlYy4LWr5xfuLMSGCFAUsMWGT4fGH45oVmkRdtRzjnyX5WvlTGlyznobSAC+guUI6hKMvtD1I5h6LL7+BEEiABFGYo+7xNBO9lHkmTlXmETMdNj3cSfEB+PCPEH4MGTIuVfbcOTJ/rgpDjEMoypN7mo+NLK9vFdFEnt37MV/jcAG3+43K4HZxO8h+ghvTVwW3g+nDbmSZocV0QctvxHu84H6dX4II5oaHkgAIX9QxcXCkCXEypxYVc/PjuK/2gG6CAt1EgDCwUBBBRaKtI+3Saw/k5bw64AKBQyDmnD7jozW0BKeack5UV43sjAE+gAAngguvt1i+I94AuFSpbPoXG12+6kK1sIav8S4d/lc4vPE6bLQRfJt9cTpOr1ngtrGCFcdeCDcYKA6G0wtD5ILutTzpvpDNvVJvPWc5DaQIXUnnRe+WAcqA1OaDARf0DFzgONernYirwc6FbRVLeKlKKghGxjpAKvwEuGBSo4NfUatGRdavxvQIXjbkwrvZCu1noZakwlDIXpZ12xr3L6as/+BpNvvW2F7hgcAIWF+wLg60wYJnB7zlsFnnRduj8B5muthxkOQ8pcNGayqO2WjmQFQcUuKgn4GKYRkbkVhFrcRFuF5kkOOeUDjoVuGgx4MK1AIEPirSVkkrKU+BCF+61WLhXWxFISi9LhaGScVjrvBv/5D/S1Z/cmgdAMBDBoeRznhVGr/rCYD7FhZJ/cWkQr+mae97Nch5S4CIr9U3LVQ60JgcUuKhP4GJ09DJdueICFxMKXPDiLOlCLMsPeq2Vg0akr8BFcy+gk47LZkmn84sfOL3nJ4uLghZxCrX6wlCggb/zbtgs80a125HlPKTARWsqj9pq5UBWHFDgor6Bi2IOOtXioo4tLhoRWKh1nRW4UOAiTmF1lZRGSJelwlDrsVoJ/WqN8zwrDHEiSSPKS7UVVqWn8ynGQZbzkAIXWalvWq5yoDU5oMCFAhc0Ojpq9qjgWBMcbwKh8C0KK4nLaoGV5Qe9koV/s+atlkLDspiVXGm5qjBkrTDU4xxx5q/+jj7ecsEoUjxGC4VJx5H6wtDxBjlKKi+tli7LdY4CF62pPGqrlQNZcUCBi/oFLsbGrojtItZBZ0P7uMBiIu0ryw96PSoWWdcJ/ZG2DGh56Y+7VuG5zi/hVpFD986nwT/9jvG5U8tx3tWzne6c32PAEYRdPdt0Tsng29oqY7wR2jl7UZ8ZDxh3aV8KXGSlvmm5yoHW5IACFwpcqMVFjU/SyBosqKfysagq9Assv8Nike8LhZpOf4mFfGQlB5DnehpfWdVl+zs7idraaPu7uwLgotC45XeVoAd9bwAAIABJREFU9Jv6wshO7ivpN+57GSq9xp3HFbhoTeVRW60cyIoDClw0FnAxMcEni9gjUdXHhfq4aCjFSYGLxl2gSkUj7r7VFBAFLkKLi70LuoK56L6Fm1L/5Rd9MWPuKgU8Pd/EVhuX2t70vjMKXGSlvmm5yoHW5IACFwpcqMWFWlwECketf7FV4CK9BWUcuCDjdYFfWX8ocBECF7WeO5LQ1/mlMnnW+UD5h+9DKXKgwEVrKo/aauVAVhxQ4KKegYsx4eNinCYm4OdCLS7ML2pJP6yqWKhiUepCTCr2cfdJ5U/TNbci0Orzy66X19PhOx9NDfgsBl4ocNHc403n0/rrXwUuslLftFzlQGtyQIGLRgUuJmlqaop0q4jHLFYqm62uWBRb6Kf9XhWL+lt4yvESd68Kg7/fWn1+Gf3DP6aBeS8pcKE+ebxbdHTe8M8bzcQXBS5aU3nUVisHsuKAAhf1B1yMjIzS6OhlGhsrZHGhwIV3oeQqXq2uWKQNTBQrT4GL5l/IumPQ99wsC/dWnl9O/OA2Ov39f6wb0AJzj84vOr9gvmmW+aUR2qHARVbqm5arHGhNDihwocCF+rhQHxepKR+qWKhikbpicWwJPTatjWbKa8YSOl7AWitWYdg0m2aKvFHg4hQtbm+jOQtPOeOpnzqnTafFSzpoZvtSWlGj+WbZrGgb8+tR/W1j/TtGnLbaMlYsnE4zZ/Xnv+vuiPYD+sSXLiGP3HLy55c+emHa9bTyWHTcxfavIxOaLso3BiGVL8oXnscVuGhN5VFbrRzIigMKXNQ/cHHlyjiNj7s+LtTiQi0uEi7ui1lBpPk+X7HQBSAvAFkpKBSqwlCGvBjgwiqvln8naOWMNnphk59WKf0RBS6IeqGYO+CEUa6duGqPOQNaRMoAWNJGnd3VByv6Pp/IByScucgFFIL2GuCig5YF6XOgTn959TTtFsBH3vwi+l6OKx1HftlXvihfSpn/IC8KXGSlvmm5yoHW5IACF40GXEzQ5KR10Kk+Lpxfx+TClO/zFItgwVzeQjlYgCudosqLj1d5ikVMH+oCWhfQpS6gecznhUJ5tXLlABewohDWGAA0zIK86/ownq0spMXFsSV0B+cLQANXERdWGBFQwwILttzptNgo7jKvzcfAAxR0WFAYQMAts38pzZkmwYDQ6kFaXUiLDI63AEOHATlMXQQI4EsPYGbr//rv6K0/Z0sJW8+Afzk+lA9cSL7INnnihfUG+BThjekv28+mbng2fTebXpjRRjPnddH4hHgPnub6+Dj6vXOJAbdM3s6+oiC5zlc6X1VtvhLfxKzkavfRgaIyz+1V4KI1lUdttXIgKw4ocKHARWpbRfARTvuavajP7HuGwqxX9jxAf6QtA1pe+uOurni+/0may8p+Lpz7yuZADnvXdwX3u1/5nlFqT13qouenfY+694N3m6n7pjZ6fv1hOrX+dpp505O0Oxd3x49eMwAeAwsA6+R9rwQVAuAiCkpIK40wbz91zuqgTgMkcPoYYCOgGw/GRoGEkI5V9nMAgamrBVHi0g/c+n06+Vu/mwNaiHr7+2lZYC3h0BUgSABiCrCBwQ4GZ3oHbDsjoIoBQuLiLa/tVhNb9s33fBTtL9P3uX5E3wV9ephO7e+iXtO/6OOwv40MBOkQn+v7DL5fdTWOmrD9uj7wrwlmzF1Fd87voa6e7cHcGCeLClxkpb5pucqB1uSAAhcKXKQGXOT9Eip+WeB3+DjyfaFQ0+kvXJAPlQOVg6JyEGNx8VjXiXCukVYXnRZc29GZ8xnB1haYrwKLC+s7AYpyoJSzFZZRzi0YEAEAAoABSnbUH8VM+MDoz1kNQOHv7qA5C/tp8Sz4xEB6Sy+wgggsPPK3p1gwIkc/ly7IJ8oNLDgCWiHw4Eu/4OGtNPXP/zt69v/8odjqAbDEAgsWiHDawTzhUPDG8s3ywoIXYfnmXQD6xMVL4CJ3j/bJ/hJ9b/pu2mzaEZk3pNWF3U5kLS6slQXmF8hBRFb0u9U0865aZPrBTvBlwavb6caHVpkL9yfOjITzZW4MYHwocNGayqO2WjmQFQcUuFDgQoGLyELWrwgyiKKKsp8/yhflS1EAQSh8qcqLUF653FA5zSmukW0CFriwYz5UbI3ymgS4MEAD/EuwpUROOYgAF7w9xFEcoKy3L6VlCzsMkLFs1nRavLDDcWAZAgXGOiFQ8B1aQXmOFQiDCAM5oCQGuGDLBwnMbFl0B82U21IMEMG+NEKAIQBscu8NqJEDZCL5IxYqYf5ygAvk+eHs14ItHqa/RN/nARc5sMr6OgmdeIayYYFRBS7y5zYeR/xdjAvrPZ0CF86ckZsbwBfu0w96D9NdCzYYi9W7F2ygD/rCH5fQv2kDF08/vYi+8c3vBhee8bd9x0564IGHCU7h9E85oBxoXg4ocKHAhQIXClwEixRerHBY7wtPrV++UoG+U74Ivgjl1fLFghH2V3R7b5XXHEhhLC666IXcr/PgZ6C8BsCFTSu3isjTMYzi3j7dgBDBKSIBkJADHngrhVHu2Z+DVd7ntOeeYXkBOuakErzjdFEwwlhIBACEVUZknLXC4LygY8EGW08+6SQEDuLSm20tog5ym4t9V4nFheULAyZh3eLipcWF5c1NOYUr6C/R917ggq0zDIghLC4CywzIQWFHrjrexFgT4GQj8EWBi+LABfoRFywuXCsM+MJIC7gYHByk9vabiYEKVsuWLXub8E6BC+ZIZSH4++57H1ZGRHMrB2rIAQUuFLhQ4EIVPQUuhOkrL9QKhQoM+JWVuuSLUV6drRmssE5cJfMLu9lCcT2t7LLHne7GlrXcL/LGWoDTB8AF2t9HtwVbLxgUyCkCxgrCORo1AC6QxoIHcnsFWzZIwMH6yBDWGdKCwQEqLNgg2um8l9s/8sEBrlNYFqfv/NM22vN//CfavPGUPTVFAheyHbOWmuNgA0eZDMwICw8Lbog6gn+RdJIvkqf+eG6z2WoiecP9NQFLitz2EdOfcqtI7h3e55xxAsAy8jDj+vAIXXXOmfd9qMtxLkCTpPVT4CI5cCG/h9IKIw3gAlYUsKYopFArcFEdTVGBi+rwUanUjgMKXChwocCFAhd5C1NepCRdAGq6BlLky1jga//6+7cVFJ/B675Nh34+P9+XhwQk6uRemrjzHOYLC8mzBS6W0HH9LjT9d6EVxi8DoqWEScdRWhYXR458Qbffca+xrIhTh1zggi00eFuJBD1wz/EIkRd/yINy1vSsp+nf/1uTBlYeiI/7Q14fLTdeWopwXd9YttzkRVloo8wj06O+eMaFsrhOsh2yfXFtZwAI7QMN0OKy+R23heNRL+YF3qGO+qccyJIDClzUN3AxNnbFbNkbHx+niYkJc+lxqLqgbPoFZSHFQioims6vUCtf0uFLsys+X9z8AJ3/7vUNAVpYHxfh3nw5T7j3hcaHAhf+sSN5WIh/jZSu2cdvKWCFTJsUuIAcpGFxwYp+If8VMg0r7qxkMyABJRw0ABgwLSj87BuD8/EzK/MSRJAKG+gziIB40N+7d8Ao96z4I57pMLiAfAAB+Bkhnrkc0Plh+wxDD/n5PbeHAQzOL+vBbeC0btvRNlln0OL2oiw8M12ut6R19OgxJNM/5UBmHMCco1f2PBgaGqbh4WEaGRmhkZFRGh29TGNjY6TAhfh1uJEWRM2ysNN2+BfxyhflC+ajVlB8tqw71lLAhX5n/GO7GfnSCuNXAhJJ7xsduICiLZVxaFhQxlkhlxoXQAK25pBKPqfx0cI7V6nn9Ail8s/xko68x3sXqHBpo96gyX/IL8EHWW+XNvJw2126XDa3H8+y7pzexzeui4bKgbQ5oBYXanGhW0XUgkMtONTHRawMQGFRoMavzKni498jn1RBqna6UhQuqYjH3avc++W+Wfii49c/fksZR2lYXEhwIU5Jkgo7FG3e8iBDVv6RVsYzCCABAC5H0uU4hL60iGdlH/nkn2yDSxO0ALQg9NFwgQvQevSxBYHViKxLobb76ibrhbIlcCHrIi1CTCX1n3IgIw4ocKHAhQIXqpjFKq3NskDVdjS3ApJV/zar4nPyB7fS0ds6GsbSggGQUhSuOLBCxmclV1puOvNVs45fHg/lhqWMozSAC5/C7epMEgzAPYMUhdLhnVTcJQDA+SRdjkNYqE6u8s/lMNjg0qwmcFGo7b46y/ajnr66c7vxLo6vnEZD5UCtOaDAhQIXqQEXWIzppTxoVhmYvajPbB3Aok+v6vAAPK1XeTlwcn9TbhXZ/Uw3Xfn9f0n924cbErioV3nRetXft0+Bi3iLi6TymgZwAUUICjl+9Xe3LfiOQwUQACsK5HH/XOsFPJdjcQG6Mi+eAQIk9XEht7JUE7go1PZSgQvQAn/5z+Udx2uoHEiTAwpcKHCRGnAhf8mKu8fHMu6djNd06fwipXxOzmddBPsXweX+6od84Kkc93H3tZbT0bFJ2n3oPH3Qd5ieWfYp3bVgA/3k0Z6mAy4AVlz6xjTa/cw7DQda1JO8ZCWnWq6dr5POBzpn++fsUubdtIALKEaslMttHlCm8edaMQBEkKdhsLNMlwasINjHA97hHnn5z6XL8RyifK4Pl4F3DLTwO64nv6sVcAH6cW1PAlxwXrRlYOCA2cLCbZB15vZrqBxImwMKXChwocCFbhWJVQ6TLgA1XWs4aqwEhCgnbykL6DilTcYnldOdh/bR+m3H6aX3dtOc5z82AAXCJe/tpg3bjtMXXw6ZMaOKj1/xKaevq5EnK3lJKleaLjkQLMct31ebf7Oe30h3/+pjmvvy57To/WO0vH+Q1u/9qiFBu2qMH6Zx38JNZs7DeCp2pQlcpK0gaXnKAeVA/XFAgYv6Ay5GR/VUkVhFulYLmGoviJRefS1Q0+gPVWKrr8SmoYievThGn+w+TV2r99PjSz6hW+b10MwFPfRs105asfEI7Tl8gS5fmfLOSc3U5/07RhpeYUtDXvgbJMM05hdZHt9ruZV9Z05cOET7jlykVZuO0vPLP6NfPNNvFHUFM5LP5Qpc1J9ipzVSDjQzBxS4UOBCLS7U4sKrlGFxrAvj5AvjZlJi+Ze3rMM4RfTk2VF67KVP6NipYSO7SeX0xPlD3i0fT7y8ld5cs5+27jlN5y6NJZb7ZunzLeu+MH4tdi7d0NDgRZy8sKLPYVJ50XTJ5z/mrQwbkX8AKePBjN1qmTEQBTUUuGhmFVHbphyoPw4ocKHAhQIXqqArcFGF41CbRYnNGqyQ5fsU0e37ztDNc9dQ+5yPaCxnCRGnIB39cijRlg+pbOE+jp6brln6/Py0v6ajt8xuaNACcuOTF7fPSunfpHKg6Zob4ChsmWHBjLf6B2nt7msNP4bk/JvkXoGL+lPstEbKgWbmgAIXClwocFGCoqIL1OZeoFbSv82ixCZZrKaVxlVEsXXjxodWGQX1oV9vDgA39Ft0y8dWs+Xj7l/2RrZ8nLxwKMjjU2g5LqkcNEOf73viVRr8+neaQuFy5YX70w2T9q+m0/kesuOTg+HLk7T2k+PGWe/dv+yjGx9aTb9YuLkpxlEp87sCF82sImrblAP1xwEFLhS4UOAiZmHiLnbjFjCazr+wazW+NIMSW8qCNY20UhFd2LWTZsxdEziLW9z9Ga3InfJx5/wec8qH2fKxej9t3X2azl0cywMpfApIJXLaLH2+eeOpplC4pLz4+pXjqi0HSq8BAI5Ns2nmtLbgemFT8u+Wa3Hx8xva6I4fvRZx7JnM4qKfOqdNp8X9RL39S2kO3/P2CxPXQcv4OXF4iha3t9HMWf1iHNu4zm5s7RDlJqXZ3UEzpzl1QVz7UlohaChwUX+KndZIOdDMHFDgQoELBS4UuMhT8HSB71+IF+JLsyixaQASScsAT0+eGaUHF0W93MPq4rbH15pTP3D6x67D+2JlmPsMYbUVTO3z6H73pP1aq3QKXPjnrWrLfaPRO951Pc2cNpt25LYEjk/00QvT2uj59fnHr7s+Lu5/1nXYuY2e+sc2mvPslwIkSDgOJFgh7xkIKBe4QL72Dupsl0CDAC58ZXGZcaECF82s+2nblAMNywEFLhS4UOCiBgpNoy3spHIn77UdyRUBVWITLt7jFsqeePD08Ze30k257SF45uuGjpX06cBZA1hkJaeN3Odf3DKLzn/3+tKVL08/1QqIKJUu+kPOX3H3WcmLlpt8PvX1XXn8O0ErZ7QRLCwiNI+doPX7NllHnC/fEVhizPz7J3OWFLCI+HOae89/yr2zlhIrFk6PPFvLidCSY87CnPWSAQty8cZKIWcVAasPPPvABBPH4AOsJEK61nLCP8eiTiiXQztuGLhwyh0gky6wPmErDWNNAfAjZ7mRALhYNquN1OKiYfU/rbhyoCE5oMCFAhepARdYdOilPKhnGZi9qC9QjFlBTiO899ktTaVAlqpwxqUH74+cOUg92z6jZ7o+pjs619AND66kW+atNv1008OraN/x/ZnNK1nJS6UyOe+/PkaX//t/QT+7/eVM5L3S+sflR3/U8/yidcvg+7f/SZo77XvUvT+/7DmL+uiueffTPdOm0bxXj9Hy/gH69Q/bDAhgt1fwPRGUdLsVwwIBDFCs6O4Pt04EWymiaZDXpJdghbxnMFAAFwYgiYAK0S0a4ZyJsnJgB/IHWzlsHQzgIcsK6ggQRKQxQEVuGwvqY55D4CQAOnL0uX4KXDSk7qeVVg40LAcUuFDgIjXgIvJrR2CyGf0VBAs7TRflCfihfMnnSS34AoUoXBD6f92Ke59V3rj6NEM8eOrOB/BdsfHTkwSfFzhd5M0eC1y46XzPOo7sOLr6s5k0tfiFgLfKl3TmF+VzFnzGtpDraeWx/LLNnB1R5HPWCAYwsBYPbOnAijor+wxcmHnWAAPSuiLGp4QEEOS9B7iQlhxcB++cDjoMcBgggsEHAUqIskw7hCWHASSQ3wAVbO3BwIV4ZjAjB1wYIGeaWlw0rPanFVcONCgHFLioT+Di8uXLNDY2RmNjV+jKlXEaHx+niYkJc01OThKuqakpamtro6tXr0akry3y5HlAJvk3OjpKIyMjNDw8QkNDw8b0z7foryROF2z5iybwU/lSX3zJCnyopFzvYpYXwg0e+oAL3zyk46i+xpH2h/ZH/XzfYraKwFnn9LtoRYXAhVXgcwp+QCsBcOFzmGkABg9YYICGDlpm3kuAJGcJ4gARFlQpAFwEQIcA58sALlCOWlzI1bTeKweUA7XmgAIX9QRcjBj8ADiCAhcxFhmstOjCWBfGtVgYVwIgZJVXgQsFAHledEN3npxcuTqwspBp3XTynbzXdDrvQh4aTQ7inHPedttHzukeVtm3in8yi4tgG8hADkQwFgmSjthmIiwffJYbBgQRWzECqw4foGFAaQ9AEqT1AxfWsiJqlWHKKRG4sJYbHQpc1FpLU/rKAeVAhAMKXChwoVtFGnAhJpUJed9oC0pZd3mfVTuyAh8qKVeBi8ZTpKSsy/uayv35S/TVH/wBTb71dh54UdNyC4DQWq4CIZD/NOTAghehzwY46wzmXaO0594F1ghxwAVbOeSUf5G3cyEcerLFhM1vfUM4cTlwgv1oBP4jgryh/wl+590ugrIDWmw9wYAFh4jP1UWAIkw3OEK1ROAC3x0ALWpxEdGp9EE5oByoMQcUuFDgQoGLlBZOUkHh+zQWbFyWDLVcv8IQLGTL2GKRVV4FLtJRfOT44ftGGkdX//4f6OpPbs0DLdCWRmoH894Xajv885ryxc+XSubsZp53S2mbAhc11tKUvHJAORDhgAIX9QFcDA8PGxcTIyOjBkfQrSIFfqXThbZ/EaZ8qZwvWZ0SoaeK8K+F0RCKhU9BdeNUMfPLPvNlYs8AXft//zyWl5zO5av7rOkK89nll/us/Ksv/ilwEZ1vSwEsOK0CFxGdSh+UA8qBGnNAgYv6Bi6uXFHnnN7Fti4A62sB2Iz9saMzNCtms1qYF0MZ8bU3fhHs2YcsLDrMXuE8c19rhjtn4U5a3N5GXjNhQYMXkSWH0tkbO4CrBt2yaOTzSYELHedx480FBTSdX1aUL/F8iZ+zK1foS56Ly5ozs63n2t3XdKtIjZU0Ja8cUA5EOaDARf0AFzjYw7W4UOAixvLCpzjqQtavUCtfyuOLAS46+0LgDF7oZyyh4yUDF8UWl/kKuz0Kjx2oFctf5vscaCFBkTgQJZ1FeD4fFLjwK12lzH8Tp86GMqzzaSzwqPNkefOkj28cV4qccp5CYbXpKXBR5rcjB7L8YuFmBS6iOpU+KQeUAzXmgAIX9QhcXA5OFVHgQhfautCOkQEscKu9kJX0CgMXm2nlDGGRMWMJ3TCbPdRzPAMPUiG3DtOsBQe/Z+uKU8QAQQggSAdrRNaTu3QiF30vPdybtMbRHMrnOoXWGzItl2uduLEjOV95RMYrfXsHdbbnaEprkYgFB9Ox7e+cNZ1m5pzPGe/5QZ2i6Rb3h4tpBS4qAy6GHrmPrn372wpcOHOIHOeFFOXdRweK8q7W81Ch+iVth6bzjyMFLsK5NvwGJI9Ti4saa2hKXjmgHMjjgAIX9QVc4CjU0dEmBS6weNJLedAoMtA7L1T2LdBwO/WyDO/vot793Jdd9Py079HN93xkvKzzEXZR4MCCFCEgwQDAUlqBX68i3uElGCHuY9KE5ZyixbM6qHOWpcnARPheliPoxpkox5QXPU7PgiLWakMCNDnQQwAnzBeAI8u6eXEs6xHNj4U0FItGkZd6q+e5vg+I2tro3MYVRXmYlW8X9G89XzPmrqI75/dQV8/2ojyst/7X+vD8HB8qcMHzcPkhlIha/z399CJ6970P84q5cmWcHnjgYdq+Y2feu0IRoIV8yI8/pvONb37XW04cLZSLPPKa/v2/pSNHvojLUjQeeX/YPqMiGm4hg4OD1N5+c8l8cunos3KgHjigwEW9ABfYJjJiHHNa4GKMxsbGSC0unF/K+NcnLMr4vlCo6fy/NClfivPFa3ExbTbtCCw9Tgiri+sNcGGVegAeoTWFtWKwzwwm5P+6JQAAY7XAVgihYm8AiMBKIQeqABhggAH5ZvXTslnIi3y5OggriHBbSEjX1sWWz748kK5gecGxfYKOKIfpWAsL0TYBkkirCx/wwcBFofHN71Se8+V58vVlNDT3/kTzpCpwfsUNfFnw6na68aFV5sL9iTMjeTxV+cuXP4zNeueLyr1f7vO/T/Hp0gAuABBA8YYCLv+g5N9+x7158TJNknsAGQBHSv1DvSQAgvwMZviAllLpl5sefAJfKgFQyi1b8ykHas0BBS7qD7jAiSKXLytwkbc4ZCWlERZE9b5g0/oVX2jnARcTffTCtOtp5bGrdGr97QTl3DrrtPGwuOAFX6D0m20UoSVBPHBht4vMnNVvAQNjqYDFYggMRCwnBAAQbO/o7jBOPJGuc+FSmiO3cCA9AA7hgNNflwTlGTr5wIr1y8HxcqHrABc5gMNaYITlSYCH+QjFQo77uHuV5+LyHMc7xKsCJ+U1vJfy90HvYbprwQbDq7sXbKAP+kLwXOWvMvnLin8q96Gs85xbapgGcBFnMVAu4OAqVnEWHW4699kHXCBNtQAVt7ykzwpcJOWUpmtEDihwUU/ARXgUqgIXMZYWvPjOaqGj5TbmArWcfssDLuCcky0uAFzkHHWOm3hrcQEwILBqYEuIgRC4MOADAwoRAICIHXLOYUsJA04Ixd6kZ0sOGx8q/9MpyNe/lDrbpxNAECxCUWawTcOABjlwIQcgBPVFeTIurrxIvUX9TDvbgrLCtvqAC18dQj7x4lkqjjz2fWE5/eujw3GNTG9yzdoA7EnaDlXg/AqcT/5gceFaYagvjMb8Lqjc++We598kYRrABZQrgAvSKoK3dwA8wB9bOmDbhtyuwUr8G8uWmy0doMGAw+DgkLGY4K0eyPfwI0/kbRdxy2Zlj+nwlhOOd+vGwAuXw9YYnA51Q9mw3jh9+mxgLYFyOS3T5jjOyzTZIgWgCWhxPGhyO5lXoAW6nAahLAf33GZOI99zXTRUDmTBAQtcfELXfaRXch5UF+xAH0S3iVw220T8W0UmaXLSXlNTU9TW1kZXr16NiE5b5MnzgEzyD441UIHh4REaGho2XqJ5AV+tMOkCWtM15gKwWfpN7vW/6e9dHxdtdNttvCf/SbqNt238/V1083R+J+KnfctsH/nhbMTx/Uck6TK9e5/dElhXzGRgwwUuciBEsA0jsMrgbR1s7eAABTmrDc4XASpyYAO/QyjfG/CB28nlxQIXIfBh6SWoT/tSWjyLwQ4FLqoxjr76t39MU4tfMOBFUnqqwPkVOB9wIb+J0goD1hjSCkOm4/uk/aHp0vkOqtz75T4JYMFp0gIuoHSzco71q3yW9/yOt3AwaABFnP+Qnt8jjsEANy+eGfjwbbtw6TB9SZPLR1qXHoMPsi6yPJe+tOTA/Zqe9YYm02FwQdJAAn7PdUA6yUu3jngPwILTI5RgkClU/ykHMuKAAS4+/ISu06s0HhQEekoDNooBF+Pj44RrYmKCJiYUuChpQa4LwHQWgM3C50oWslnl5QVkM4bFFEdVCKPj++otP6Gr//ADtbgwoF/lSllS+YPFhWuFob4w1MdFM87JbpvSAi5c5VqCDfIeuhQU9UcfW2C2bLhKPN67gIDM7yr5blqpqxV6xzR9aQAM4HLLAm1ZX3mPd8gDur4/+c7NJ8uR95KOzC/vkSYuj8yv98qBtDigwEWNQJs8YCMezDh28hKNjORvE2GLCwUuPNtGmkVR1nZEFa+sFdGswIdKynUXks30nFRx1HFkx9HVe39B4xcGFbhIGbiQ8pdnhdGrvjB4Xo8LJf/i0iC+2ul03q0c3EsLuIBSxAq1VMxZqeYtDTIEaCDTsmLlggkMMvB7LgfPeIf0vj+XDqfhOuE9aMk68T3oynSc160v8uNCWgZjOC1oMD3fzYbbAAAgAElEQVSEeMafS0OW475jWrItsv14L/Nzeg2VA1lxQIGLGgEXrgVLASADwAV2aWC3hnTMqcCFB7DgRU21FzBKr74AhKz6o5KFbFZ5mwmocNuiwEU647IS2XX7rJmeK5E/9YVRfaCh2t8FlfvGAi54qwS2SMjtFYXABZ+iLpV0KF/ID2Wd/7ico0ePmXJAw/fn0uE0Mh73DCjwew59gIBbX9QFgMXevQMmRB78uXWWYINLQ5Yj77keCGU9JS28i8sj8+u9ciAtDihwkRJwUQDIsBYXAC5Cq4uxsSvBcah+i4spUh8XBYANBTj8Co/ypTBfKlnIZpW3mRRFty2VKI4s6zKstuJTL/Qm3/sgsLIop72VyK7bZ830XC35y7PCECeSyP7i+3qRK66PGzZL/VTuGwu4YAUa1gUSaIDSLX02SAXKVeLxTgILeHZBAI776U/viZQj6froIA71kv4gUD7qhjLdP26PfOfWF2kAXODiNrv5+JkBEh8NAD1cDuhIfrl1xHumhTozfc7vtkOflQNpckCBi4yACwFkMHABH5mjozgKlY9DvUJXrlwx/i3Gx+HfQvq4UODCu1Bv1gVWsywU670dlSxks8rbTIqi25ZqKY48L9S7/JVTv6nFvyE45OQ2yjApvUpk1+2zZnqutvypLww/cJxUTqudTuW+sYALKEcuMMAKE+Lltgm2yHCVeKSHAs7v8ewDLpBGAhBcjgyRRpYpt2vIdLCakCd9MF0fIOCrrws0gLYsG/QAbEiwgfmBdiY5VQT0+A95JS1fPTmthsqBtDmgwEW9ABfW2oKBC2wTgdVFUwEXWHTopTyoZxmQp4pgUZvWZU8VqXwR2UxKI9oC/tezvGRdt7Ofb6Rrv/PbdOGD1yvikypw/rFXS/nr6tlOd87vMTKOsKtnW0V9mLUsNlr5Zw5to1X/+cd08n/8g9Tm+bS+J2mWAyWiGf+gyEtwoxnbqG1SDjQiByxwsYWu+1Cv4jyoDcgBiwtrbTEqrC38wIU8ClW3iuhWkbxfWbF4lL+4xt23YrrRy5NFeVMJX1T58yt/lYAp4GmcDMv4SvpN0uH7RqE3cfAITd33QCyPkrZDZdcvu2nIn/rCyMYXxld/8DUa+//+hibXrIsdP7WeD3799meEi8txw6TjN8t0zQhcuFsnGlG50zorB5qVAwa4WLGFrtMrOQ8KgjylgxshcGG3ibC1hc/iQoGLHFiR5YfaXVz4nrV+9WUSjP547cN9dMu8Hlrc/Rmt3vwF7f/iYt6CsZJ+U+XPr/wpcJGNYoZ5Kak8q+z6Zfe+hZsy+TV+xtxVeXOTfmeSy3Oe3I9eoalfPUOT774f8HXiyzOJx0cevZgfTUpJ9/baAzTvxS1BfRq1f5sNuMAWCdeHRrMqgNou5UAjckCBixqANnnARmEwwwIX0rfFmNkigm0i2FoG55zWv8UEKXChwEXDL3R8CzQ3rpQFoJvX9wx6h44P0k0PrzKKyI8fWW1AjPY5K+kXT/fRkvd2U8+WYxUtZFX58yt/ClxUoHDFKEjn+j6giS+OF5wLMA6SjiOV3erLrsp9cvlLKqflpLt68y1Ev/3bdO366TT59juRMVMOPd/3heOS0vtw006auWADnblwOVIfpsNhUnpZpms24KIRFTmts3KglTigwEUNgAvXeiUCZERBjL9a+ykdPHExt0XksjlJhC0tFLiIWbTjo57lh5oXFYVCrV/9WVygv3btP0ftHt8VNzy4in7+dF9FcqXKX/WVP/C00Djjd6023ia+9ac09cSTRXmTlC8qu9WXXQUusvtOX1o0PxgbE1u308S+A8EzzxkIk46Paqbbc+i8Ac/3HL7grVPW9SuVLwpctJLKqG1VDmTPAQtcbKbrVuhleVBjIMMBMZ7YcZCOnWYfFxa4sICFdMypFhd5H/hqLiRK/VDLhUXcvdavvoCLY+cO0dY9p+mVFXvp9ifWESwuoKzhunnuGmNxUakcqPJXfeUPPI0bYzK+lcbb1H3305W/+I9V5YvKbvVlV4GLdIGBiYEDdPWee+mr3/s9Gv/Ot2j8wmDRMZL2vAELi5nz1xMsLuT8FXefdv24HqWUq8BF9oqc1kA50EocMMDFB5vpOr2K8yAW3CkP7Lih73M6fPwCDQ2PiGNQLWCBLSLhiSIMXEzqVpFyPqycp1BYyoe6EB1+p/SyBy7wi5bZR/zCFmNl8eiLn1D3uoPUtXo//fhhC1zc9PBqWr42/DWukn5T5a/6yp8CF/njaHJ5N+E0EZ5rCoVJ5Vllt/qyq8BFusAFxsHVGbfQxCf2dJZC44LfJR0f1Uo374Ut5ptULXpZtUOWq8BFK6mM2lblQPYcUOCiiqBNHrDhBzT+qmcHPbH9oAEtLl4aFqAFbxWBjwsJXEzkfFwwcDFFOFFETxUpsJVEflj5vlDYTAuJQu3kd83Y3qMnh2jlx0fpl69tN1YUsxb206sf7qVte8/Q8XOHAkUP/iygqP3owVXGSSfzBGElfFHlr/rKnwIX+cBFpXIq5Z3vS5fdU7S4vY1mTstd7UtpxUCZ/d+/lOZM66BlZeRfsXA6zZzVTwAJls1qC+4ZNEDcnIWnzHuOiw/7qXNaG3V2O+3I1W+JKCuehpO3jDaBtsp9YbmHY82pR+bSV3/4hzT1wkvB3M7yXMk8zjRkWA168gSRatCrdv3KpafARfaKnNZAOdBKHMCcc+TYOb2OnacjVbyOHj9PR49f8F77j52nL05dpMGhYRoZ4SNQJWjBVhdXCjrmVOBCgYuGWLCVuyCS+Xz3MLuFyS0WhDC/hbMz3PftOEFnL4xFeCMXirc9vpbglHPzZ6ciaVCGTOcrk+N86UpX/qqj5NRaicqSvipwoQI39cDsQF598seyKcOk6UqTXavgS0DAAAjlghfdHTSzTOBCghXynmW2NOCCSAIhkgaDIxxX61DlPpR7nzxP3T+Lrv7DD2iyx3+UaVK5Tyude4JIWuVK3uG+FuUqcNFKKqO2VTmQPQcw55w9e04vwYNz585R/nWezp2LXufPn6fz5y/krot08SJfl+jixUt06RKuQcKR0PYapuFhXCM0MmKv0dFRwmWPQB2jUhxzTk1dpba2Nrp69WpEkNoiT54HZJJ/qAAqhIoNDQ0ThML94FX6XIsPZpI6tVq5u48OJOq7RuTLyOVJ2rbntLGigDXFLfPW0BNLNxori6NfDhVst2zv6yv30acDZ73pZbpC8uVLV5ryp6BFEuVPFTirwE2+uZy++trXaPzCJSO3PvnzyWvSdCXJLoCGPJDiFK3oPpWzupDWGNNpcb+VdQsKdBirBmOpYSwlLAgSPucsJ9iSQwAaBpjIxRurCAN4WIsPPBcDLkz5TDev/rnxmGf9EVphREANk44tTqy1SOS95FEezeJjX+VeABe5o0yvff9vAsV74tQZ7/zNYyCp3KeRrnf7ibwTRNIol3khw1qUq8CFXE3rvXJAOVBrDljg4iydPdvsVzFw5jydPeu/GLCIAhUWsLhw4QLZ6yJduMDABcJBAVoM0dAQXyFwwaDF5cvhUajsmBNHoPJlj0LlbSKTwTaRhgMu8NGs1jV7UV/gXBGLPL0sD2bMXUV3zu+hrp7tVeN1tfqsHDqb9+yh11ZupYcW95o+Rvjqyq2E+HLo1TKPymT1xyGOr73nqbV0+xNr6MePrKIX3ttSd/1eS5kC7dPHdtHV/+X36eKrz9es7aUAFz6AQIJQkffCmsICB7ktIUaZz4EaIk3vQD8tC7ZqWAAkBClkXnsvy5L3XB/EWcsQABAMogi6eVs5nHcCgAiBCUlLWGkIgGLFwg7qnNVhQRtBg+tVLER/1FquGoH+uY0r6Kvf+hd05S//nC6+/uuG48nmPXZbYj1+r6rV/wpc1FpNU/rKAeWA5ADmnHzrAp/FQTPHRS0pGKhwQwtcwMqCLwYvJGjBlhYcwtpCghYhcCG3iVy+DGsLvkLQYnzc9W8RAhewtGhZi4tSFtrFFonN9B58WfDqdrrxoVXmwv2JMyN5v05h0SJ/iYm7TzsdLCfgpwKWFLCoeID9VOw5TbC4cOuZdv24/FLKHTh6kVb0HaYnXt5KcAYK3xpvrz0YaUsSep/sPk23Praa5r24JZKX6yRD0Dt8YpCefmNHJO3LH+yhR36zOYjjcldsPEI/ebTHa4ny81/10U8eXW2cyp08my9LKPeJJVtNu/6pY6Wh0/H8x8YyZu0nx2jfkQsFt+7Iet/3zEYjt5Bj98JpMDv2Vd9SRpbP98wXfo4L00o3NXtO0GeoS7XLLWU+DRV4n+WAo/gPhEq+yRdYOoTxvRHgwtI0IISwrogrU4IV8p7n9BC4EJYcQR189c8BEbk0Mn9Qh4i1hbS64DaBBx20rLvD+MtAPrmthutWKER/xMmcjK+2HNQDvcklS2n8vLUsQltxWgi3uR7qx3VxQ3yfpC8lPkEEFhdu2npuB+paSv0UuJAqld4rB5QDteaAAhfFABmAGhciF7aHhJYWuJeWFq61hQQuAGDkbxMZHWXAQm4Vsc45rbXFRHCayORk6JhTgYu8X8v8C9FCC8RmeycXvB/0Hqa7FmwwCuDdCzbQB30hWFHKwsRddPmey6V39sJl45NiMfxULNhgfFXATwV8V2Dh5ytLxpVbrqQh76tF75k3PqVHfrOFfvTgyuAEE1bEb3hwFQ2NTkTaVqzcd9YfNH45QAPgh6yz7x704Jj0ho6V9M66ECR5fMlWuuHBlfSbdz43NLjcjZ+eNMADaD/31i4aFvVb+OZOI0MzHllNqPuDizYR0styj50eJoAW3EYOQQ8g2oO/3hRJz+VKGnw/67n+CB0APSjz4tCVCA1Oj7AQPU0nzO5j/AKhvxLPhV4LAgYsOOS5mJX5KCAAy4rAAkICFzlQwCr6Ia0ANHDmfAlW+NJI4MG2z9LE1hSUYfILgMSkCaxBRB0H/JYVLs9Ar7O7nzqxDQZ0Zi2lxe1s6cE8KR6iP6Tcxt03k9xfvefn9NXv/T5dmzaNDHjhkdV6bi/mv9dWbQ36jU8Q8fVdPbcD9S2lfgpc1FpNU/rKAeWA5ADmnLgtEq0SX9yyImphwX4touCF9GshrS0YuGD/FmxxYX1bjI7yNhGEoVPO6Kki4wFwwaeJYJtICFxck11KUQcWkVf2oRl8XJS00HYWu+5is5mefQteWFy4VhhZ+cLAL1I45QNKNfxU3Dx3jTkFBFYW0k9FKQsn38LQjUubHqwU4AAU/eFeS97fEyxuuZ5x9bt8ZYrmv7rNABBMBwtkzhcXgt6MR9YEZQNYQFpYLYAO+I56cLk7B87SLfN6zDsAFLC+YHBi8+en6OZ5qwJayA8wAqAE6sb99vxbuyJpUH77nI8IPkUuOKADl+urP+R1xtyw7gBfUG84uDt/Kep0lfMXosdpEDZSuomDRwi+LWT9+b7a7UCfJp8HodDzFgyrhBvQQFgpBM4sBSgh0xQGLuSWkNwpH4KOAQRy2z4kcJFnuZEDQewpIahzjm7uBJJCVhAG8GgPTywBb0JgJNp+2S7cz2lnC4tTtHjW9LJOTEF/cF8XCqstB2nTm+x+17QT5U798ilzlGkjtvfAF5cI8+YdT/aY9sgTRHztSZvPXIdalKvAhWeRrVHKAeVAzThgLS6SbZVwFfxmfA63gTBY4QuxReSiuUKHnGx1wQAGO+TkbSIIcYpI1OJC+rewW0UAXtitIhyG20UmAv8WAC0YuLh2TYGLEhbdxX/tSr6Arz9axRa80goD1hjSCoMXNzKsxkJn7+EL1L3uID364haj2PIvUXsOX4hdnFej3Gq3o1R6p86N0qLuzRHQAQo/tnBIWrj3tffQ8UFjgYI+lRcAEQAaLg35/NHmnQEQgS03c3+zxeSRdLDQhs8I5Dt47FKQntP8+JHV9OQr2+jYqeFI+Xh/00OrDDBzR+c6Gh2zW3i+PDdK7aKusM5Yu/WYt56+9sr6w3kqLENQFkAU1O+Fdz43zy+8+zmBNzJ9MXqctpHSXfvLv6Kp+x6ItLNW7QCfS5v3rPLuPw41tGqYGfiVKGBxkQMYLNgh8rYvpcWBj4pc/px1BIMOBjQQR5jyM9eL05m2GfAj4fGtubQW9BDgTO7oVQueyG0iuW9BBCzxOwxNwmf0B/d1obCR5JnbIY8yvfbt75h2NmI7uD0IP+o/YoCLGY+some7Pi26na/R28ttRzsUuKiZfqaElQPKAQ8HLHBRbLtEK7yPB29cp5xRS4uofwv/aSIWtLAnisDigq0tbBj1bxECF1HnnPB1YR10wupCgYuSF9r1BzIkWcCWmibpghcWF64VRrV8YbCfiqde32GUYfipeGXFXtq65zQdO3eoaRfkvJjj8OLQOM17qc+ABmzNgC0P/F6G7kJ2Rd+RWIsNAAIXBuO3TYDu/QvXR8AGgBDvbThEN88LLRksKLCalq3eT6fOjxoLCsTxxds8ABzc/2xID8DJO+sP0eDweF5bnn1zUwA2vLlmP905f72xuJBtxb3bXvc9nt9ed5Buenilse7g9+cujtHyngPGAmP+q9tp+157ukASeknLrYd0U4930rX/8O08/jIfqt1e9Hmpc42mr903Bf3BfV0orLYcpEFv4sgxe5TpmvAo0zTK9fGxWuU+s+zTYN6ERdyzXTtp3dbjBvStZblMu1rtKIeeAhcezUqjlAPKgZpxoDWBi3iQIt+KxPq34O0hPv8W1scFW1qE20QuXZLWFgxeSIsLuU3ksvcoVGltMTnJJ4socGEWCbpwzl84l7PgzbPC6C3dFwZ+4YefClhxQFmFqSyckrl+KrJcYPGirFBYrfrBIuAXT/fRSx98QgAwsN0B2zO2fH7Kq5C45cInBLZZoD+lFQOeYe0Q5yQTbfviy2H60UPWWgHgA/LgwvaLWx9ba+4Rj/rg1A7cP/fmrsBHxT/NWUn3P9tPH+/6kj47cI76d35JXT3bTD4AIG+tOUA/e3I98fYTyc8DJw8Q8oPm8dPDBmB5+o1Pae4LW4ItJUjvtlfSkPfPdH1s+CDj+L5nyzGa/Vw/zX7uY3pv46devnJaDpOWm3W6iWMnaWJb1LEqtwFhtesH+dD5NH8+zYon6A/Z33H31ZaDqtM7O0BTv3qGrn396zQxEPracdtT9XJTdj4NcJfnWQ7hmwcgBubBZmsvtwf9psBFzfQzJawcUA54OGCBi1IU+dZIG79lJNwmgu0i+Y45AWDwNhEOpX8Lv48LPlHEPQ6VnXOytQXAC/ZzoVtFWsh3RdIFdCUL3kp8YXRv2EEffXyUjpwcyluk8SIHYaMvULkthdqxdfdpAxKs3vRF0N6fda6nWx+1+5+Zhgx99NhB5mMvfWIsDGBpgf7FFg93q4Sk9caqgQCcgG+IB57daJR/gCfIj/C+p/uoa/V+Wr5+u9kO8lbPAeOcE1tZUG+c7rH5sxBk+fTAXvMeYAzKWrHxMN3/zMY8nxNox+Luzw14IeuELUmgjV8hEe9rr0zP90iHLTf87Au37TlNjy3pMzxaXsAPBvKWUq6vLDeuWehBLpLOMZqu9gBHJfO4K6NZyv34n/0Hunb9dJp8+52CY7iRx9Hx0yN51mqYo3H6E06Cqqf+qAWfFbjwaFYapRxQDtSMA5hzWsUJJ7cz36rCD8bkgxf2+NOo1QWDF67FBSwvillcYKuItbpg4AIhbxHxW1uEwAUADPjZVB8XCmAESke1Frx5VhjiRJJmX4j52ufGxS0A4WQU2zGgTCMPp8O2nMXdn3kXsTKdWw4sHmDdcO+v+swWiX+a85Hx/bD70PlYWvil72dP9tDO/Wfp5ff30Icbj9C5S2N022NrDYABS4pVm46a00O4figXVhIAOXAPyxAGKbh+AB66Vg8E5b61Zr85WvVyzscFp7s0PE57DufXDz5N7n92o/FV8eXF0KoH+eIuWb+4NFyu9IPxoscPBqcrRIfflVIu5ykUJqU3cvetNLG/+HaqpPSSplPgovZgRCmAT7XmcZbJpHJQaTqcBjL12BPBeD776frgnuviCyst16WZJr0N244bUBZgBazj4IsHc5FbJ/mcZv1qXa4CFzXTz5SwckA54OEA5hy90uPBiVODdPL0EJ09Zy0vGLiAk86xsfBUEYAXPmsLeRwqThYBcAHLC/mnp4q0MJBR7QVvLX1hyAWVe9+IC7vXP9pnrBCk881K2/HUaztozvMfB05U573YZ05jwcksLs/4ed/RiwFgAqeoy1ZZsAFgBYAVpIMVA8ybZf1WfnyE+sUxp9i3jZM8TPqc6TVACS4H4dIP9tD8V7YFcZKeTMf3V8anzML+F0+vo71H4p2zcvpi9Hzp4vxgIG059LgMX1hNepNr1tK13/0dwmkivrJkXDXLBV0FLhS4gByUK1dTT/2Kvvq936Nr075Lky+9HMhvufSkrMv7eqSH46IB6mKuPfSlnS9lnX339dgOWc9S6pcmcDE4OEjt7TfTN7753eB6970P5fqX8Pz004siceU+HDnyBf2wfQYhLPUPeaZ//2+DeqLObl1LpemmRxm333EvgS+1/mPeb9+xM1FR6IMk/VAJjxNVRBM1HQcw58j5Su/jf/yrFm+ujF8lWIGfOjNMlwZHjNUFW1zwVhGEDFyEvi2i1ha8VaRhgAt8DKt16ULbv9AGX6rFY5dOV892unO+3cuLEH4P3DSt+AzrgQWv9dOjL/XR0TMHq8aTbQN76dbH1tCND62kL86WR/fdvh30zJsfe+s067n11Lfrc+879CNAK/yC+PmRgdg0SPerZR/TU2/0F0zjysX7Gz+lHz24kt5cu72kfC6dYs9o/33PrjPOReEHo1j6LN9P/m9/RIPPPJ5JHXU+9c+npVhJVDMt+uPAyf2ZyELSMXDx9V8H9Tt9Zh+d630/eC5EY/aiPgOUoY16VYcH4GkhntfyXVrABQMBUvnH0XsPPPCwuXCPv2LARVrKvlsOK/6y/pVqlG4Z5dIDwFCsXknSlFs+wBD0I/dhuXQ0X2twQIGL2gMVcYDH2JUpA16MjIySPFkEoAVvF5G+LaLWFtZBp1pctLB1hW+hjIVgnMDJeCxk5HPcvS9dJb4wfPR8ZTdKui/PjtJDizfTi+/u9vKzknYsWr6LcHTsyx/sCWiXSg9bPqRFhOT122sP0uJ3Nge05Tu+x6+IcK5ZrFxshVny/p6i6Zgu6B09OWS2msCyAw5M+Z0Mi5XLaYulw9Yd8OGnj6+hYn4wQLMYvaTllpJu8v0VmZSLOmLe8M0nGpcNoIH+gEUUnB1jfMBHDLaH8dHDpcgV0lZLnvko06l//a/o2nVfp4mPC88fvnJV1qovU2l891nmZIj+TQO4YIDCp1zzO7YEqFfgAiol6pjECiGp+pkWcFGtcuLaBVAHliMoR/+UA8U4oMBFdsAF5n9YXpw7P0LYKmLBC7tdJAQuosegSsecDWdxIT94cfe+hY4vrS5+/Iuf+xba4yjBnzSvGXNXeRVPt++S9m8jpPv84Hnjf+Ld9fE+CcptB07swJ7pWx/riTg8LZUetmN0xBzBin3YMxfEOwzlvoOjzjVbdxXsX2wBwckhL6/4pGA6pinbgS02M+evD4425TQIZToZ794nTbd9/16zVQVj44V3P6eDx/0mh0npNUs6nU/982lWwA36AzL+xZdDBB8KS97bbbaMIR5bx156bzet33acdh7aV/J4c8eOfI6T54l94RaIq//wA7rwwetll6uyVn1ZY3mRfem7j+tfN20p6dIALoopzhKs4HuEvKWEwQIABxyHkONlWsQzCCIVagZI1vSsD7arYCtInLLtqzPXjWm9sWy52U7C1gZslcF1xLYYxPGf+x75eatIofI4P9LI7StvLX/PWDpweXHt4XozHQ7d+oAO05B5wE+0sb9/c8B/bjPTqqVFB5ehYXNwQIGLbIELbBuBzwsXuMC8xltFEMrTRODbAqCFAhdqbVE3v5JmuXByF12+51IWYr78btyHm3aabRR9O04WXMCXWy6sFzpf3kq/fG17hH6p9GAdM3PBhggN2Za7FqylA0UcycFq456n1sbSYHoXhq7QL55ZR++L43T5nRu67cAJJj99fC3B4adM66aT7+R9qengrHR5zwFzEsn8V7fngSal0pN18d3H0jt/ka7ec2/Q5th0jgPTaqdTZbL6ymQloEfcfHr5yhTBye2KjUfo2a6dBni8ZV4PPb7kE3NKEE6xOHtxLJAnlsWy5GX0ij3K9Lqv09W7QxkFzbLo5WRYZa36shYnL9z/HFbSb0xDhqCXBnDBii8Wxr4/+Z5BCIT4Y5CAn10FH+8BADBtpGOlGoo5WwIwHQkmQNnmtG693HJYyUddmZbMy++5nqDn1gVlI79sF9fHLY/zMziD99JfB8oDkIC/YqBBsfeGiEMHdeeyUWeAGvzMZcpnmZ7paagc8HFAgYtsgQt8A9AH7lYR6eNCbheBxQWDFgpcKHChwEUFW17kAozvkyzs3ll3kO7oXGNMtzlfXJiEHvLKdFA8sBDFCRzbHSecMl1cmZLe0MgE/fjh1XmKDOfFVhF2wMlxvnD+a/2J0u05OkAz52+gnk+OxZYp6yfLOnPhMmHLyRNLttLJsyMmf6ntlfR89z56PVuO0ezn+mn2cx8H9falS0qvlHRX//4f6OpPbg14lVa5bh1Vmay+MlkL4MLtN8gLQLite07Tm2v20xMvb/VuMTlxPt4qTNJk+Tt2apjemfEwXfmLv/YeZcrpZF7fvS+dylr1ZU2Bi9BHgk8BlsCGT8GXypF87wMuGDhAHplW0uB30roBijvnZeCCn5Fe1pFpyfJ972X58p7zS14UAh8KvQMtvJd1ZfoydOsny3bfIZ9bX18aSV/vlQPMAQUu6gW44K0iYwRHnSFwMWmsLUIHnfnAhR6HqgBG5gBGlgsn34LZjfMtoN00eC6WDtsLHl68mfYdi1oG+Gglocf5ZLk4BQRWANJNwl8AACAASURBVLMW9gcKrS8dx/lCSQ/HnA6NTuTRQj4454zbSiLpsqPO46eHvXQ4LcqFBcct89YQjl3leDeU9XPfvbP+oDlSduOnJ4v2B+ctRI/TICyUjv1g3P7EOnp15VY6fyn/l2tJqxg9mdZX7tSvf0Nf/fEfR3jkSyfp8H2106kyWX1lMi3ggmVChsW2mBz9cigid8iLo0zHv/N/m3g44Gqfs9KAntv35Z9gVIn8qaxVX9ay/P6mYXHhKrmswHAolWR5z++R/9HHFhhLBx8tKM28XQIhWzFI4MAHNvhoyTJ5GwfHceij5au3TOd7L8uX91wO55F0+J0MKwUuCpWNcnygBHgLixOEcWlkHfVeOcAcUOCiPoCL8FhUC1pgnoGfixCwAIAxRT4fFwpcKHChwIVjSi8X8bivZKGN/JeGxqlz6VZa2LXTLOwrpRdXPzi9mTF3jTH9Xr35izzlopxyYQGBLSNumcwXOAH88tyo9z3nQbnsqJPjfCHXb9f+c9Q+5yP6dOCsly6n89FAHPLf+1Qv/bqI81DOX4xeKeng+2PhW9ZXTCE/GKBZabmTPesi/KmUHreTw6T0VJmsvjKZJXDB/c/hyQuHIltM7v5lL9ktJlvprQ9308T/9D/TxHf+jC4tmh/II4BTyAWO+sTWFKaFMKlc+dKprFVf1poduCikeLvvWFlnJQehVJxdJVu+Q1r5Pk3gwq0H6oK2AXBBnXzvEccgi6w3t13yohA4UegdaBV67/LfV7av7m59kQbl6J9yoBgHFLioF+Bi1FhasLWFz+KCQQu5XQSnijQucLFpNs2c1ha95nVFFkhysSTv3cXPioXTaeasfr8C391BM6d10DIH4OA8HFay0IzPe4oWt0fb2Nld/YVLfPmyLFsXX/nLZkXraPqlfSmtcHgWV45cOB3vup5mdvZ5+9G3kJX9yvf1lO7Q8UGCg8o3Vg4EbapV/d7dcMhslwCYAIeXzA8Oyym3Y9HHtO/IhTxaoAl6z7+1i1ZtOup975YLPsAfBce7oawf0gGEGTh6MS+9TOfS4GeAOL9642NjEQIwgeN9YRJ6yFdKOtcPxjZn206p9Hz1duNKqZ+b1/eclJ47n8aNc42X82nt7uV86utXjkvav266ybffoUtremnr7tP05ur9tOShV8wWExxzjVNMVvQdNiHqgetHD64KQFuU7dLj+rihL53KWvXlptby4vYrP6N/07C4gCIDRRdbL6Dg8h8rzVLhhbLODiKRDuCD9A3hKsxSuUd6PDMYkCZwwfVE+fyHe/aD4baf2y7r6rYTfGDegG8uX5L6uJA84nK5nqDPZXC9mY8cj7J9W2WYBtIjrXyWtPReOSA5oMBFfQAXoXNObBWxJ4uEzjknA0sLCV4AsGgC4GI27Qh+Le+j56d9j1YeK94ppS1+fAp7P3VOayOfEl+9xXkOtJCASv9SmjNtOi3ur/7ipXi9fXyw9TDAhaxnQsCCy5QLpx2dbU0DXGBhD+V71aao9YNvQc6LORmWmu6OznX0bNenEZCkEnrIi2NA4bRP0uF71K9/50nqXLrN+16mwz0cdf7iaT8ohfdue9dtPU53PrmecEoK0/Klk+/kPegBVIF8rXb6wE0nn+Pu3folTefzg4G85dCbeqKTJl/1n8pQDr24NpRSv9Lm0yzmrtYqU86n1ehflqupR+bSV3/4R+Yo06lfPRMZkyhn1+F95rQSnFoCZ7mwtkBdcP34kdUGRDx5ZrQsued2qKxVX5ZrJS/cZ3Eh5Cot4AKKCyv3cluHq+ziGVYKUPg5nZsGSjLeIXRpIi9v8UgTuPC1j0ELVtoYvEDdAULghBOuK9IwQID3yAunowweuO+RhkEgpiuBDS4ToQR7JHAhywM9vhAPnnPZeEZ9wFtOw+9AHzTZskSWq/fKAR8HFLgoriPHzdnVikcf8FYRWFyw1YUELuQ2EQYv2Dlng1tcxAMXRgEOLDLCdJH4nLItrSak9QADE/K9UbaFFUbknQEW2PrAWmlE3iMfWyKYtDaNLDOw/JBpBRCAtFyvXk95vQM5gGEWLEVsXYL0AxZwsfEMgMj0uTjTPm4Hl1cucCHLlJYrMv4HFoASVjQvbMLg6qMXgj68nrr3HzaLZWuVMdu8e6zrRN4CmhfaxQZZLdOt3HSUbp67huD7wK1HLcqFgj7/1W0EnxTsnLIa5S5++zOC4u3SwjPaAcsGLHzhyNOXhtPxO/wiG+fQ08eXFRsP0/3PbIz4jPClY/oy5HTwmwHLkeeX76KRy5N59eR0Mq/vvtJ00g/G8rUH6OCX4TGRvvI4jsud2LqDqK2NJrZ9mtcGpOV0nC8urHY6VSarr0wyqFtOWE1FFNuRWF4mP1pFk2ui25OkjHE6bPG6oWNlAFqgPrhufGg1Pb5ka0BP5vXdMz35TmWt+rJWTXlBX/n6TfYh3yNdmsCFT4nRuHQ4AKDBBYCSlszABQAK31+x9748Gte6HFDgol6Ai1FxJKq1uhgfnyD3RBEJWjQccIGPXORaf3ugmLOC/vx6TtNFvcH9Zuq+qY3Mu/1P0txpt9NNsz+iXqPEW0U9ABcEIGFBgZyiLUAGLCQBHsxZeMpsLQnyCnpIE8SLvCsWdlDnrA5rMcHAhHjvrZMALaKLWCj+DD6I8nLABQMgph4GLHGABy7fSW/a1x1umwnawYCIZ6tKBHgxQAPXy5YZ4ZWoC8ff8KNv0cybnqTdlw5T77w2mjmvi05dEv2Gvkd/59LsfuV7NHPa7dTrykSdPL/4/hb6+dPr6NODe6MyW8P63f3UWnr+7c204PX+qpb50gef0GurrLIRGX+iLY++1Ecrt+xMVC476vz8yECi9Chz6YefUMeiDYTTDeLqkCT+192b6a5frqX+z3ZXRCdJWYXSbN+/N/CDAX8YOw4kk5OJb/0pDT1yf6Z197Vr9qK+PCWVlVUNrdKeJh/QH75+Shx3doCGOh+kyf/rT2jqX/+rkmjtO76fZsy1lhawuPjRgyvNsas4gWjtts/oyJmDlJW83PvsFv920NhvbPVBgug3vD7oQzYTy4aY96uRR4GL1lAg2TIFIEOpf4WACVhzyGNaS6Wt6VuPAwpc1A9w4VpduMAFHHVK/xYNB1wwSh+E5tf50JICv84/P62N7C/1tmOkdYWNP0ErZ+QsCcTWBlbOOcxfXEgFPAYwiFg/sLUCgA9ODxodtKy7w1hMoCyruFvaBnzx1InrEgEHkC62PFlXot4AoJAWDlw/AAxOel7EGRBH8sqmC603wkWXqZuoO9dZAjEmLgBpmCeWxg/vuYsem2b7MtwqIq0tuL52K5CxuJixhI4H24SiAxELqkBOYtLgfbXTfXnxsNmq8eTSbXRpeDy2DtUu98NNO+nRlz6hn/+qjz47eK6q5cKx3ssf7PHS5HZgK8xzb+3ypvHxOc5RJ9Pz9R3qgG0rPnq+9HHp+nacNJYwOH2E8xUql9PE0ZPv+T4pvQMnD9DyngOEk0jmv7KdfH4wIuWeOR/UmcuSYdJyNV10vmAeKl9Cvly7fnpwlGkpfPmw/4ix+nrx3c+p/9OTdO5i/uk6UJTDb0T4HUkSl1XeJHVr1DTgKY+BQmEpclCIDr8DPQUuWk9xLLXFhYCLUmlpeuWAAhfhd57n4rRD9MHIyGiwXeTyZbtdhLeKyJNFmhy4uGp+rTdbB44tocemtZHdRmDBCglo/HD2k8ZHBcACKOIMWHDoW4CYd7AWCIAAu+AK8gRKef5CDIp9Z3c/dTLgMGspLW5nqwROHwILBhxwyuE6FS/PASICOlGwgOnx1hK2fuBn3tISlBdYXFj6crtJ7YCL6yM+S3jhVI/AxZdnR2n28xvoxXd3F10EcjuKTRZJ0z2wcD29sXKfOWq1EM2k9GS6vh0nDBjjo8vpTp0bNc75fGkQx+nke5+jTl86mQdbPZ5701p2yPi4+zh6OCUFJusLXt1OZy9c9tbPRzOOnpu2nHTWD8bHNPu5j6nnk+jWnHLouXWSz0rP/+FuVb5MLnmZrv3ZNJp8933v3FVtvmQFPlRSbvi95O9184QKXKgypxxQDrQKBxS48K9/5Bqx1vchcMHbRS4bPxcMXPB2EXebCFtcIJR/bfLBdw+PnvJvdHSURkZGaHh4hIaGhg2CXu1GexdOhSwuDHCRs8bIgRgGuMD9jCV0g/nFJ7QgCJRzY2Ugt4dIcMEq/nPa2eeDXbgEeXP+IxgAMPE5fxa4n9MuLCxmTac5fFIJAI9cOgYNrFVDDiCIWDLIOAt05Jdn03B8aHEh8+YsMUwdnPQBQIH2yTz2vjSLiyjtkCfReLNVJGdBEVpc5Kxj+IQR09+3G18Y9QZc7D50nn72/7f3JuBVHVl+OPNlvpkkvcRJZtKTdDrd6aw9nUx3f//u6c5/Jt0zPaSdmfRm3JOeySS9TIa222bxgsE2tlltEJsAgw2YHcQqbIQNGLShFQltaAEhIRCSAAkkIYRA0ntP0sl36r5zX716dd+777173yIdfZ++usu5p6p+dW7dqt87dWp9ERzOCx+kkt4LrT1rPEPsyFVd6gYkLtbtr4bimi7txCOefOtb7sLqPVVavXL53txREdX2pbpAnbI+KrOaItmw/XiltjyqbCR9x/JbRRDBghprbxFZZyR9JBuPXM3lO8KzBL0wMA4G7k4yOv074GnSe71QnpjGk6+sh45Zn/4DP5lwGZs9B8an/zfw7t1v+U45Xd94CIRkPcvEhTv9Cw5g+Y8RYAQYgUQhwMSFflxD475EpAZxMQTIHwSWi4yAsVQE41x4QA3OiWTFJCEuaAmBPzW3Q5WWhMzaB2czyftiDMSklwI++kmBAPng977w3zcn//7lE8ZyDTnAZMBbQwxsgpZvSHL+6zTpVz0URP5KmWigZOQp1VMmMrT5BZMCAeICiYiAV8cCMz6GIk/xOShWxVYKKGrIUR2ofJiq9ZHvBecpYRJUFn9wTk+gfQwPGXm5iBKcM0WWipTU3RTr+9EzwekBvh19a/ZWwcGz1YI4idTh2NGHOmS56zeN7Vx1umW544VtkBVhSYmqQw3UKetTZekct3l9c0cxZOe1Wk60SNaOPlyeMS+zAA6fveKIPszbTr6R5Nq6BmD3iSbI/S8z4Mp3vw94TvWySp3IV9bN+vQf+HTGBbcyHfvVU8KWsB6e6tqE21WyyId48g3+pk0ebwusF+Iiv/dWx27YPRMXiZqucT6MACOACDBxoR/XWPX7blwn4gKXi+C2qMbOIkhcjPpJCy9QfAvV6wKdJ9LX4yLGX6ixEXgAk1oDr2QOnOy8lFYDNoyTgNt1oscF6rGSU/NwSq7hai8s3FwqAj1a7dQh5x1LvnfvDcPzawu1A1tZX1vnALzydklEObk8XT1DMHPpGejyb3cq65Pl1OPr3Vdh8dZyOFkSPpZJNPreOXIRMnZfgBu3B7V1wDLY1eeUnPfYBzD2+c/DkePF/jgYNZZxMJJRPmoXp+rL+sIPKOLB2Xs2Dya+9KXAVqZDwwm3Z2rfeL6/yXqWiQt3+j8mLngyyQgwAolEgImL8OMM+k67mRrEBXpb0FIROcaFQVoYcS58IjinTF4wcUGBKDmNOViaEwO6dCQuMJbFip2VgPEd6AWPZ2JBOuQ0kr63D9XCR8XXxORfLCnQkHnR6CNZOd+RUYPoo3tyKsvh9Vc3lQBuPSrL4LEqJ98XgTqPGtt7hpOTn0E5jFOxYEOR5VatkfJV9eH5qdLrgDshnKvWL7mJpnyyfqtjO/q8eQUmfkYcjHJtHAzMw44+lrP+aE82/HArU9n21PNk1Zd3FeEfDqgfYuIikVM2zosRYASYuLAeA8njBTePwxMX4bdEZeKCCYukEhZEeqQTcYG7hWRmVcOW7PqgSQENxOy87E5MGFo7BmBe5jnAif+WYxUhZdGVI9Z8n19TqN0dQNV34HQz6Dw/VDm1bBSoM5IcPUdySJLMWZUP5xtua+tPcvScVSrLNV/vh0VbysQyDSRt5GdkOfm6euy2nDYOBhMXQW0lt4nb7SHnJR8nK1/cynT8D78pPCx8u/dOKlyi8rgQMasCyyx1yxzpGxQplZeTRpJV7+NSSmPZaeiyTIojFU/Z1PyiPU/m95eJC55IMgKMQCIRYOIieFwrj1kSdWwQF2qMi2EpxoXe64JiXIyPjweZTHDkzaBbxknKBOfU/Lpsd6AY1eCHyQ3XyY1kDpzsvKhkV9f88R6OnG3RTgZILpJOJ+Rwh40Pi67B/A1FUH0lcuBGLFOs+b7+bhlgrAu1Xqq++ta7sHx7KImiyql6KFBnJDl6TpZraO0VHicXW+5GLB89r6ayPryHcTR2nWiCxVvKobm939Sryql66DxeOd+OXTA276WI+VIcDHx/MB5G7dVm8xkqiy6Nt3yqTtanHwgkEhc5VsXQq8+bW5mqbSWfJ7J8TuVr99ttxI0KjakUK0EQPo5TOA8KmayQj+kZ69hR0RIQscon8/vLxIVmkM2XGAFGwDUEmLjQj1fkb7Tbx9bEhRHjwthdJEBe0FIRTJGDYOKCiQnXiYlIA6pkDpzsvKA4wK++3AOzMvIht+KG5eQwUROBzp4HMGtlHhRWdcLafVUxExJWdVfrsWrPBUBSQpVX5fD+3NUFcFtaPoPXdHKqLgzUiUFG1eu6c1VfZWM3zM7Ih5Yb94KeV+V0uvCalRwuGXn6rVw4XdYu9FrJqXrjkfNcawd47DHw5gfc/CPpw2VCHxRchefX5sOGA7Vh42CEq6+T9VB1cb7Wg4VI7UtY6uS8+7LEriDjT/7EtH2dHOmQ03SUs0dcWJAB5d1wtLzb/72TA1UTwWHsHJa5ZAbI232LANf+4NmC+AgKik3eFEhEGPnKzwYCb+MOZZGJi6Bg3HIgbhfHKcn8/jJx4dr8jBUzAoyABgEmLqzHIvL4wM1jIi4wOCfFucAAnRicM7CzSIC4oB1G0s7jAgdZTv3bG/zQLyKcRiIe4r2P7eFU27qhJ6e4DmZl5EJRXWNKlHN7TiXsO1UFy3cUQ15Vg+tl2nCoHM5U1tvKZ9OR84B4RdsOl260iKC5Te0tUT+LeZ0svwgvZuZDrM9blbf+2hWB84aD5XC9py2mslnp1l0f+f7jMPTKczHn81HpRVi0pUj847EuD77m3LckmVj2lp6C0T/9YxjYvmHKtLOtb7cgFuStzNVveDCBIMgFsSV58BbjspeFfHw6pxxOE5GAy1Gkbc/pOLCbl5yXfExlMq4FCJFgEmVnOcm5lybz+8vEhWZmxZcYAUbANQSYuEgN4uLBgyGQiYtHj4i4CHhdGAE6kcDwiZ1E0o64sMP+4CDSjpytwQ8NTDh13SMD28NOu9ltXyflcJvMhZsLtUsl1DI7mS/q1unDXT4QL1xegTuKWMmpZYtHbv/Jy/Cx3+tA1qsrX3n9LREDJJKcfJ+OD52thnf8gTrpmi7V5Ytyp0uvw6J3y6BvYNhxXA6fuQLz1hdAbfOdiLZqVT61Lm7KWcXBwDK4ma9aR/mc89UPGOzicu/IThif8SSM9oUGwJ0qONv7dhueE9aTfuW+IDqQMDCIC1pOIse1kIkLQdTLXhd+4gJl1C3UyQvDXowLg8QQHhsJ8rbAuiTz+3ur5wF4fcHrlV2bsbBiRoARmNIIYF+DfY78veRj/bjETVyQPNIRFyMj6HERIC48HsPrApeIIGnBxAUTEq4TEnY9MZI5cLJ6OUc8YyIA5/qsGmi/02aro7M7AYlH7mhuC+w7eQm2HasXu2Bg+ePRp6u/qg8DgGK+qqwqh/cfPPSIgfDgkMeU18mpuvAc5ShQp+4+XQun7/38Vli5qxIeDXsdxyW/ugFeWFsImAeVRZeGK58sL8t5buh3MkF5WU5+Xj3WyalxMPBcJ6fqijdf1hdfu6n4TXz96+D9+lfBt/ldGH044rj9qfnJ56lkL/aIC8mLQf7Om94R8REXgsSY7veMMHUCRCYudDK6shoEChIYRKLY/ZbGIpfM72/vvUcw8GBkSk+muPKMACOQGASwr8E+R/6+8XEyiQsjQOejR48APS6IuKDlIuhxQfEtmLhYeiZlJu2xDDQm2zPJHDjpOi2M0YBbneKWp3g/VQbuSApgnI3Gq71i204iB9wuH27DuTOnMaSzt8oXyZ6yi7dMeSs5FXuUo0Cd6j35PJK+/acuw4YDNa60253+R7DxYC2s21cNt+4OmXWMpnwkK9dj/Dt/At49+xzTR3lQSnEwXlx3DtbsK40YBwOfk8tHenQpy+k//PHggluX+nbtMe3Bm1/I7eExtma28/0LH5zTIAvIO0JdKkJkgZXHhUxQCBLDaqmIIDes8vIv/RA7n/iXtaAXh18XeWpQWezUOVaZZH5/h0e8cLP7PmDKf4wAI8AIuIWA3NfoxjF8TT+OcQMXw+PiAQwNyTuLIHExYnpc0DIRIi58voDHxdhYsJce7yoi/0LDxwkheJI5cFJfykvX+uCl9UVwoijgZRHPBETVj+ex6sNdRN57v0F4P+DknHTHqo+eV1NVH5IJSAREkqP7uRUdwiOEzlV9dF1NSQ4Ddeq2VSV5kqNzXYq7rmC8Dd099ZodffiMLIf2MXtVfhBBQ3plObqmS0nO98YiGP/Rjy3LSnI6HfI1u3IY+2LptnJYuu08FFR1Jixfu+WbynLoUTH+zW/CxH/8EvhWZAS1zWTBZen2UuGVhf2+m/9PPf3H/iCbxpaoLy+5IH3PAl4NC8h7IsxSEYMI8XtACLLB0Jm5NQuWmc8bHhVGcM6At4ThoRGIuWGc67dppXwSuVwk2d/fwaFRQV7gr6G8bMStaRvrZQSmJgLYp2DfggQp9jXymImPE0dWyFjriYtHJmmBu4oQcUGBOWm5CO4qgt4X8h8TF0xWSIM79wKCyb8OJXvgRC9USd1NMZAurbsZ1LmlyoRhXuY5aO24B8+tKYT2W4NmGd0uH24JGs02p929D2HuqoKYy9fVMyS2OO2yWItot75r95eJZTXUvlapXX2qHG7FunBTCWRJJBLmocqFyxd/SZ/44hfBcy3xu9XUNN8RhBR6YeCuJOiVIZc1mnrIz1kdsz79IKG35KSJu6e903Ir08mCH/b3cv8fzXGyno2mjOkmmwrfX/w1FF24cf05Dmr5nzFgG2AbcMIGsE/BvgX7GKuxCV/Xj03cwgXb9cED1ePCIC5omQjFt1CXizBxwSRFzANIJwdnqTBwwl/Q568vAvS4UF/WVJgw4Dasbx+qhfwLHSKVy+h2+W7eGYIFG4ujwuXN7RVwscXYQjWW8h0vbIN3jlwMyRPrbVff7XvXIWP3BcjOcz4mBeGPy3fQCwaJnbZOI2ii3fKZcgPhg0WZcp7wH5dY5XRxMKLBOdZ8CUM1nSr6aCvTsX/xe+BpCXh4qXjQ+WTBJVnkQzz5Ovm9SzVdqfD9JRvXpXbtPlGePIiX/L9wi+zJk5gfeyLZ0ODgIMT7T20xMuoDq3+cDMr/j4Y9QP8PH40C/g89HBH/1zt6obe3T/z39fUB/ff29pvHfX394j5ObCh/R9PaW/DDF9vhhy92QM5N/J4+gJyVeN4OP9zdB9W7/ccru6HT/73tPN3hf8Z/TzzfDj8kmZvdME/WSXnQfc9YiN6AzltQLX3Xdfmb1yhfSnfTWLUPNvuvzTsdGEuE5EHlMuvuH0+o1836tMPmWhpzBOPkaJtI9We9hPfkTmXiwthZBGNcEHFBwTkD26HSchEKzskeF0xeJJ28SPbAac+HTSKmBca20HWcdgdObsq9trkUGq72Cvd+dWcLN/NFPDCWxrMr8kKwCZcvEg/kiRBOTsZblbMK1KnKyTrkY5Trvz8Ci7eUw8kS6x2HotEn65ePkVhCO86r6LBNrDiRr1yGePXJcTA2HKiFoouhcU3k/Og43nxJD6WTWl/vPfM9Gv/e4+Dduz9t7YXai1K77YbvSaSJl9X9ZD1rVZ7JcD3Z31+yH6vUrl3FI2fLrqQlQrQcaIHbu7/Iu9dM9y8vMuOgWJMk8ZIW+Dy1hxVpgddl0gKPibTANDbiwiA2EkdcjMGoNFE3SA2JlDAn9QaxgZiYRIJJTAQm9Ugc0H2ZRKBrRHaY5y+GJy4C5EM7GPoCeSHRYrSRPeIioItIGyYuyMY5TSxRQsSFurMIBefEpSLychEiLjDOBXtcMGkR8wDSyQFbsgZO7T1tkJlVI3YPCddxxTMg0umNVl9J7U1YvbcK6q7cgSVby80BBemOVh89Z5Xq9D2zIg8GHwZ2CsFndXKkE3/Ff+XtElHWcHIkr9NnFagzWn3CY2RDkWU8h2j1yWWWj692DgjPi81Hz8PQo/Buid5jH4Dn2/8l4taWOlzkPOVjp+qBOjEg66ItRRHjYCSrfOmWr/f4CRh/Ygb41qxLyvsr2wkdO2kv0bSHrUmixbc5Wc86+b1LNV3J+v4my/50+dqyK0Fc+HeTEfZpBF51lbwQxEUgPgrajhwQ1sqWmLiwmIiZRETw5D0wqQ/2uDCvmySBRByYxMUYBORu+b0fgvWbRIX/GVP+RcmrQSZQ/HL0XIAECZAU0RIXMkET0CcRMUSiSOVgjwsLO2IvkZBxDI0r7KRMXEgGpPsg6UC09ZGyGDhZfSj4ujX7HwmbZAycrt+8Dws3n4MjZ0O3+VRtxq5duSW3/L3zYreNTYfqIK+yI6TDcCtfGYcFG4oBCQD5WqR8X91UAjiZjyRHOnVyukCdOjnSIaeyHJZjzqp8ON9wO6gOKC/Lyc+rx3blduRUwsLNpWL3F1WHOO8bgIkvfAHuHdgWUhadvN183ZCLFAcDy+tGvjoc1GvJyvfSjch9hoyL7+3NMP6H3zS2Mh0KjiMiy6n1U8+TVV+n843n+5usZyN9w9L5fjK+v6lm97bsKoS4ACgRxEKAzJADrwbtWrMkC3bO9HtMLCmHQBDWwLMlskcHeXJoiIsSEUQ2QGbIeRqBZrvjXibitscF+nR+TwAAIABJREFULhmRl4oEn/eJGCdq/+fIuQVxEbRkBJddaAgG0xuDlmpIxIVMCgg5+Z7WS0MiIEifnCrERUjeKKsjU/w6kHAIkCMBrw4iQnT6TDKDiQtb4zJH7FGav04lfdbEhbGrSGicC5+5LWpaeVzg4Mmp/2SthcSPI/+HYoDt4VTb2tFzrq4RZq3MhZziuoTma6dsqkxhbSMs3loEDdevwJxVeYBxG1SZRJxjGS40X44q750nKuHg2eqonlHrgpNEfGea2lvi0oN6yxoviaCfpQ1NcetSy6men6msh1kZuXA4z9iWVb7/4PWX4OEzf+t6GeQ8YznmfjK0r0JbxHadv6EAsgtqtW3Yf+owDP/NX5r3eu5cMY9jaYfJ9kyy7CoVYxGkAuGBNj3ZbCza+iAGEdtCR1xIJIK8fa5MLhgkhbTl7fRpYJAaxs42YsvbIIJC2kI36Dr9OGTcN7bKLYejOaHXU93jIpioMOJaBIiMZBAXypIRiXiQJ/s4uTfPJRmV+Ah4Khi/2GufkQgCJBLwmVA5ycNDyEjnJnGhlN2vS0dc4OQ4cJ1idgR7h8gkTKAeFvlO0Yn3VCIZ3KjrlCEu7ICHHyuWC3VtYlwCmGAsgtkZ+VB9uUcM1lLdXtbsrQJcKnLgdLOld0gi2he3Q6261BP0fkXKt771rlg6EUmO2sBKTg3UaSVHeijVyVU2dov2b7kRiDWgkyMdchqtHHqorN1XDRsP1sKd/kdB2KHeaPXJZdEdO63P1mB+CnqmIS7Ypr9+K1f84zG2tedGl/CsmPjSl8C3MgPuXAvdQjgR7ea0HaSSPrZJmqQ6lyKmOrtUr6WSHahlw/N4ymfLriIQF8GeD4Z3BRIUgrgw41IgWUHeEhIBgbpNGTCeQa+LiMSFYQdy3khopBdxERywE0kNnNjo2nhyX5O8MGRSgsmBKWgLgTnLZLT56IkLb3p6XNhpvHg+XDr9rE//8qQrLofPXgEM+IjLRLC9U70e5Y2XAINy4s4VGGPi1t3gpRpks4mox87jjSLuAeVpF7+5qwuguTP8rh6kM1w95ECd4eRIV7jynavuEjvI0Har8eqT89Tleyy/FV5YWwgXzgUHu3Q7X7VcdG43X1uD+SlKXBCWJbtOwapFh4VX0Csbi6Fq9Q5zkGUXZ5az/51hm3SOsCAPAyYuxsT7S3hYpjriQhALxnIPJA9oeYisw3niQiI/RP6Ub4AISW/ioncKEBcPIGd3YOcS/J6Y3hZy3AsmLczvKX1zOdV/L9MJFyQuBgcfQGhwTloqQjuLeAC3Q5W3RE2rpSJ2GoUHgHqDZlzGRADO9Vk1MPBg1OwIUx2XdVllgB4ip8vaYWt2vVlu9V1IRD2O5LZAzrngLRvt5ItbheKSHLXMuvNw+uRAneHkZL3h5E6XXodF75ZB38BwQggsjBWx4LVsOLp4p4lFuPLZrYebcjxJ1E8SERfaynTis5+FsVcXCo8L1Qsj2lgYclvqjlPdXhJRPrZJvU3KE+Voj5m4iJW4MIgCCs5pLAmhmBWBZSC2iIsgzwpDryBBgq5L3hXknSERJ4Z3xjRIXY+Lu+Z2qMFLRVSPiylCXNA2rHJsi6DYFfrxvO7bwNcYq3SygWDiYggePnwotkMdGRmBSDuLMHERgc1MxEBMZ2ycr74TigUX3OJ0xc5KwC1PVaxj0afqkM+d1NfaMQAvrMsXZUavi8a23pDyU95O5os6dfqQPNl/6nJQGXRyVCZKy+tvw6q9pUHP0T01jaSPAnVGkiO9keTez2+Flbsq4Wb/NUfKFy5f37pMeDD9z+GdoxchY/cFuHF7UIsz6ZDTSPUgWafleJIYPEmsym8X6+AFcXHgkNjKlLCX01Ml1+HljcXiV1xMT5WGX8LodLtNZn1sk8E2GS1JoZOfLMSF67FTnv8FmNug0takP1sPcuwUeckGeV/YIi7Qc014dAQCeIq28ntUBOVLpIXwdvOTJ1iemVmw0+/1kXSPi0e67VCZuAh8J6SYERJxEYgpoR8DB57n+4xF+toAExcS+TCZB2y6l5Trq39xCZdL1/rgpfVFcKIo2FOAsCQ5OrdKkyGHngpH8moAYzIg8WJVNryeiPKV1t2ELUcvBpXDTr64zAUHxoNDwVup6uoTSV9Xz5AIromBOnXPq9ci6UN5JGPW7HOGWKH81Xw9N2/D+F/+FDw1hucJTmQxPsLJ8mA86Xk1VfWp9+ncaTmeJBqTxKZtJ6H38Z/Aw//wByZxQZiHS9HjQvXCUHfmweedbrfJrI9tkokLq3cuHttI1rM6IsmJa0xc6MeGVrbD1xkvtoHE2UB44oKWi3jA4+GlIuZkZzIP7HQv31SsL060cTCCqQ4TvJaquHR2P4BZK/Oh424brNtfDcU1XZZ1SFQ96lvuwuo9F4LKYRe/1XtLoeziraBndW1iRx8G6txwsDyirmhw2Xz0PGw7Zr0Uh8pqp3x2822+3g+vvXMOdp9ogpHR8B8MJ/O1Wz6Ui2cw78TgOxV0lDZ54MFXvglXl24BPMYyIS5kE+FSud1CvDBKAl4YspxdfVNVjm2SiQsr24/HNpL1rFt9HBMX4b+pVjbE1xk3tgH3bcCKuBgexqUiTFxoB5g8UNQb5mTBBbegRE8L9LgI1wmlan33nbwMR3NboKalWdQjXB3wXiLqgQFNMUCmXBa7+WKMCyeJgYWbC4UnilwW3bHd8qEc/jKOuOv00LVo9NEznla9tw/ex61tkbhYvKUcmtv7LfOOJV/KX5fa1RfPYN6tAbnbeuuziqHnyV9C3bEqy+0RERcdruo1Hc7ocaF6YXAsDPvfo6lok27bfDz2rNo8nuvsPhFy8dhGsp51q23TkbiguBe9vVMhxoW+z9O9J3yNsZpsNsDEBS8ViTiITtZAIhn57vnwEizbXgwY2yLSy56M8mGZwuV7996w+EUX063vV8DxwqspUY/ee8Pw/NrCoLKEq4eM/ZXOVsDdReRrumO7+gpqGuD1dyIv77CrD+WGR30i9kR2nvUOKNHow/p58wsBHnsMPNfatXUnfbjLCS4dwTgi8eBC+nQ65Gt25eIZzLs1IHdT750f/W949G++BNfnr4KKij5XiAu5HUK8MDgWRpD96+x0qtmkm/ZOuhFT2S6tjnXtoZNNllw8tpGsZ6kNnE6ZuODJru7d5GtsF6lgA0xcMHERcdCRrIFEIvPF3UJw15At2fVhiQH5pU1k+ezmi54W+Mt/3/0REc+hd2A4Jdp3xL90wG49VLk3d1TAxZa7YesSTXtQoE45H/U4Gn34bP/9EVi8tRxOSm78ss5o9U185avg27nbss6yPgzWmbGrErBe9wYDO99g/rKcXB712Gm5eAbzTg/E3dBXm3MROn/9mklQNO7JN4/D5ef0RI9jYegHkzp7nuw2Gc7u3LrntD3r2k3tq9zo1+KxjWQ961abMnGh71N0dsjXGCu2gcTaQDTEhceTxtuh4seQ/xkDnQ1cbGuGhZvPwZ6TF9LaRjp72+DZlbmAwScP5VbDlmMVKVWfuavz4OqtqzGV6dDZathxojKmZ3Vt3nSjRXimIFa6+7Few0nkS+sL4KPSi3Hp7f9gLwz/zU+i1oE2PG99ARRfbIz62VjrbPVcPIN5twbkTuht3nAUBv7ov4HnM5+FzmcCxIVd3YiLFWbxXs8uqIX5GwqEbWOaXVDjWl7xljUZz7u+c8TSMwJ7bOOp8o+YJqMtnc4zWbYh7ypitw9xW46Ji8ROxHjiy3izDdi3gSlDXNgxCvwQslyo8UxmXKov98DsjHzIrbhhtn261vfDomuAu4mgDc/fUATVV8LHXCBbT1R9X3+3DDDWRSz5tnUNwCtvl5jPkg45jbYeGKgTtxeVdcjH0eqjZ692DsCcVflwvuF2kO6o9T0K9pwg/ZRa6cOdZF5YWwi4XSvKWsmRHkqdlptMxEVV/vUgb4oraw8EnUczkUBcCPNwaTztwbEw3LX77t6HsPejS6Kfvf8g+D2Np9109mBXX93VZrFkDOMzvV9wFa51BfpaWa9dfSwXOhZCHHW4TKa+DvsyJi70bS+/R3zMGLENJMcGmLjgpSIRB9G6D7XuhU03OSQrkLRA8kKuT7rVg8o+L/MctHYMQEntTVi7r0o7wCJZOU1UfVftuQD1rYHlHtHm++qmEkBSQC67fBytPnwWA4biRF/WQ8ex6KNnG1p7xVIdeXmLLX19A460253+RyKI47p91XC5w7ntX7F+tuoxSXYVMbYyfRLGPvlpaNp+OmayQiY23thakZRf42dl5GrtnGyWUrvtOxXlcEnhkbNXzPablZEfgmkycXl5Y7EoG37Xnl2ZJ4IzqyRGMstHNhYuTcfypTNxUXrJC9VnW82+rfPphUxcSPOCcLbK95IzcWXcpzbuTFxIHVQ6fjB1LzDXQ/9Sy7gcOdsiJq2yBwBhKcvRNV2aSnJIwrx9qFYMolfuqoSKhtu2J5iJqgfGXyiVtjWNNt8Dp5vDBhuNVh+26YWmbstAnbHok+0ECRGc2LTcuCfaxY6+sZ/9HB4+87chkyFZLx3b0XeiqA1wwurUdrKYt518US5dB/PnKwOBNW/9fC5cXbrV3MpUJiDS7TgRnh5km3Jq115SWW5k1CeW32EQ3Fkr80ziYum20K2Vk1mPrFPNZtmwvfEf+6Cn38oVJH00728y6yHbj9VxKpUvpfu65nGoyrsGDXvyoWnHGZOg6P/TH8DoP/8cTPy9vweX3842r9+Yu5SJC2leYGV/fF0/zmZcGBe3bcCauBiWtkMdBY/HAxTjwuv1gc/ng2nTpsHY2BjIf9PkE90xPiT/PXz4EIaGhuDBgyEYHHwAWCCnK51KHzhd3bh8+hfdLVwwAGdmVg3gr2eTpT1e21wKDVd7xRauCzcZSyrcwk+HmXzNKt/9Jy/Dx9LOF1Zysi48Jjn01li+vULbZrKc+rx6TvroulWgTlWO5NU0nBzu+DF/fRF09Tww66E+T+e+Hbtg4qtfjShH8uHyJRlMyxovAdpE1qnwS4fs6rMrl9KD+RYwB+pEQNQfKBFbmd7+61+H3COZdE6xPWS7sDq2275TRW7fyUvw7Io8+PVbZ0NIgX0fXQrBNJm44PIQJFewrfH/6TeN4zV7q8QW2djmySyflc3J19OxfKnQ1zXsK4SWlbugY/ZiuLImy+zDemb8AkY++wW4/4d/IkhY6sMa9p+DC4U3TDm6jikvFdGPSWU75WPGiG0gOTbAxIXErKbjB1P34nA99C9Tc2crrNhZCXs+bAoZbMo4pht+uDRk9d4qUadtx+rhlH9bxFSrR865NnPwjHjHUj7cFtVqq9pY9GE5unqGxCAfyQU37OB06XVYtKUM2m6H35rWl7FabIEaaz3kssvHqO/BQ4+If4LET5vFchun802Fwbw8GA933LC30L+V6WqQPS7CPZNu97A9ZLuwOnbaDtJdX3ZuK7z+ThlgcOGZy86KJRiIJXpenD0fiI1EeCa7vq+8bSwXwTLi//n6W0HtnuzyEU5WaTqWD3F2sz+4cK7D1H9jzlLoefJvYeBb34VrC9eb17v+7iW48+OfQcezr0PrWzvM6yXN44FjDWGrKzcTF/oxpJXN8nXGi20gcTbAxAUTF0GDGt3Ll44DCbUel671wYuZ+YCu8+o99Tzd6rvsvfNQ1dQtJvT4a9vgkEfUMdXqUXChE3bmNJr4x1I+DD4qB1KV2y4WffS8LlBnPPpIL6XH8lth+fZieDTsNetP99TUyXxRt6wPscNBdl5FR0g5ZDm1TPK5XTm3B/O6Abfda7iVKS4DsSs/GeSwPeR2tDq2275TUW7zkTpYsKFYLLuYvSof6jVbNCcbF3m5SHn9LfG+y3Gckl0+K7uj6+lYvnj7usqiLkCPryur95t9Uuczr8PI5/8tTPzmbwbtXtT+Uga0Ln8PGnflQtXZq6a8k30UExeJm4SR3XPKmLMN2LMBJi6YuIg4mE3HgYTcAZTW3RSDt48r6iPWFZ9Lp/pijIbl750X9Tqa2wL7peUAqVYPLOuGAzVmG8RSvvL625CZVW3qkNs5Fn3y82qgznj1ybrxeEdOZVD96b73wKGg+jidr6rvat1BmP3SBnj22Xkw/3u/DQumT4MFs/bBpVh2VapYKp7tkvpRqtffLV0PmdOnQWaOsiyjPAuWTV8OR3OWw4KZWXDa5q+A0Q7Mjy6ZZtQN6zd9Gizb2i0G+QN/9D3wfOZfAk4M1N1Cos3DrvzprTNgwZLy0EkGYuAvn5nq5GxiZJlPC4g+cNRTCrunPwFnO60HCKq9UHuqafdAJZydJWGcWRpkxyRvX19q7+p1vKhWeOyhh9avlp2FZ1bkQU/fo5A6J7u+uFzkqeVnAZeHYBsgaYETayIvkl0+sgurNB3LZ4e4uHi4HK6sOwjtL66Am/93ntkXXFu4ATz/7F/A4Nf+f7j910+b1xt3noHqMy1Jia/DxIV1/2hlt3ydMWMbSIwNMHEhDbjT8YOpe1G4HoGXBz0scHs49LiYjLjgEhFcKoJ28NyaQmi/NWgOpFOtvs3t/UExKmIpHy55wEEieZXI9h+LPvl5NVBnvPpk3XiM+tBjZNsxY8tavOapqQP4jd8QKcm7kS/pFmnnPlgz/QnIyL4MCzeXQMPVFjEBfa/I2YkjtpNuIi0IhTgm53bIApGHnxSpym+HpvfWmiTKlXWxb2VqJ2+djA4HISeIi+Vw1CQmyiFz+gzYWa6QPeb98NfDYYvtMepveyeIi0sHHocFJlmBhMg0WJNt9EWyvbluz9I33K18cTvmmUvPmFuM4nLDXy0/a/a1buWLemPBD3cVOZIb2E1IJi9i0SfXTz1mfWPwwvzDJuFwdekWwDg5977959Az45fmdYw70fsXP4WumQugbfG75vWyhhHzWNd3JOMaExeBMaRq73zO2LANJNcGmLiQBj38AdYbY7risufDS+IXMoqJkK71UDtJqgcG48SgnHg//0KHuasIyZMcnVuliZK7eWcIcLs+Kkes+a7PqtHukhGrPioPpnKgTif0ybpJ38aDtbDvpBEoc/w73wHfuvUmJihPcvKzuuOY5aTJa2ndLZidkQcb5v8UTOICvSgkL4DdFUa/0JX9ROD6rH0gvCxkjwv5ucxSQTCVkHeFOfHGibnfCyPI48K4buTrn7jL94P0BCb3ghCgspL3hl+2ZNtJ6H38JzD2iU/BrZ/NFSQKeV2UtGjyawE/0bJclFGURSJYZA8OU48o43LInDnN8KgQeQe8EEguduJCLqdKcFA+/uuCBDGuoZeLis1TSw8FPCSw/UTbLYXd6DUhCIibgfuIqb+NRbtn7gvc85MVqv3VZU5e4uKtHRVwvLjOfE/v3HsEuOWxo++lNBaR9ao4y/fk40hyRF6cqwss15OfV48j6SP5qSDnudUDnvIK8B48bPbP3kNHYOL3vwzwiU/Axf/wLZN8aNrxMbS9sQkubf0Iaj5qMq8ng4CINU8mLvRjYbJ5ThkftoHk2cCUIS7w48r/UwOD9jttsHpvKWw8VA63J3G7r8sqg5ziOmHXi7YUQdHFxpS28Y67bfDMity4y4h13nSkPG49uv6g6UaLmHA3tbe4oh/zvH3vOry5oxiOZBfA8F/NcC0fXf3Etdb1kEGT/enTYN73fw/mrMmHtfvLoPVmK5QUZZtlEr+qr8LzbHhv+uOQ04p9SCXkPDNNEB3dRS/CgmfWwyVx33/Nf//55zFgXTfsnCktF5HJCPPYSiZAUJTkLIfMJcuNZScmiSHd9+fz7v5+QFlcglJ6oh6uLtmicbW2yo8m+34iQORjkCjBxIOUryALAh4Sp3PKA0tfzPoRIWJvqUhgaY1RziDyQ5AzVtcBAh4XUhn92GB7dIu297cjtp3ZptehuzUbSkT7YhsH2lvYgCmH16md5e9JQN7S7tK0L97z0QXxLZkM9ULSAj1vMJ0M9XGyDn3nTsDA3nfgwfJX4dGvfm7i0//RQRj/J4+B9yv/CUZ+8N/N632FJ6C37DT0dDXC0u0GUYvYTob/yUBc4OSG/xkDtoHJaQO4CynuRoq7kuLupI8ePYLhYd4OVftrCrJs+LG0w7axnJ6RcxOX6zfvA8YqOHz2SkgbuZlvOHtwI9/WjgGYl3lO1LHuyh1YsrU8LeqL68IHH8YXPLS79yHMWVXgWn0xUCd6XrjRbmQn/fdHYPGWcjhZEtqXuJmvyF/yuDDKY/zSPn9TEbywthAqG7thVPGeQDn8RV14ITyz3vC2wF+IyeNC6FwKddKvxjiAx1/8xKTf7w2BE2uaiBPBcDrI+4G8CJAMCBAMR5fMgJ05WZCJcSqQEPB7QpAXxLs/eAO6nvwljP/Wb0P5odeDYmeongfW+QWX1fDKMEgJykf2RBH1EMSF7AkBYHiZ+Ovhr3cw8SEt9wh5HgkHInpk8oH0Yl5W12Xiwn+MBJW/DNgeQUtFRBsHt9mo56YgpYx6GrEwDI+LQPwK8qwI2KlhP+SZQzZOaUBO/z1IZbmqSz1iO+N7gyOu9geEgS51Gj8iLyjmhS5PvOZ0vknVd7fP/F54S8pgbPZcGP/hj2Diq18zr/eePwPjP/oxjM2ZC761meb10bv9geMUwuXAx82w+cjFoLI51W6Tgbiwsmu+Hr4fZnwYn1S3gSnjcWGnIZL6YZUG/FZl5fLpOxTCpeZyj4j27sauE7o2oXx19+RrbshhrIQPi6+JQcumQ3WQV+n+LhFO1AMj8uOSEcQnHn1v7qiAi0pE/3j0ye2Fx0h+FdQEYlGo9+XzWPL1NF4WOCzYUAQFVZ1Bg89Y9MnlUY9D9IUQF2MgJqersqG2+QrMXbQXZr/8gSAn1EmrPLEV8QxsEBfGRB4JAGXCbXokKNfNZSUGkbBsaznsXIJBPMshc2YW7FxCE3siALqh93enwcl/Nw3WrL3kJw4UMgF12syPJvoqcWESLlL5hE4MNOq/ZhAc/nMzP8njQhAVflIDyRdxHngeiZ4AuaPgovU0kQmNYOLCcBM3yB8kIuY9fSg8ceEnq4wlQ4EgnqoNBBMXATnV7ug8xP4svnWpJodkBcZHQvIC65Jq5SN8KY2mfLRsJBx5EY0+KkO41FV9fffAU10H3mMfmH2p53ILTHztazD+jx+Dic99LnC98xb4Vq0B7+Gj4Kk0AphiuV0tn4XNx5pvbfMdEYAVdxFTMXeiHkxc6MeaKtZ8zjixDSTeBpi4kD4oTnT4shGzPr1Bu4ELkhWzMvLNyOlyO9CxG/mS7nCp0/niMoZZK/MBA1XeuD0Ic1cXwMioz5UBjFwvJ+qxfPt5uNJu/IIVj76cc22QJe2gguWMR59cTzzGQJ2vbioMwVSViyVf/EVv7Oe/ELqvdg7AnFX5cL7htpmXk/XQli+EuDB+Mc84UAlITHw051Pw8raLkLG7FLKf+1f++Ac4QTV+ncfy0eTV9LgQu1VMA+NXd0MfTpRpjbWYjM9UdtYwJ/b+yTXFk5An80JmBiwzPSxmwLYZfwaXfjoXWlYvgkyFNCByQRAIfk8DuQwGKWGdn+wdIhMXhtcGEQxIKEhxOmyUITaPC6OcVKdA2ayuy8QFlpHKa1y3RVzQ7jKCxJA8Lvxtb+xKYrQzLichm9C9F3TNdXuWvuGUp9buo5TbcvQiHD4T8NxL13rImMi4RCIvUq2+nusd4P0gB3zrN8LY8y8E+vu7/QCf/CRMfPnLMP4X/8PsR0eHPeApr4Q7bfpdqKxwUa+r58nGBb1K0XMRPagwCCuey2V0onxMXOjHrjLOfMwYsQ0kxwaYuJAGM050+LIhsz69UTuNy96TF8Qv5NeUD7jcFnjsdL7J0rf9eCXg1qdYp6zTzUHR4+U6J6t84fLF7VCd+AUTo/y/8naJ4wM2Gb8Nh8rheOHVoDzk+3Qcrr4kgynK4S+CE1/4Aoz2D5h6Mcgf7lhAHiTR6JP1Wx2H6BPEBS3J8Kc0YfX4vS+mT4O5P18ETy07Dc/NOxoIxEmxMXTBOWW9s/bBU/6lIoI4EGSE4ilhEhfoOWGQAcYShUDMCLpOk/fWH/0+3P/EP4G2Z16Dqrxrfo+F4GUZRFQYZINUzyAiQ59fgBygMgXKYnhTGPqoPCEeE/56Yj0yt/q3faXlMkTMhHhsSGVEfIPk5HIGiAjCxcArcJ3qLOJkSGVBwgbbg4gHEXgzZKmIsTOI0OkPxolElPC4mPUErKG29wfnLFmllHsS7Spy9vwNEdhZfqdC3iNp7JCucuHIi4TW977hhYc49vQ0w9iL82D8J38JE9/4htlP4r3x//7nMPbU0+B7ayX03Jx6QUYHHoyKANcURwOX9hVcCPa2dKLdmLjQj13l95yPGSO2geTYABMX0uDDiQ5fNmTWpzdqJ3HZkl0Pq/aWAn7QZex1x07mi/qToe/uvWHxSwum6HGBv7zcuhsY9Mn1Tkb5IuGy43gjFFwwlkbEW75XN5UAeixQnePVR3oopUCdXT0PzDzonpxGk683vzDInZn0YFwJ/PWs5ca9pNgVlkNXj+br/bBoSxnsPtEEI6PG+6yTo3rIKcW4ICIhlrQq/zp0PvO66blRWXzTPI5F31R+RsS4kL53clvJx2r7GsSFfxcZ6XlVTtYhH6eb3LWu+6KPxTSd6yGXXT5W28OKvFDlZB3ysS25oUfQW5UH3o9OwahEUox/61sw8Xu/B/D3/z7gzh2oF/X5lr8F3n1Z4C0uA09H6Ba7JCeXw+rYVvks+j+dzmTqy9h9IST45ztKnAsnysfEhX7sqrMHvsZYsQ0k1gaYuJgCAzGrl8qJD5ysO5H6MEDjip2VgFueJjLfZNWX8kVPi+056NI/BqfL2mFrdn3Q4JrkME1FXI7ktgAu83CifAdONwd5RLhRXwrUKeOqHjuV77nqLhEIEJcCqXnozp3Kl3Rb6cNlSEhcLN5SBs3t/bbtKh7iovbDBuh9/EkY++SnxVamVQXtTFjInhpTzI7jAAAfmElEQVQxHDNxoR9cqXb/1s5KQI8Lei8oVeXoupqmo5yOvIilHt5TH4Pv3a0w9vIr4LkWwHDii1+EsS9+Acb/bDp46ptMbL3nisHTnuAYP9KYT267WOorP68eO60PdxHDdxj/cVnssyuN5SIUpJvydyJfJi70fQVhzCnjwzaQPBtg4kL6iDnR4cvGzPr0hh0vLpeu9YkJ3okiZybAcpvhcbzlc0sfeljMWpkHNLF9bXMpNLb1moNAt/IlvU7ggmTLfn9sinj11bf2wvLtFWb949VH9aSU9GGgzsqmbjMfuk8pydG5LvXt2GXLrk6XXofX3jkHfQPDlvmRfjv5oqxTckisYDC4Y4W1EcuG+UZLXJyv7IPymkGToNBvZUoBOTmN1nskVuKC7E1NnbIr0psK+jCmBca2oDLJaSqUTy6Pehxv+VTyIkgfxotobjVxGXt1IYz9zf+G8T/+Y+gr/si8Pv6n34WxX/wSfIuWgLfA2PWKyhmkTxp30X1KWS503NTT9wiefussIKmWndcCr71TKpaMIHnx1PKzgIFkncSPiYvQNiB8OWVs2AaSawNMXEgfUP5g6o0xlXAprbtpTIjqAu6jqVQ+XYfmVPk+LLoG733QICaiuLQAPU50+dE1p/J1Uh+2H00MnCgfBia93ftQ4OCEPqorpqQPA3W+/k5gO0hZRpZTr9O5p60d4LHHoP/U4bDtRfJZH1fByl2V8GjYG1aeykfPWaVOymEw2OU7isV2sfcGwy/Psktc1B8ogZ4nfwkwbRpce3W9SVxEOzFn+fBkDhMX4b9vGHsHdxGRJ4HyO+Xke4R6U02fp7UNWna/D2/NXC+CXGP5xr/9bZj4/OcBfuM3wHsKY6QYGPpeXwS+7TvBm1sAdxuCYw2RjJqmWn3TtXwPh70wc9kZGHrkFduhPv1mLpRevGW2jRM4M3Gh7ytUm+FzxoltIPE2wMQFExfmB8/qBXTiQyjrtqvv0o1gl3mcuOPAEj0uYtFnN99UlUOX0NaOATHgXbe/GopruoJwkDHB41SsR33LXVi9x9iCzony4bawZysMl2Qn9MkYyvrePXoxaFmKlZx8nY7Hf/Qj8L2xOKr2QK8UDGRKOnSpXD7dfbrmhhz+Mj1/QxHgtnyUj5qGIy5KL3lNgqJt8btwff5qqKjsM68xCRGehIgFHyYu9AMsfD/UrU9VW8ZzN94jXT7qNSfzxRg797esBd+ixWKHDspr/MdPwMTn/hWM/9dvw/U1W8SPA+fqGsF7Jg88LVdhVLNrFT3rZPlQJ+uztlPEB4M4yz9aYIyLO/2PzH7YCfyYuNC3Adk8p4wP20DybGDKEBfYmafq/9LtpWKggANL/g9gMCsjF+ZvKIDsglq4fe86LH2vGJo7W1K2Hd20r5ziOsA1rphHTUszvJiZn5Y4XGxrhoWbCx0re25VgwjO6ib2qJsCdeIynWjzGswwSIton9t89DxsOnI+6vyizSdW+fzqBnhuTR6gh4hOh464qM25CLd+Phfuf+tPmaSIIU5FLIQFPYPtoWsnvnYdNh4qhz0nL6Q1PncvlZvlH3rtRRj+2U/B8yd/BPc3rzavP/rFX8Pw//wxDM17Fu5vWGFe7+5tDRwPXAckLdBeMGX7SK2x4/7TVbDvlL7PdaqtmLhI3qSMJ8SMPdtAeBuYMsSFHUPATj8ZcroBPg02p3KKuGw8WCvW1ePaejy+eSd0B41ktVsi88V4Fg1XjXgWW9+vsPz1X7bfRJbPbr6994bh+bWF4j1zonwY9wO3Eh0c8ogBtlwOq+NY87UK1BmrPjvlQ5vfd/Kytl9yM1+rsuF1OV/8pQ/LuHZfdcjuNmq/VllyCzyf+azYJQR3C5nKfVsy6o7tEa5d6Z7cvnRNl04WuePFdfDWjvDL7rD+ya6v50YXeItKwLt3v9mOY8/Ogol/9+8Bfuu34MGyVwLXF7wMvs3vgvfkafA0BfcfdutB5AXGvtC1P12zq4/l9IPxaHHJ2HUB6q5Ye7pFq4/aUU6ZuNC3lYwRHzNGbAPJsQEmLlJgqYg6wE/GoDYV85QH2qdKrpv7l7+ysRhOlQZIJic+1HIHlGr6Smpvwpq9xvKKvvsjYqLem4LBGwnDcPiN+IM2omw4OdJlR259Vg2UXbzlmD7KW1c+EaizMThQp04Odfh27w0a8FvJUX6UynLDoz7ALfCy8wKB8XRydE2Xyvp09+laPHIYKHf2qnzRDqTv5ef3QMezbwCTFM4v+4ilv5b7U2ojXRqPHaSbPtr6tK0rsK2yrg54LRG4eEvLwbv/APjefAt8S5aK/gPzxaVmE5/5DIz/4Tdh7KX5Zr/i/fAkeBqaYHTwoSvlUwN26rBJBC6cr2F/cnwLHSZO2SkTF8mZkFm1KV/n9mAbCNgAExdMXKTsL5+6gTZ6XKheGGosDKsXPF0HWMveOw9Vl4zJMm4luuVYYCcNq7ri9VSt7/NrCgE9L5wqX15FB2w7Vu+YPsJUVz5doE6dHE40xn/0Y3OCEU979N8fgcVbyuFkSYCsi0cf1U9NdfVQZcLlix5BCzeViF1jxmc8CSO//Q/FVqa4PCSWiTY/4yzhoetPo2lfVTZee0kFfRgr4HiRvV1y4q2v51bAc8G3MgMe/d3/gfE//wsYmz3X7Cd8G9+G8Sd/AmMvzAM8Nt+3gQemjIobncdbPtJDKemLRF6QHD1nlbJcYOAtYxQNLmp8C1kPHUejj55RUyYu9G2l4sTnjBPbQOJtgIkLJi5SdlIRaaAte2G8rHhh6DoTJz7ost5E6MOJ8vLt581BKwZErL4S7Porl0k+TkT55PzoOFK+uEPH9Zv3HSMaunsfwpxVBY7pi1QPNVCnWl8MgIe7iHiutZvthjpVOcpHTXVySNgt2FAEBVWdpk6dnKor3nzt6vN03wXfmrWAS3cwYOqbq07CrxafStm+ZSqSIpH6U2rrVLIrKpOcOlW+w2eviN1xnNKH74Cn4gIM7H3HfEd9W9+Dif/0nwE+9SkY+19/Y173Zh2EwYxF4H3/OHhq6szrcj3p2KnyxaMvHHmRCuWjuunSyVQ+9Lw7mhsctFytsxP1ZeIi8ZMxtR35nNuAbUBvA0xcMHGRspMLuwNt9LhQvTAmSyyM1XurAJeKYAeGKcYScGJgIneIida3as8FqG+962g93txRAaXoMi29z1bH8da3q2dIBK7r6jF+BQ3Rd38IfDt3hZQlRM6irFZyVzsHYM6qfDjfcFvotpJT6+2mnLfgHIz9/Bdiu8Sxn/3CrHNuxQ2B0faTnSnbv0w18sJuf+qmvai2KZ8nMt9q/9an6M0UTb6eC9XgPXoMfKvXwtisOaa9e499IMjKia98FUb+x/cC1z/OBU9VDYze7TevUZ2jyZeeCZe6rc+KvHA7X6s6T8V8M3ZVQt2VuyG2JGPkBC5MXOgnTDLOfMwYsQ0kxwaYuJAmD050+LIh29WHA8qpNoi2U99YBtohXhiSe73d9kgVOXS9x6CcZFMrd1VCRcPtqAba9Gy4NNH1RY8F3HfeyXxxCc2OE5ED7CEOTuQrB+p0Qp/cPuH0NbT2ihgn6DIcTs6uvpjk7kq/+A0Ng29FBnhuhwaLw/f3lc0VsGJfI5y7PMZ9XIJ3EVH72Fj6U9k+1OOk2V+cQbTvDY7C/PVFUHXJWLph1qMvEOcCg1qOzX0Oxn/8Yxj/9ndEH4xyGBxz/Ps/gLFZs8G3eo3ZN4/2GIGTESNTnzS2ULFLVzkdeTGZ65tK7dbVdw1mLjsDQ4+8AbvT2JgT7cHERXImZDp742vcFmwDwTbAxIXU8TvR4csGZlcfExf6tdzxDLQnQyyMtw/VAv5yjTZ16VofLNxcYg6gZTuzOrZrf4mW23/yMnxc1u7oAB+D6y3YWBB2QEc4OVVfEaizqdusRyS3b6fyrWzshtkZ+VDdktglQ57qWhibPQcmPv0p8JRHJomoX1t7CLfvLYWjJf1MXiSRvIinP6V3R06dsmfS6bq+e4PgqauHrRtPw6EzV0Rf4amoAu/X/gAmfud3YOLLXzb7D09TM/hWrgLvwSPgOW/Yuuvlk8YihAmmqZavSl6kWvlk7FIRv1jLhx6FGJNFfV49d6I9mLgIniipGPM548M2kDwbYOJCGiw40eHLxmxXHw3w1V/Ipvq5UwPtEC8MaUcSub3o2G67uSnX2jEA8zLPmYMUDD5JO6m4mS9hoEudyhe9I3CdrlP6qKwvbywEXE5B51apU/lSoE6hr38AJj7/BUCXcbfzRf3nqrtgXmY+0HIVqzzxulP1xTX6Y68shLt1RZZ1lMsh92t7c7vhmRX58M5x3gY1Wf26U/0ptbFTduWkPk99I3hzPgLfxk3wcO5Tpp162q4D/IN/AAU/mAkrXgos4/L03IW+vA/A02Usv6Ky6NJUrK9czkSWTyYvEplvsuqbCvnuP10VMb4FltOJ9mDiInmTMtnW+JjbgW0g1AaYuGDiImV/BXV6oJ1OsTAwwOGHxdfEwPt270P49Vu5MDjkEedODEzkzjDR+goudMLOnEZHBlhyPXaeqITjhVfNyYp8Tz52sr647OXg2WoR52FsznNh83YyX6zPscJaWPRuGfRF2Bo3lnw9LVdh7NXXYOyVV0PqZFefTFzgZP1U7TC8sa0alu6og7MXR1O230kWseBmvm8faxMxR3Br3Uj/b+4ojiiDOhIut7NClAvzXbWtFFYtOgSrF+yG1XO3Bsq74zysfnE7rFq4H1YuORS4vvsCLH3vvMBg6bbz5nUMeLv56HlovBpY6iH3FfKxXbufKnJEXpyrawzpI2Tc6DhZuEyWXceW7yiOGN8CsXYCZyYuQidLZMecMjZsA8m1gSlDXGBnnqr/6gDfzQFsOulGXNxqs+yCWpi/oUAMZDHNLqhxLa9o69DU3gLPrsyFzrttokz7TlfBjpzKlClftPVR5QtrGmHNvlLH61PW2ASLtxU5rlctv3zedKNF2NC1948kNF8qQ9bHVbB8ezHc7L/mWP4DuzfBxKc+CY+e/gX0Fp+MWe/S7aUCG3yP+T81MHhtSxVM1f95G8rghcySoPo/t7bYtM2X1hcAvk/0bqVbyu+b/h2blZErvvX4zU+3NqXyUnyLrl7n+nnSrUuZuEjuxIwnxow/24C1DUwZ4sKOEWAHngw5Ji6cj3Gha0dd+6ZiLIx9Jy8HuYQ+t6YQ2m8Nmrapq4fd+qaCXHN7PyzfXiEGkbryqNeiqe/c1QWAHiqqDvk8Gn3yc3jsPZMLnrbgbU4Pna0W2yqqsup5PPmquvCc9O0/dRk2HKixrDPJ6XTgNU/3HfCtzDD1Cbmh4Zj1UT7h8q1tvgO4te/hM1eC85U84EgPpeH0kQymLBf6wUcPCSQs0om4TkRZERMkLN7PbxVeGPgtRi+M7R80hHhhpLpd8TjCehyR7ruOYTDmZduLLftkp/s/Ji5C+1CcLPE/Y8A2EL0NyP2TE8dMXEgD5WQNTHjAoR9wvLG1wvw1DDFK1D/+QmPn5XLDXu7eGxb1xBTLkH+hA94+WBtUHjfyTWR9kSx6eWOxKxNMXGJDAU2t6hQPfmOvLoSx198w2wODVaI+Eaizsdu8rss7nnwj6cN6YxyUSHJB9x+OGFuZTpsm0v5Th7XPBz3jIDFwb3AE3jl6USw5uHE7QMyp+dG5m/hRHrp0MuTLxIX+G4PEBS49oXa/dfehIC3oW4MkBpIaeD/V7YDHEfo2RlyofeV4V69sLDbjRqV6+2bntcK+U1VmPag+utQJO2XiQk9cTNsKwP96DHS2yNdC7WiqYYIkg9N1ZuKCiQv+FU6J9C8PdMK9cE4MEGT9qA+DVqLHBV3H9dj46zSdY+pGvrJ+q2On8sVYHc+uzHOlHufrb0NmVnUQXmp94qnH+E//Cny79wr9vnWZMP6dPxH1oECdal7yeTz5ynroWNWHvyrKtqOVezgCnrLzJj7yVqaqPnpeTZ2Ww1gdGMMFA46qecnnTuc7lfQxcaGf1KrEBdkbEhiqF0aqx8Jg4kLfxrrveSp6WpLt6VLcCr2kvils/0jPOdGvMXEROuHEyRKTFnrSAnEh++M01HamMiZMXEgkQzSG4ERHLufntD4ecOgHHIlwFdbloRvoyO1Px07bAca0mLUyDzq7H4iPQN2VO7Bka3nIB8HpfJOh75kVedBxty2kboStnEZTvgcPPcJjhQKZynroOBp99AylE//f18FbUg6emjqAadNESvowUGe44KAkR7qs0ljlxn76V1D73Z8A/jon60Z9tJUpfPrTMParp4Puk2ys+dLzahqNvubr/bB4SxnsPtEEI6P6D380+tSy6M6nkj4mLvTfGCviQraXcF4YshwdJ8uueByhb+NI33PZCwM9AWn3LmpPNU10+z4c9sLMpWcA41uoZdGdO1E+Ji5Cv0EycUG4h3vn8J78T8+4kVI+6niWrsupk/nLRI6TehOtS8bH6jjRZZos+TFxwcQFe0co3hFqR+3EOXZcdjoNJwYIcj5H8mrgvQ8azLw3HaqDvMoO85xknc43GfrQBftyR0tI3aiOchpt+dZn1UDZxVuWuqPVJ5cFHntMxITAa77N74o87lyrAdxRpKtnSAxUrLYojSdfuQx0LOsbm/scjP/gh9B/fwQWbymHkyWBeD0o5z2bB7jMBXcLoefVVNan3pPP3ZJDwgKJCyw/xkGR88Rjt/JV81HPJ0O+TFzoJ7V2iAuyh+aOlhAvjFSKhYHfLSe+f5NNh93vearuOobxLVbsNIJzky2GS53or5i4iJ+4oPfIrv2Fa9NI9zCPSO+/G+WYDMQFYUcptZucuoFdpDZV71P5wqXqM6lwzsQFExc8MJnExMULa/OhtWNATNhwzT8GmtT9+uzEwETu0JKhb/n283ChObAkRi6Pehxt+fIqOizjPaDuaPVReTxdt2Hin/5O0ITat/xNmPjEP4SxWbPBc/M2HC9sswzUGWu+lL+akj5c7jHxjW/A6P0hUbbuqibIe/znMPqZf26cJynoMJVPLbd6rsrhkhFcOnK6LDgIqiqn6qHzqSzn6bwF3pIy8O4/YNrp2P/5Gax+djMH59R8O6IhLmS7svLCwOuyHNmkLnVaDge08mCbjw2yyu6kQ26PEC8MhQjWtad6Tdan3pPPI8mhBx0uIY0kRzqdkGPiIj2IC3kSa/W+yzJkI06lOuJCzi+aY6fKFK0etYw6HFEmWr1OydspH5Y5mWUMV1cmLtKCuLgJZ2dNgwXT5f8n4GxnaEdIjY0Gp3tZSnKWw4KZWXBaM+AqaemGnTOnwbKt3cqz5ZA5fQbsLKdU/0uTNj9tPhbPY9nkOlqW0+L5aPKKIHt66wxYsKRcwQGgpDwLlgks7JdB6PrZeludlBMDBLIBDCi5LqvMzDfrdDMcydV7JDiZL+afDH24C0ZhbaNZX8JBl0Zbvu6+hzBnVYGl7mj1UZm854ph4vd/H3zbtoNv63sw8a//NWDMi97yj4PyEoE6m0IDdcaaL+WvpqjPt2sPTHzuc+C5EvCkwHIN/O3TkPHcNjjfcDsp7Ytljae+SNyhlwAuv7k3OCrwjUefil285UumPoxR4j1wCHwrVoIvc72J89hzL8DE7/4uTHz9G+Bbtty0SW/Oh7DqnUImLjTfkViJC2r/VIqFYTmO0NQ77u9/Gum0O6DX9S+pEAsD41vUXblrvudke1aprh462XByTFyEjtetloqgfUX7r2sPO9fUfOgZ+TouYZXP5WOSdyqViQs5Hzq228+gvFNlilYPlZVSXZmdKB/pD5eqZdfJ6sqH10hW1ZHscyYu0oi4WJN90/zQdGU/AQsySy1fTDQ4K2MMe11DbIiJt9skgiAtkBwJEAJHl0zTkwcJGOBMBuJi4eZSKG+8JGwE4zRgDIhbd41f0NWOJ9yAQ5ZNZbkdxxvho9I6y3ci3nq8uaMC0MVW1kPHseLi274TJj77L2Hii1+E8e/+mVh+gTpVfVaBOlU5Ko+a2pXrP74f4Dd/E8Z+/Qx4T3wUqOtDY0eahtZesTa6tCFxQd3kutitRzg53C4Vt03FALXh5JzON1n6PN0Bm32wfCGMPTsLxr//fRhb+LrZvujlM/7EDECiwpe5IYBLv3X0bl4qEvhWyd/UeIkL2U7CeWHIcnTstD3HPI5IwDdaxjzRx4gLYR4ujdQeIV4YpYHleDq9kfTRM+HkKL7F0CNv4D2PMA4Op4/yxDScHBMX9ogLGU87x/Lkko6jSa3ysKPD6tl4rk9G4iISlrHihXp1fV+k/NT7qEOnS5XDcyqr7p56jWSdTpm4iNBhWwEeroOWn3FGzvC4sCQuOvfBGslTAeXQgMTkm64T8SATE8J7wO/FQfdbVK8K2QtDvofH5AFChIN833guM8cY3CEJITw55DxNz4VgWfNFRFmzXACCyPDnSV4hBsGwPFAWyUsiqP50XdR/OWTOJFLEyNv09PDnZ4u4kHVhuaSyCs8WUdYZkLlkBiwgj4ugtloKdWh/FUthwXTjuHsgG3ZPnwbYhrIdqceR7Kq49ias2VtlDiTQRX5rtn5rS9QdSR/ln8py6E1yKDf87h/x1CPnXBtkndIvRYkVF1wOMvGZz4A362BQe+PaaCorpbpAnbHmSzrl1HOxASY+8QmY+OSnYPx7j4PvvR3gae+A0cGHQWWpbOyGWStzofXGvaDrsi46drJ8qNMpfViHF9YWQtbHidsOkDBxsh5C550+6Cv+CLxHj5nt4Vu9Fib+4CsA/+gfwdjTvzav39+wAnxr14E3+33wVNWY1+Wy2S0fExfuExfULsmKhYHjCPN7PMnJiGjqibhQ24RL7fZXiYyFIeJb7KoU5bdbPifkmLhwh7hA+1MnjFa2THLhbJbuoSx6WuC/rI90yCk940Rqh7jAvOUy6Y5RxonyxKKDsKFn5XP1GGXka/SMnRSf09VdvoYyOl2Up51Ufl4nr+anysjPO3E8KYkL4D9GgBFgBBgBRoARYAQYAUaAEWAEGAFGgBFgBFxAYBoSfMpf6BVVQPOQIsKnjAAjwAgwAowAI8AIMAKMACPACDACjAAjwAjEjQATF3FDyAoYAUaAEWAEGAFGgBFgBBgBRoARYAQYAUbALQSYuHALWdbLCDACjAAjwAgwAowAI8AIMAKMACPACDACcSPAxEXcELICRoARYAQYAUaAEWAEGAFGgBFgBBgBRoARcAsBJi7cQpb1MgKMACPACDACjAAjwAgwAowAI8AIMAKMQNwIMHERN4SsgBFgBBgBRoARYAQYAUaAEWAEGAFGgBFgBNxCgIkLt5BlvYwAI8AIMAKMACPACDACjAAjwAgwAowAIxA3AkxcxA0hK2AEGAFGgBFgBBgBRoARYAQYAUaAEWAEGAG3EGDiwi1kWS8jwAgwAowAI8AIMAKMACPACDACjAAjwAjEjQATF3FDyAoYAUaAEWAEGAFGgBFgBBgBRoARYAQYAUbALQSYuHALWdbLCDACjAAjwAgwAowAI8AIMAKMACPACDACcSPAxEXcELICRoARYAQYAUaAEWAEGAFGgBFgBBgBRoARcAsBJi7cQpb1MgKMACPACDACjAAjwAgwAowAI8AIMAKMQNwIMHERN4SsgBFgBBgBRoARYAQYAUaAEWAEGAFGgBFgBNxCgIkLt5BlvYwAI8AIMAKMACPACDACjAAjwAgwAowAIxA3AkxcxA0hK2AEGAFGgBFgBBgBRoARYAQYAUaAEWAEGAG3EGDiwi1kWS8jwAgwAowAI8AIMAKMACPACDACjAAjwAjEjQATF3FDyAoYAUaAEWAEGAFGgBFgBBgBRoARYAQYAUbALQSYuHALWdbLCDACjAAjwAgwAowAI8AIMAKMACPACDACcSPAxEXcELICRoARYAQYAUaAEWAEGAFGgBFgBBgBRoARcAsBJi7cQpb1MgKMACPACDACjAAjwAgwAowAI8AIMAKMQNwIMHERN4SsgBFgBBgBRoARYAQYAUaAEWAEGAFGgBFgBNxCgIkLt5BlvYwAI8AIMAKMACPACDACjAAjwAgwAowAIxA3AkxcxA0hK2AEGAFGgBFgBBgBRoARYAQYAUaAEWAEGAG3EGDiwi1kWS8jwAgwAowAI8AIMAKMACPACDACjAAjwAjEjQATF3FDyAoYAUaAEWAEGAFGgBFgBBgBRoARYAQYAUbALQSYuHALWdbLCDACjAAjwAgwAowAI8AIMAKMACPACDACcSPAxEXcELICRoARYAQYAUaAEWAEGAFGgBFgBBgBRoARcAsBJi7cQpb1MgKMACPACDACjAAjwAgwAowAI8AIMAKMQNwIMHERN4SsgBFgBBgBRoARYAQYAUaAEWAEGAFGgBFgBNxCgIkLt5BlvYwAI8AIMAKMACPACDACjAAjwAgwAowAIxA3AkxcxA0hK2AEGAFGgBFgBBgBRoARYAQYAUaAEWAEGAG3EGDiwi1kWS8jwAgwAowAI8AIMAKMACPACDACjAAjwAjEjUDMxAU+yP+MAdsA2wDbANsA2wDbANsA2wDbANsA2wDbANsA24DbNqCyH9PUC3zOCDACjAAjwAgwAowAI8AIMAKMACPACDACjECqIMDERaq0BJeDEWAEGAFGgBFgBBgBRoARYAQYAUaAEWAEQhBg4iIEEr7ACDACjAAjwAgwAowAI8AIMAKMACPACDACqYIAExep0hJcDkaAEWAEGAFGgBFgBBgBRoARYAQYAUaAEQhBgImLEEj4AiPACDACjAAjwAgwAowAI8AIMAKMACPACKQKAkxcpEpLcDkYAUaAEWAEGAFGgBFgBBgBRoARYAQYAUYgBIH/ByERCitbmqJkAAAAAElFTkSuQmCC;" parent="1" vertex="1">
          <mxGeometry x="50" y="40" width="1070" height="462" as="geometry" />
        </mxCell>
        <mxCell id="iVhLE1qEGWSj8Camv88m-2" value="" style="shape=callout;whiteSpace=wrap;html=1;perimeter=calloutPerimeter;position2=0.48;base=29;size=70;position=0.48;direction=north;strokeColor=#FF3333;" parent="1" vertex="1">
          <mxGeometry x="243.25" y="270" width="486.75" height="210" as="geometry" />
        </mxCell>
        <mxCell id="yLS3_Sv6wf1ESd7SEINW-1" value="" style="shape=image;verticalLabelPosition=bottom;labelBackgroundColor=default;verticalAlign=top;aspect=fixed;imageAspect=0;image=data:image/png,iVBORw0KGgoAAAANSUhEUgAAAXYAAACMCAYAAABoIIKuAAAAAXNSR0IArs4c6QAAAARnQU1BAACxjwv8YQUAAAAJcEhZcwAADsMAAA7DAcdvqGQAAABhaVRYdFNuaXBNZXRhZGF0YQAAAAAAeyJjbGlwUG9pbnRzIjpbeyJ4IjowLCJ5IjowfSx7IngiOjM3NCwieSI6MH0seyJ4IjozNzQsInkiOjE0MH0seyJ4IjowLCJ5IjoxNDB9XX2MPPyUAAAUpElEQVR4Xu3dC3BUVZ4G8D+kA0lIyIOQBCLhkaCAERSDAgLKS0dwwgy+ndLdRR211q3S2plaa1zX3ZmpqZmaqRq3xl11doZxnF11XMQVlYc85C0ioEAQBBJCAnmR9/vRIXu/k3uam053pzu8kpPvV9XV3bdvn3vv6dvfPf2/lzAo+x9PdQgRERlhYlK5DLYfExGRAU6UJTLYiYhMw2AnIjIMg52IyDAMdiIiwzDYiYgMw2AnIjIMg52IyDAMdiIiwzDYiYgMw2AnIjIMg52IyDAMdiIiwzDYiYgMw2AnIjIMg52IyDC9/o82HrkrTu5dECuusEH2FJGDJ5rlX94osZ+JzL85Wp5aniA7DzbKq++V21Mv3qs/TpXEuDB5Y3WlfLa/3p4aPF/rXlHTLq+8c04OnWy2p1waUzMi5LmHR8qBb5suaR8QEfnTqxH7T59KkQcXx1mh2iDLfpSvbq+8Uy7Xpg1RoRsKBN/Kl8bIsw8k2lN69uyvz8pDLxb0KtS1xubzap31+uM5Ahjr05ehn9BffX09iahnteeOSWneZuk477andGqqK/I5PVghBztGuwjwv26s7jICRchiBI2RdCgh3Ve8v6VGwl0imekMTCK6/BDa8RFlUl1yWOqKd3hCHKFecPg9NT0qrEJNC1XIpRiM1hOGW+FtjZp9wevXJIWrssaIWJcqxew72iRTxkdYz8PUPLpk410Scbd3qIB9e4N10LBG/mOSw7tNh2CWsXFvvd/SB5Z79+wYWbmmyjPqd5aNjuQ2q8c51r0Oel32wbKnTbwQ/t7lJ1160etxLL9FRsa7PKUYLDt73nBZs73Wsz1Y9orseFm3u84zzbtvCkvb1L3uE8A0f58DEfVtyQkumXlDlJw8niOr318t8SPHSfiwNCnL3y7pGRly773LpbjSJXuPNNrvCF7II3aEemVtu/2su2P5zWrki8DVZlkrv2lvXZeSDQISIfZv/1Wq6tsI4nv/6bSahqCrbzrvKZMcyWuRRbfEBCw/OJeBsJ0zLUq1E6xRiZ3rW1lz4acPQh2Brss+ONjggPLS6yXdtgV0qKOso9e9pa3DE/LB0qGuS11YXklFZ4ijn9BfmMZQJ+q/Sivd8uG2WklKnSLLrRCvOpfvCfVly5bLwVzpVahDSMGO4IqKGCxlVaHVfRDMeiSKgDxe0KoC0l9QY54XXi22n/k+WHjrsox99dLm7vCEdU+wHjhwlFe3e9oArKce0SNsUWbCwUOfYMVrGOHrbZk3Pdrqn0Hq14W2anO1CuJQzJ46TG2P/sWB5f18ZZl6TERmQV4Vnr1Qcqmvq5cvcyolv6jVnhK6Xp08TYoPLjA17wNBMAcGBOn7vxorH/5mnDpRG+66cAWLL95tYv6EAAcCHKCeezhRtf+zp1PkTFn3soazTd1WcXnX5VRaI3x90EG/NDZ3WEHe8/b5g18ZOICEevAkov6p4swX8uWebZKVlSWPPvaolJaWyKEv10hrU5U9R+hCCnaMHBGAKMf4M2lchNTUn/eMdHsDpQ2UIjDyRSkCJ2oxAr+UvK+KcdbJ/QkmtNHuxV4yiW2tvIiDAxH1D7gqprzgcxXq8+bfKa6oNFnx+AqpqSyTU1/9WZ1I7Y2QR+woi2BEiRG1N4w2UXM+drrFnuJb58jWdwCipIHSBurLzrLI1VZpBS3KLN5XzWAk32ZlMAIfo2z0jbO2j5E83qdhxO99kELJSP8iQTtoDwdIIjIXroIZn9LuCfV9R1tl96EGaRucosJ9/oL5cvvMDHvu0IQc7Ahb1J4xonaGO8IMV5KgTu19NYrzRCbeg/DHBjjp8g7CHqE/aexQ9VzXv3sqxVxu2G5sm/MkLrYJ24YrXrDeuJpGTc+6EOzop8ihF7pZBzfq6OC9fWgH7V0/YainfzHPP69IUo8BB4pA5xuIqO9LSYyQrBkzZcHiJSrUcTIVcMIU4X7jzXOuzMlTDWULlEkQWqhR44Z6NU4k+rpSA5cNIvR1vRzz6dG4DjJcQoiauqqtW21j5Iv5X34yWfLOtnQb5V4N2DYcdFCTd26zPpCh/ISraHDg0v2SX9xqhfmFk6fYXpyAxShdbx+2H+1qaA+/WNBXmAfLGxLe+VFtP1Bvzduhlh3qPwYjor4DQb5hT526MkaHuoZAX7urzn4Wul7/SQEiIuqbejViJyKivovBTkRkGAY7EZFhGOxERIZhsBMRGYbBTkRkGAY7EZFhGOxERIZhsBMRGYbBTkRkGAY7EZFhGOxERIZhsBMRGYbBTkRkGAY7EZFhGOxERIYZVFhUzf9og4jIIIM6LPZjIiIyAEsxRESGYbATERmGwU5EZBgGOxGRYRjsRESGYbATERmGwU5EZBgGOxGRYRjsRESGYbATERmGwU5EZBgGOxGRYRjsRESGYbATERmGwU5EZBgGOxGRYcL+1WI/Dsm7f/1Y1ny8WXbs3CfHj5+SyZMz5ExhsXz0yRa59toJ6vG7730sGRnjJDJiqP2urtCGu71dUlJG2lMuv68PHpWVb65S61xaViH79x+WzMxr7Vcv3tXYpqvp1KlCz2ce7nLZU0NTVV0rb/55lSSOiJf4+Fh7amjQxttvfyjjx4/xu79dLX153chMIY/YsZP+++/elBHWl/AnLzyjbgvmz5L8/DP2HJ2wEz/z1A8kPm64PeXqa2pukUOHj8nDD94jj694QO6+a548ZD3uC3BAwEFHw2NMu5QuR5uBoL/f+u8PVPgHgn0E+wr2mVB495mpBsp20qUTcrDv23dYpkyeKIsX3WZP6QzxyZPS7WdERHQ1hfR/nmIE9r+r1src27J8jq4wMtuxa5/cf98SKSku8zzGz0+MOvLskduMrKnqwIBpk6wDwo3TJqvHpWXl8tijy7uN8n29F8tatXqDtLW1qelL7r5DtYNfFKtXr5eJE8fLTmv5+rXrrpugfg6j/AJoR0N7Gzftkrr6BiksLJLkpET1i6SltVVKS86p92D+kSMTZO26reo9ennesK6jRyfLV18fkYaGJqutEfLII8vUa86+c/blF3sPerYP80+dOtlan53qeXh4uNy3/C5JGZXUZf0nWG3oXxvey3S+pmHEp9ddt4n1cPatXldf5QJ/79efeUJCnBw6dEy97qu/sU53Wb+Q3vrLarWOoD9L/ZktX/4dqa6q6dKec1lO3uu9ZOkCWfvJlm6fu/6MnOvvbzv9fXaYz3v/QP8G6jvM/+W+Q+ox9vGqymq1fadPn5Vjx3I9nw/Wy/nc2Sb6p6KiKqjPh8gppBp7fX2jHMk5LjdNz/S5c1VbX9ACa8e/fspEa94Gz+OtW7+QpqZmeebpH8jcOTMkfUKamj/nyHFJTEyQw1abeP2JFQ90axdfEO/3IkzWfLRZvv+9xZL93YWSmXmdrN+wTdVoIyIj1Beq43yHek9MTLSqo99wwyR1O3OmWJZaX/ibb86UvLzOLwzaxOPc3NPqwDIj6wb1PMdar6VL7pC5c2fIps27pLmppUubOK/gXVfGNp2027lz0RxVyy8vr5K0tNHyzTcnZKx1jzqy293ueY7tOnu2VGbNmq7CKNUKFyyjvb1dnnryIbVNCMm0tFT528eWq/mxnGLroIN1dy4TYbBv/6Fu9WrU/J1t4jWECOi+raiolq++OtLtnAPCZ9v2L+SJxx9U2zR61EhZ/+l2df6k2TpAfWn9irsmNUWtG+63btujwuymm6739Dfax2c789Yb1WN8Znv2fOUJ7KNHT6r+9G6vsbFJTpzM77ZOeO7sM7fb7fNzR5tHjpxQ4enczoKCIs9+qPn77HztH4H6Dv2Fz0D315kzJXK2qFSmWQeZmpo61abenpLScs9zX/u693b29jwGDSwhlWIirC9m+JBwNaoKFr6oxSVlcust0+wpXe3+/IAalXiPMAGjWl/vramtlynWAUOHAkb4GenjrC9lgXoePSxKjQ5h7NhUdY/16AlKTM5fCxjtYRnYbgShXo/Y4dGqH/y5fd6tnnbwHmxDMMv3B+8dZm3TnDlZ9pQL7aKPQC+z8xar+igQ/T7dT5BlBVZDQ6MaQTudO1fZZZvQJ1gGRp+QnDzCs27er3lDeP3il6/Ja6//j1RW1frcl5ztZaSnSav1q0yvbyD+PnesP0a9WC5uOABgn/PF12enl633j576zru/8BrWLRC0Geh7QhSKkIIdI64h1k9jHaDBaG5plbbWNokLcLUDvhC+vrj4Uvb0Xuo/EOoIVJxwf/65FSrArxT8ktEn+3HzNZC4VPwdNALhvk6XUsgnTzGiwE9N3DTv505xsTFqtLlhw3Z7SlezrZ+YKDGg1OAd7hjx+HovRswoY+irLTBKOpmbr0Z3fQF+9muon49KSVLb4jwo4hxEVWVwv3zwiwEHv507O2vHoNvtbb1Vv8/Ztzgxjv7WI00N5xZQitEjefR7VXWNZ1SM7cD2gPdrTgg8nLuAULb/YmH9vzl6wrP+gfj67Lz7uKe+QxkKZSC9P+O1euvzA+y76B+9Lnp5/vZ1ot4I+Tp2lCSmTMmQNR9tki2ffa6uY0fddtHC2/zW2LGjHziQI+utnRbzNze3emrDqLHfNnu69aWvVnVz1G+dteH0jLHd3ov6OMLug//7VE3DFweXXOLKHIx8dL0WX0Dnc5fL1aXO7V1j14/B+dxZD8f7nNvpq8YO+hp/zL8se5GaNmxYpGzZukeF5NmiEomMjOgsXVjz4Np3nNzT/yYgOjpKdn++X7WRNmaUOq+BOr/uc2e7uh/1tfPez7WhVn/oNtHPWdYo1tm37W633H//km7bhHbq6hrkwzWb1HzfWuuYfc9CGTUqSfUF6sffnjilRuTO19BOWVmlbNi4Q9WJMSjwtf04h+CssTv7NlBfO/tsvPU5nbDWwdfnPn7cNV3WHzfU4L37J9Bn571/eO+Xzr5Du1indeu3qdeGW2F+3lpXrAv6Jdc6uOPkuF4GoJbua19X+5/XvuHdD0TeQroqhshkOCGqr9Ii6s9CLsUQEVHfxmAnIjIMSzFERIbhiJ2IyDAMdiIiwzDYiYgMw2AnIjIMg52IyDAMdiIiwzDYiYgMw2AnIjIMg52IyDAMdiIiwzDYiYgMw2AnIjLMoMKiav4RMCIig/CvOxIRGYalGCIiwzDYiYgMw2AnIjIMg52IyDAMdiIiwzDYiYgMw2AnIjIMg52IyDAMdiIiwzDYiYgMw2AnIjIM/1YMkYFqautk0+bdkptbIG63257ad7lcLklPT5NFC2dL7PAYe6pv56rc8sc1lXLgWJO0tJkZX0PDB8n0SZHyeHaCjIx32VODx2AnMgxCfeWfVklTU7M9pf+IjIyQFX93n99wR6g//9siqWs8b08xW0zUYPnt86NDDneWYogMg5F6fwx1wHpj/f3BSH2ghDpgW7HNoWKwExkG5Zf+LND6o/wy0PRmmxnsRIbpDzX1QAKtv6k19UB6s80MdiIiwzDYiYgMw2AnIjIMg52IyDAMdiIiwzDYiYgMw395SmSYX/zyNftRcMaNTZXv3rNQYmKGqefl5VXy+z+8K/Pm3iKZ10+Uteu2Sv7ps+q1K+UnLzxjP+pq2Y/y7UfBeeSuOLl3Qay4wgap5xv31sur75Wrx70xNSNCnnt4pIyIDZOcvGZJSw6Xdbvr5O0N1fYcl8eHvxlnPwoOR+xEAxjC+8EHlkpeXoE6IOB2Kr9QTe/vfvpUimTPG24FeYU6IOAWFz1YhXNvzZseLY3N51VbL/5niTz6cuFlD/XeYLATDWCTrpsgOTnH5RNrVK5t3LRLtu/Yaz/rn+bfHC3XJIXLG6sr5bP99fZUkZ+vLJNDJ/vnn1sIBUsxRIYJthSTmXmtzL99pny2bY8Kd2/epZgfPvGQJCbGq9fq6hrko483q+lL775Dpk2bHPT0YFxsKebZBxJl0tih8uyv/S/v1R+nypjkcPW4oqZdXnnnnAp9jPTx1xXxh7dQctGvYbS++JZoNX9Ty3nZfqBBsqZEyV/WVsmoRJfcbr0OsdavAv1a3tkWmWHdY36M7L93e2yXNoM9yLAUQ0RBSYiPk/b2dqm3QrcnCHXQ5ZqKiiq5c/FcVZ8fa9127tqvpv/uP97yhHpqakqX+WfPmq7auBKSrFCurG23n3WHUAddojlT1iY//P4INQ0yxgyRTXvr5KXXS9RzhDpq86jRF5a2yUMvFsjR/Bb1mpYYFyaHc5s9r0VFDJKUEeGq/eMFrfI3S+O7tXm5MNiJBqjKqmoJCwuTaPukqT/JyYnqfveeA+oeDuV8K0OHDlHvdbvb5ZYZU9UvAC02NkaN7jHyxm3cuGskOjrwci6lsiq3JAwPs591pWvs72+pUffw2b56K4gHqxIOHMlrUSNsjKgR+jhQ9KS8ut0aqV8o+zQ2d3iWgfUpLnd72kSd/nJisBMNUHqkPnbMaHXfW7iCZv2n2+U7d86Tf/j7x9QoHvLzz3hG7LhhviulssatSiI6qAcaBjvRAIWSCa6GwUjbeRXM/ffd3eV5aWnn5YGzZ14opUzNvE5aWlo9tXncr3p/nSrtpKWlSk1NnYwendxlFH8lYWRcU39eHl0S7xmh4/5Xz45SjwGXQWrzszqvdnGeaO3PGOxEAxiuhvl8z9cya+aNnrJJuMvV7aqYTzfuUKUXPc+IEfFqGkbnGKVj2iMPZ0t1da16L9otKiqV7HsWet6DuvuVhBOnKKP87OkUdfLx5SeT5eCJJlUK+f0HFar0gum44QoaTDMFr4ohMgzKHv0dDgS+BHtVjGl4VQwR0QDHYCciMgyDnYjIMAx2IiLDMNiJDONy9fyPafqyQOuPf+o/0PRmmxnsRIZJT0+zH/VPgdZ/+qRI+9HA0ZttZrATGWbRwtkSGdn7P017NWG9sf7+PJ6dIDFRAye2sK3Y5lDxOnYiA9XU1smmzbslN7dA3G63PbXvQvkFI3WEeuzwGHuqb+eq3PLHNZVy4FiTtLSZGV8ov2CkjlDHX5kMFYOdiMgwLMUQERmGwU5EZBgGOxGRYRjsRESGYbATERmGwU5EZBgGOxGRYRjsREQGwT9NYrATERmkqLhI/h8F1Z1BDr63SQAAAABJRU5ErkJggg==;imageBorder=default;" vertex="1" parent="1">
          <mxGeometry x="260" y="300" width="374" height="140" as="geometry" />
        </mxCell>
      </root>
    </mxGraphModel>
  </diagram>
</mxfile>
